<?xml version="1.0" encoding="utf-8"?>
<!-- Generator: Adobe Illustrator 18.0.0, SVG Export Plug-In . SVG Version: 6.00 Build 0)  -->
<!DOCTYPE svg PUBLIC "-//W3C//DTD SVG 1.1//EN" "http://www.w3.org/Graphics/SVG/1.1/DTD/svg11.dtd">
<svg version="1.1" id="Layer_1" xmlns="http://www.w3.org/2000/svg" xmlns:xlink="http://www.w3.org/1999/xlink" x="0px" y="0px"
	 viewBox="0 0 681.2 681.2" enable-background="new 0 0 681.2 681.2" xml:space="preserve">
<circle fill="#EE1C25" cx="340.6" cy="340.6" r="340.6"/>
<circle fill="#FFFFFF" cx="340.6" cy="340.6" r="318.3"/>
<circle fill="#EE1C25" cx="340.6" cy="340.6" r="294.7"/>
<g>
	<path fill="#FFFFFF" d="M322.1,130.1c7.9-1.6,16-1.3,24-1.3c24.1,0,48.1,10,64.9,27.4c16.6,16.5,26.1,39.6,26.5,62.9
		c0,19.7,0,39.4,0,59c22.2-0.1,44.4,0.1,66.6-0.1c11.4,0.3,22.8-0.4,34.2,0.4c10,1.2,18.6,9.4,20.3,19.4c1.9,8.9-3,17.1-5.5,25.3
		c-21.3,59.7-42.4,119.5-63.7,179.1c-3.2,9.8-13,16.7-23.3,16.5c-84,0-168,0-252,0c-10.2,0.3-20-6.6-23.3-16.3
		c-21.8-61.2-43.5-122.5-65.3-183.8c-2.2-6-4.9-12.1-4.2-18.7c0.8-10.7,9.8-20.1,20.4-21.5c5.8-0.6,11.6-0.1,17.4-0.4
		c28.8,0.1,57.6,0,86.4,0c0-19,0-38,0-57.1c-0.2-20.5,6.8-40.9,19.5-56.9C278.9,146.2,299.6,133.5,322.1,130.1z M333.1,155.5
		c-15.9,1.5-31.1,8.9-41.9,20.7c-11.3,12-17.6,28.5-17.4,44.9c0,19,0,38,0,57c45.7-0.2,91.4-0.1,137.1,0c-0.1-17.3,0-34.7-0.1-52
		c0.5-10.5-0.9-21.2-5.1-30.9c-6.3-15.2-18.6-27.6-33.6-34.3C360,155.2,346.3,154.6,333.1,155.5z M159.4,310
		c19.9,58,39.6,116.1,59.4,174.1c80.8,0,161.5-0.1,242.3,0c20.1-58,40.2-116.1,60.4-174.1C400.8,310,280.1,310.1,159.4,310z"/>
	<path fill="#FFFFFF" d="M179.6,324.5c17-0.2,34.1,0,51.1-0.1c1.7,8.8,3.4,17.6,5,26.3c-15.7,0.1-31.3-0.1-47,0.1
		C185.8,342,182.7,333.3,179.6,324.5z"/>
	<path fill="#FFFFFF" d="M241.9,324.4c18.9,0,37.7,0,56.6,0c0.7,8.8,1.5,17.6,2,26.4c-17.9,0-35.8,0-53.7,0
		C245.3,342,243.3,333.3,241.9,324.4z"/>
	<path fill="#FFFFFF" d="M309.4,324.5c19.5,0,39.1,0,58.6,0c-0.4,8.8-1.2,17.6-1.5,26.4c-18.4,0-36.7,0-55,0
		C310.9,342,309.9,333.2,309.4,324.5z"/>
	<path fill="#FFFFFF" d="M379.1,324.4c20.5,0.1,41-0.1,61.5,0.1c-2.1,8.8-3.9,17.5-6,26.3c-19,0.1-38.1,0-57.1,0
		C377.8,342,378.4,333.2,379.1,324.4z"/>
	<path fill="#FFFFFF" d="M451.7,324.4c16.2,0.1,32.5,0,48.7,0c-3.1,8.8-6,17.6-9.1,26.4c-15.2-0.1-30.4,0-45.6-0.1
		C447.8,342,449.6,333.2,451.7,324.4z"/>
	<path fill="#FFFFFF" d="M193.8,365.6c14.9,0.2,29.8,0,44.8,0.1c2,9.9,3.6,19.9,5.8,29.7c-13.4-0.2-26.8-0.1-40.2-0.1
		C200.9,385.3,197.4,375.4,193.8,365.6z"/>
	<path fill="#FFFFFF" d="M249.7,365.7c17.4,0,34.7-0.1,52.1,0c1,9.9,1.3,19.9,2.6,29.7c-16.3-0.3-32.7,0.1-49-0.2
		C253.4,385.4,251.5,375.5,249.7,365.7z"/>
	<path fill="#FFFFFF" d="M312.5,365.6c17.7,0.2,35.3,0,53,0.1c-0.3,9.9-1.4,19.8-1.7,29.7c-16.3-0.3-32.5,0.1-48.8-0.1
		C314.1,385.4,313.6,375.4,312.5,365.6z"/>
	<path fill="#FFFFFF" d="M376.5,365.7c18.2,0,36.4,0,54.6,0c-2.2,9.9-4.7,19.8-6.7,29.8c-16.6-0.3-33.1,0.1-49.7-0.2
		C375.2,385.4,375.9,375.5,376.5,365.7z"/>
	<path fill="#FFFFFF" d="M442.3,365.7c14.6,0,29.2,0,43.8,0c-3.3,9.9-6.9,19.7-10.3,29.6c-13.4,0-26.9,0.1-40.3,0
		C437.7,385.4,440,375.5,442.3,365.7z"/>
	<path fill="#FFFFFF" d="M209.3,409.9c12.6,0.5,25.2,0,37.8,0.2c1.6,9.9,3.7,19.7,5.5,29.6c-11,0.1-22,0-32.9,0.1
		C216.3,429.8,212.8,419.9,209.3,409.9z"/>
	<path fill="#FFFFFF" d="M258.1,410.1c15.7-0.1,31.5-0.1,47.2,0c0.7,9.9,1.6,19.7,2.3,29.6c-14.6,0.1-29.2,0-43.9,0
		C261.8,429.9,259.9,420,258.1,410.1z"/>
	<path fill="#FFFFFF" d="M316.2,410.1c15.6-0.1,31.1-0.1,46.7,0c-0.4,9.9-1.4,19.8-1.6,29.7c-14.2-0.1-28.5-0.1-42.7,0
		C317.8,429.9,316.9,420,316.2,410.1z"/>
	<path fill="#FFFFFF" d="M372,439.7c0.5-9.9,1.2-19.7,1.8-29.6c15.7-0.1,31.4-0.1,47.1,0c-2.1,9.9-4.5,19.8-6.8,29.7
		C400,439.7,386,439.8,372,439.7z"/>
	<path fill="#FFFFFF" d="M432.1,410.1c12.9-0.2,25.8,0.2,38.7-0.3c-3.5,9.9-7,19.9-10.4,29.9c-11.7-0.1-23.4,0-35.1-0.1
		C427.5,429.8,429.9,420,432.1,410.1z"/>
	<path fill="#FFFFFF" d="M224.6,454.5c10.3,0.3,20.5,0,30.8,0.1c1.1,5.3,2.1,10.6,3,15.9c-9.4,0.1-18.8-0.1-28.1,0
		C228.5,465.1,226.9,459.7,224.6,454.5z"/>
	<path fill="#FFFFFF" d="M266.5,454.5c14.1,0.1,28.2,0,42.3,0c0.4,5.3,0.9,10.6,1.3,16c-13.5-0.1-27-0.1-40.5,0
		C268.6,465.2,267.6,459.9,266.5,454.5z"/>
	<path fill="#FFFFFF" d="M319.8,454.6c13.5-0.1,26.9,0,40.4,0c-0.1,5.3-0.7,10.6-1,15.9c-12.7,0-25.5,0.1-38.2,0
		C320.7,465.1,319.9,459.9,319.8,454.6z"/>
	<path fill="#FFFFFF" d="M371.1,454.6c13.2,0,26.4-0.1,39.6,0c-1.2,5.3-2.6,10.6-3.5,15.9c-12.4,0-24.7,0-37.1,0
		C370.4,465.2,370.8,459.9,371.1,454.6z"/>
	<path fill="#FFFFFF" d="M421.9,454.6c11.1,0,22.2-0.1,33.3,0c-1.8,5.3-3.6,10.6-5.4,16c-10.5-0.2-21,0-31.5-0.1
		C419.5,465.2,420.6,459.9,421.9,454.6z"/>
</g>
</svg>
