<?xml version="1.0" encoding="utf-8"?>
<!-- Generator: Adobe Illustrator 18.0.0, SVG Export Plug-In . SVG Version: 6.00 Build 0)  -->
<!DOCTYPE svg PUBLIC "-//W3C//DTD SVG 1.1//EN" "http://www.w3.org/Graphics/SVG/1.1/DTD/svg11.dtd">
<svg version="1.1" id="Layer_2" xmlns="http://www.w3.org/2000/svg" xmlns:xlink="http://www.w3.org/1999/xlink" x="0px" y="0px"
	 viewBox="0 0 433.5 433.5" enable-background="new 0 0 433.5 433.5" xml:space="preserve">
<rect x="0" y="0" width="433.5" height="433.5"/>
<g>
	<g>
		<path fill="#FFFFFF" d="M179.2,263.4h3.7c0.7,0,1.3,0.1,1.8,0.2c0.5,0.1,0.8,0.3,1.1,0.6c0.3,0.3,0.4,0.6,0.6,1
			c0.1,0.4,0.1,0.9,0.1,1.4v4.4c0,0.7-0.1,1.2-0.3,1.6c-0.2,0.4-0.6,0.8-1.1,1c0.6,0.2,1,0.6,1.2,1c0.2,0.5,0.4,1,0.4,1.7v4.3
			c0,0.5,0,1-0.1,1.5c-0.1,0.4-0.3,0.8-0.5,1.1c-0.3,0.3-0.6,0.5-1.1,0.7c-0.5,0.2-1,0.3-1.8,0.3h-3.9V263.4z M181.5,265.6v7h1.3
			c0.5,0,0.9-0.1,1.1-0.4c0.2-0.3,0.3-0.6,0.3-1.1V267c0-0.5-0.1-0.8-0.3-1c-0.2-0.2-0.5-0.3-1.1-0.3H181.5z M182.9,282
			c0.5,0,0.9-0.1,1-0.3c0.2-0.2,0.3-0.6,0.3-1v-4.3c0-0.5-0.1-0.8-0.3-1.1c-0.2-0.3-0.5-0.4-1-0.4h-1.4v7.2H182.9z"/>
		<path fill="#FFFFFF" d="M191.8,280.7c0,0.5,0.1,0.8,0.3,1.1c0.2,0.3,0.5,0.4,1.1,0.4c0.5,0,0.9-0.1,1.1-0.4
			c0.2-0.3,0.3-0.7,0.3-1.1v-17.4h2.3v17.4c0,0.5-0.1,1-0.2,1.5c-0.1,0.4-0.3,0.8-0.6,1.2c-0.3,0.3-0.7,0.6-1.1,0.7
			c-0.5,0.2-1.1,0.3-1.8,0.3c-0.7,0-1.3-0.1-1.8-0.3c-0.5-0.2-0.8-0.4-1.1-0.7c-0.3-0.3-0.5-0.7-0.6-1.2c-0.1-0.4-0.2-0.9-0.2-1.5
			v-17.4h2.3V280.7z"/>
		<path fill="#FFFFFF" d="M199.9,263.4h3.7c0.7,0,1.3,0.1,1.8,0.3c0.5,0.2,0.8,0.4,1.1,0.7c0.3,0.3,0.5,0.7,0.6,1.1
			c0.1,0.4,0.2,0.9,0.2,1.5v13.6c0,0.5-0.1,1-0.2,1.5c-0.1,0.4-0.3,0.8-0.6,1.1c-0.3,0.3-0.6,0.6-1.1,0.7c-0.5,0.2-1,0.3-1.8,0.3
			h-3.8V263.4z M203.6,282c0.5,0,0.9-0.1,1.1-0.3c0.2-0.2,0.3-0.6,0.3-1V267c0-0.5-0.1-0.8-0.3-1c-0.2-0.2-0.5-0.3-1.1-0.3h-1.4V282
			H203.6z"/>
	</g>
	<path fill="#FFFFFF" d="M218,284.2h-2.3l-0.5-4.5h-2.7l-0.5,4.5h-2.4l2.7-20.8h2.9L218,284.2z M212.7,277.5h2.2l-1.1-10.7
		L212.7,277.5z"/>
	<g>
		<path fill="#FFFFFF" d="M220.6,263.4h3.7c0.7,0,1.3,0.1,1.8,0.3c0.4,0.2,0.8,0.4,1.1,0.7c0.3,0.3,0.5,0.7,0.6,1.1
			c0.1,0.4,0.2,0.9,0.2,1.5v4.8c0,0.5-0.1,1-0.2,1.5c-0.1,0.4-0.3,0.8-0.6,1.1c-0.3,0.3-0.7,0.5-1.1,0.7c-0.5,0.2-1.1,0.3-1.8,0.3
			h-1.4v8.9h-2.3V263.4z M224.2,273.1c0.5,0,0.9-0.1,1-0.4c0.2-0.2,0.3-0.6,0.3-1V267c0-0.5-0.1-0.8-0.3-1c-0.2-0.2-0.5-0.3-1-0.3
			h-1.3v7.5H224.2z"/>
	</g>
	<polygon fill="#FFFFFF" points="233,282 236.8,282 236.8,284.2 230.7,284.2 230.7,263.4 236.8,263.4 236.8,265.6 233,265.6 
		233,272.6 236.3,272.6 236.3,274.7 233,274.7 	"/>
	<g>
		<path fill="#FFFFFF" d="M244.3,278.3c0-1-0.1-1.8-0.4-2.3c-0.2-0.6-0.5-1.1-0.9-1.4c-0.4-0.4-0.7-0.7-1.2-1
			c-0.4-0.3-0.8-0.6-1.2-1c-0.4-0.4-0.7-0.9-0.9-1.5c-0.2-0.6-0.4-1.4-0.4-2.5v-1.8c0-0.5,0.1-1,0.2-1.5c0.1-0.4,0.3-0.8,0.6-1.2
			c0.3-0.3,0.7-0.6,1.1-0.8c0.5-0.2,1.1-0.3,1.8-0.3c0.7,0,1.3,0.1,1.8,0.3c0.5,0.2,0.8,0.4,1.1,0.8c0.3,0.3,0.5,0.7,0.6,1.2
			c0.1,0.4,0.2,0.9,0.2,1.5v2.3h-2.3v-2.3c0-0.5-0.1-0.8-0.3-1.1c-0.2-0.3-0.5-0.4-1-0.4s-0.9,0.1-1,0.4c-0.2,0.3-0.3,0.7-0.3,1.1
			v1.8c0,0.8,0.1,1.5,0.4,2c0.3,0.5,0.5,0.9,0.9,1.2c0.4,0.3,0.7,0.6,1.2,0.9c0.4,0.3,0.8,0.6,1.2,1.1c0.4,0.4,0.7,1,0.9,1.7
			c0.2,0.7,0.4,1.6,0.4,2.8v2.6c0,0.5-0.1,1-0.2,1.5c-0.1,0.4-0.3,0.8-0.6,1.2c-0.3,0.3-0.7,0.6-1.1,0.8c-0.5,0.2-1.1,0.3-1.8,0.3
			c-0.7,0-1.3-0.1-1.8-0.3c-0.5-0.2-0.8-0.4-1.1-0.8c-0.3-0.3-0.5-0.7-0.6-1.2c-0.1-0.4-0.2-0.9-0.2-1.5v-2.6h2.3v2.6
			c0,0.5,0.1,0.8,0.3,1.1c0.2,0.3,0.5,0.4,1,0.4s0.9-0.1,1-0.4c0.2-0.3,0.3-0.7,0.3-1.1V278.3z"/>
	</g>
	<polygon fill="#FFFFFF" points="253.7,284.2 251.4,284.2 251.4,265.6 249,265.6 249,263.4 256.1,263.4 256.1,265.6 253.7,265.6 	
		"/>
	<g>
		<path fill="#FFFFFF" d="M48,150.4h16.1c3.1,0,5.7,0.3,7.6,0.9c2,0.6,3.6,1.5,4.7,2.7c1.2,1.2,2,2.6,2.4,4.4
			c0.4,1.8,0.6,3.8,0.6,6.2v19c0,2.8-0.5,5.2-1.4,7.2c-0.9,1.9-2.5,3.4-4.8,4.3c2.5,0.9,4.3,2.4,5.3,4.4c1,2,1.6,4.4,1.6,7.4v18.9
			c0,2.3-0.2,4.4-0.6,6.3c-0.4,1.9-1.2,3.5-2.3,4.8c-1.1,1.3-2.7,2.3-4.7,3c-2,0.7-4.5,1.1-7.6,1.1H48V150.4z M58.2,160.1v30.4h5.7
			c2.2,0,3.8-0.6,4.6-1.8c0.8-1.2,1.2-2.8,1.2-4.8V166c0-2-0.4-3.5-1.2-4.5c-0.8-1-2.4-1.5-4.6-1.5H58.2z M64.2,231.3
			c2.2,0,3.8-0.5,4.6-1.5c0.8-1,1.2-2.5,1.2-4.5v-18.9c0-2-0.4-3.6-1.2-4.8c-0.8-1.2-2.4-1.8-4.6-1.8h-6.1v31.5H64.2z"/>
	</g>
	<path fill="#FFFFFF" d="M120.5,241h-10.2l-2.1-19.7H96.5L94.5,241H84.2L96,150.4h12.7L120.5,241z M97.5,212h9.7l-4.8-46.8L97.5,212
		z"/>
	<polygon fill="#FFFFFF" points="125.7,241 125.7,234.6 142.9,160.1 125.5,160.1 125.5,150.4 153.8,150.4 153.8,156.8 136.6,231.3 
		154.3,231.3 154.3,241 	"/>
	<rect x="161.4" y="150.4" fill="#FFFFFF" width="10.1" height="90.7"/>
	<g>
		<path fill="#FFFFFF" d="M192.7,150.4h16.1c3.1,0,5.7,0.3,7.6,0.9c2,0.6,3.6,1.5,4.7,2.7c1.2,1.2,2,2.6,2.4,4.4
			c0.4,1.8,0.7,3.8,0.7,6.2v19c0,2.8-0.5,5.2-1.4,7.2c-0.9,1.9-2.5,3.4-4.8,4.3c2.5,0.9,4.3,2.4,5.3,4.4c1,2,1.6,4.4,1.6,7.4v18.9
			c0,2.3-0.2,4.4-0.6,6.3c-0.4,1.9-1.2,3.5-2.3,4.8c-1.1,1.3-2.7,2.3-4.7,3c-2,0.7-4.5,1.1-7.6,1.1h-16.8V150.4z M202.8,160.1v30.4
			h5.7c2.2,0,3.8-0.6,4.6-1.8c0.8-1.2,1.2-2.8,1.2-4.8V166c0-2-0.4-3.5-1.2-4.5c-0.8-1-2.4-1.5-4.6-1.5H202.8z M208.9,231.3
			c2.2,0,3.8-0.5,4.6-1.5c0.8-1,1.2-2.5,1.2-4.5v-18.9c0-2-0.4-3.6-1.2-4.8c-0.8-1.2-2.4-1.8-4.6-1.8h-6.1v31.5H208.9z"/>
	</g>
	<path fill="#FFFFFF" d="M266.7,241h-10.2l-2.1-19.7h-11.7l-2.1,19.7h-10.2l11.8-90.7h12.7L266.7,241z M243.6,212h9.7l-4.8-46.8
		L243.6,212z"/>
	<polygon fill="#FFFFFF" points="271.9,241 271.9,234.6 289.1,160.1 271.7,160.1 271.7,150.4 300,150.4 300,156.8 282.7,231.3 
		300.5,231.3 300.5,241 	"/>
	<path fill="#FFFFFF" d="M341.9,241h-10.2l-2.1-19.7h-11.7l-2.1,19.7h-10.2l9.9-75.8H332L341.9,241z M318.8,212h9.7l-4.8-37.6
		L318.8,212z"/>
	<g>
		<path fill="#FFFFFF" d="M348.7,150.4h16.6c3.1,0,5.7,0.4,7.6,1.2c2,0.8,3.5,1.8,4.7,3.2c1.1,1.3,1.9,3,2.3,4.9
			c0.4,1.9,0.7,4.1,0.7,6.4v20.7c0,3.8-0.7,7-1.9,9.5c-1.3,2.5-3.8,4.3-7.4,5.2l14.2,39.5h-11.3l-12.6-38.9h-2.8V241h-10.1V150.4z
			 M364.7,192.9c2.2,0,3.8-0.5,4.6-1.6c0.8-1,1.2-2.6,1.2-4.5V166c0-2-0.4-3.5-1.2-4.5c-0.8-1-2.4-1.5-4.6-1.5h-5.8v32.8H364.7z"/>
	</g>
	<polygon fill="#FFFFFF" points="330.1,150.4 317.4,150.4 316.1,160.1 331.3,160.1 	"/>
	<rect x="266" y="273.4" fill="#FFFFFF" width="119.5" height="0.8"/>
	<rect x="48" y="273.4" fill="#FFFFFF" width="119.5" height="0.8"/>
</g>
<g>
	<path fill="#FFFFFF" d="M83.1,128.5C83.1,128.6,83.2,128.6,83.1,128.5c0.1,0.1,0.1,0.1,0,0.1l-0.2,0.3c0,0,0,0,0,0c0,0-0.1,0-0.1,0
		l-2.8-1.5c-0.1,0-0.1-0.1-0.1-0.1c0-0.1,0-0.1,0-0.2l1.4-2.8c0,0,0-0.1,0.1-0.1c0,0,0,0,0.1,0l0.4,0.1c0,0,0,0,0,0c0,0,0,0.1,0,0.1
		l-0.4,2.3L83.1,128.5z M85.5,127.8C85.6,127.8,85.6,127.8,85.5,127.8c0.1,0.1,0.1,0.1,0,0.1l-0.2,0.3c0,0,0,0,0,0c0,0-0.1,0-0.1,0
		l-2.8-1.5c-0.1,0-0.1-0.1-0.1-0.1c0-0.1,0-0.1,0-0.2l1.4-2.8c0,0,0-0.1,0.1-0.1c0,0,0,0,0.1,0l0.4,0.1c0,0,0,0,0,0c0,0,0,0.1,0,0.1
		l-0.4,2.3L85.5,127.8z"/>
	<path fill="#FFFFFF" d="M93.5,121.5c-0.1-0.5-0.7-2.3-0.7-2.5c-0.3-0.8-0.5-0.8-1.1-0.6l-0.5,0.1c-0.1,0-0.1,0-0.1-0.1L91,118
		c0-0.1,0-0.1,0.1-0.2c0.2-0.1,0.9-0.2,2.1-0.5c0.5-0.1,1.3-0.4,2.1-0.6c1.1-0.3,2.1-0.5,2.7-0.3c0.9,0.2,1.4,0.8,1.6,1.7
		c0.3,1.2-0.1,2-1.3,2.9l0,0.1c1.8,0,3,0.6,3.4,2.1c0.2,0.8,0.1,1.9-0.5,2.5c-0.5,0.5-1.4,0.9-3,1.4c-0.6,0.2-1.5,0.4-2.1,0.5
		c-1.1,0.3-1.7,0.5-2,0.6c-0.1,0-0.1,0-0.1-0.1l-0.1-0.4c0-0.1,0-0.1,0.1-0.1l0.6-0.2c0.4-0.1,0.5-0.3,0.4-0.8
		c-0.1-0.4-0.6-2.3-0.9-3.5L93.5,121.5z M95.4,121.6c0.2,0,0.4-0.1,0.7-0.2c0.6-0.2,1.2-0.5,1.4-0.8c0.4-0.6,0.5-1.3,0.3-1.9
		c-0.2-0.5-0.5-1.1-1-1.3c-0.6-0.2-1.4-0.2-1.8,0c-0.1,0-0.3,0.1-0.4,0.1c-0.1,0.1-0.1,0.2-0.1,0.3c0.1,0.3,0.4,1.5,0.7,2.7
		L95.4,121.6z M98.1,126.5c1.1-0.3,2-1.1,1.5-2.9c-0.3-1.2-1.1-1.8-2-1.9c-0.6-0.1-1.2,0.1-1.7,0.2l-0.4,0.1l0.8,2.9
		C96.7,126.3,97.2,126.8,98.1,126.5z"/>
	<path fill="#FFFFFF" d="M104.1,115.7c-0.1-0.5-0.3-0.7-0.7-0.6l-0.7,0.2c-0.1,0-0.1,0-0.1-0.1l-0.1-0.3c0-0.1,0-0.1,0.1-0.2
		c0.1,0,0.9-0.2,2.3-0.5c1.2-0.3,1.9-0.5,2.1-0.5c0.1,0,0.1,0,0.1,0.1l0.1,0.4c0,0.1,0,0.1-0.1,0.1l-0.6,0.1
		c-0.4,0.1-0.6,0.4-0.6,0.7c0,0.2,0.2,1.1,0.4,1.9l0.4,1.8c0.2,0.7,0.4,1.8,0.6,2.2c0.2,0.7,0.5,1.3,0.9,1.7
		c0.7,0.6,1.5,0.6,2.2,0.4c0.7-0.2,1.4-0.6,1.8-1.2c0.4-0.7,0.5-1.6,0.3-2.7l-0.6-2.6c-0.3-1.2-0.7-2.4-0.8-2.7
		c-0.1-0.4-0.4-0.6-0.8-0.5l-0.5,0.1c-0.1,0-0.1,0-0.1-0.1l-0.1-0.4c0-0.1,0-0.1,0.1-0.1c0.1,0,0.8-0.2,1.8-0.4
		c0.9-0.2,1.4-0.4,1.5-0.4c0.1,0,0.2,0,0.2,0.1l0.1,0.3c0,0.1,0,0.1-0.1,0.2l-0.5,0.1c-0.5,0.1-0.5,0.5-0.5,0.7
		c0,0.2,0.5,2.2,0.5,2.4c0,0.2,0.6,2.7,0.7,3.3c0.2,1.2,0.1,2.2-0.6,3.1c-0.5,0.7-1.3,1.3-2.4,1.5c-0.7,0.2-1.6,0.3-2.2,0.2
		c-0.9-0.1-1.7-0.7-2.2-1.5c-0.4-0.6-0.6-1.5-1.1-3.5L104.1,115.7z M107.6,112.4c0,0,0-0.1,0-0.1l1.5-2.4c0.1-0.2,0.3-0.3,0.6-0.4
		c0.4-0.1,0.7,0.2,0.8,0.5c0.1,0.2-0.1,0.6-0.4,0.8l-2.2,1.7c0,0-0.1,0-0.1,0L107.6,112.4z"/>
	<path fill="#FFFFFF" d="M120.2,111.4l-0.4,0.1c-0.5,0.1-1.5,0.3-2.1,0.6c-0.4,0.3-0.8,1.4-1,1.9c0,0.1-0.1,0.2-0.1,0.1l-0.3,0
		c-0.1,0-0.1-0.1-0.1-0.1l0.2-2.8c0-0.2,0.1-0.3,0.1-0.3c0.1,0,0.2,0,0.3,0.1c0.4,0.2,0.7,0.2,1.1,0.2c0.8-0.1,1.4-0.2,2.9-0.5
		l0.8-0.2c1.6-0.3,2.2-0.5,2.9-0.7c0.3-0.1,0.8-0.4,1-0.6c0.1-0.1,0.1-0.2,0.2-0.2c0.1,0,0.1,0,0.2,0.2c0.1,0.3,0.7,2,1,2.7
		c0,0.1,0,0.1,0,0.1l-0.3,0.2c-0.1,0-0.1,0-0.2-0.1c-0.3-0.4-1-1.2-1.5-1.4c-0.5-0.2-1.8,0.1-2.3,0.2l-0.4,0.1l1.6,7.8
		c0.2,1.1,0.4,1.4,0.8,1.3l0.9-0.2c0.1,0,0.1,0,0.1,0.1l0.1,0.3c0,0.1,0,0.2-0.1,0.2c-0.1,0-0.6,0.1-2.2,0.4
		c-1.5,0.3-2.1,0.5-2.3,0.5c-0.1,0-0.1,0-0.1-0.1l-0.1-0.3c0-0.1,0-0.1,0.1-0.1l0.8-0.2c0.3-0.1,0.4-0.3,0.4-0.5
		c0-0.4-0.9-4.9-1-5.2L120.2,111.4z"/>
	<path fill="#FFFFFF" d="M138.2,108.4c1.3,0.7,2.4,2,2.8,4c0.2,1.1,0.1,2.3-0.5,3.4c-0.7,1.3-1.9,2.5-4.1,2.9
		c-0.9,0.2-2.2,0.1-3.5-0.4c-1.2-0.5-2.5-1.9-2.9-4c-0.1-0.9-0.1-2.3,0.7-3.9c1-1.8,2.6-2.4,3.8-2.6
		C135.6,107.7,136.8,107.7,138.2,108.4z M132.5,109.7c-0.8,1-0.9,2.6-0.7,3.8c0.7,3.8,3.2,4.8,4.5,4.6c3-0.5,2.9-3.9,2.7-5.1
		c-0.5-3.2-3-4.7-4.5-4.4C134.3,108.5,133.4,108.5,132.5,109.7z"/>
	<path fill="#FFFFFF" d="M147.4,112.8c0.1,0.9,0.4,2.6,0.4,2.8c0.1,0.3,0.2,0.5,0.5,0.5l0.7-0.1c0.1,0,0.1,0,0.1,0.1l0,0.4
		c0,0.1,0,0.1-0.1,0.2c-0.2,0-0.5,0-2,0.2c-1.5,0.2-1.8,0.3-2,0.3c-0.1,0-0.1,0-0.1-0.1l0-0.3c0-0.1,0-0.1,0.1-0.1l0.5-0.1
		c0.3,0,0.6-0.2,0.5-0.6c-0.2-1.5-0.4-2.9-0.6-4.3l-0.5-3.9c-0.1-0.5-0.3-0.7-0.6-0.7l-0.6,0.1c-0.1,0-0.1,0-0.1-0.1l-0.1-0.4
		c0-0.1,0-0.1,0.1-0.1c0.1,0,0.6,0,2-0.2c0.8-0.1,2.2-0.3,2.6-0.4c1.2-0.2,2.2,0.1,2.8,0.6c0.6,0.4,1,1,1,1.6
		c0.3,1.9-0.8,2.8-2.4,3.3l0,0.1c0.4,0.1,0.7,0.3,1,0.6c0.2,0.2,1.3,1.5,1.5,1.6c0.1,0.1,1.2,1.3,1.5,1.5c0.3,0.2,0.7,0.2,1.1,0.1
		c0.1,0,0.1,0,0.1,0.1l0,0.3c0,0.1,0,0.2-0.1,0.2c-0.1,0-0.5,0-1.5,0.2c-0.4,0.1-1,0.2-1.3,0.2c-0.2-0.1-0.5-0.5-0.8-0.8
		c-0.3-0.4-1.1-1.4-1.2-1.6c-0.2-0.2-0.7-0.9-1-1.2c-0.4-0.5-0.8-0.8-1.5-0.7c-0.1,0-0.3,0.1-0.5,0.1L147.4,112.8z M147.3,111.5
		c0.2,0,0.4,0,0.6,0c2.3-0.3,2.5-2.3,2.4-2.9c-0.1-0.7-0.5-1.3-0.9-1.6c-0.6-0.4-1.3-0.5-2-0.4c-0.2,0-0.4,0.1-0.5,0.2
		c-0.1,0.1-0.1,0.3-0.1,0.5L147.3,111.5z"/>
	<path fill="#FFFFFF" d="M161.5,109.6c-0.1-1.2,0.7-2,1.7-2.1c1-0.1,2,0.5,2.1,1.7c0.1,1.1-0.7,1.9-1.7,2
		C162.7,111.3,161.7,110.7,161.5,109.6z"/>
	<path fill="#FFFFFF" d="M174.7,106.8c0-0.4-0.2-2.5-0.3-2.7c-0.1-0.4-0.3-0.4-0.6-0.4l-0.8,0.1c-0.1,0-0.1,0-0.1-0.1l0-0.4
		c0-0.1,0.1-0.1,0.1-0.1c0.4,0,1.2,0,2.3-0.1c0.7-0.1,1.5-0.2,2.2-0.2c2-0.1,3.6-0.1,5.1,1c1,0.7,1.8,1.9,2,3.7
		c0.1,1.7-0.3,2.9-1.2,4c-1.4,1.7-3.7,1.9-4.7,1.9c-0.6,0-2.1,0.1-2.8,0.2c-1.3,0.1-1.9,0.2-2.1,0.2c-0.1,0-0.1,0-0.1-0.1l0-0.4
		c0-0.1,0-0.1,0.1-0.1l0.9-0.1c0.3,0,0.4-0.2,0.5-0.4c0-0.3-0.2-3.7-0.2-4.8L174.7,106.8z M176.7,108.1c0,0.2,0.2,2.7,0.3,3.6
		c0,0.3,0.1,0.5,0.3,0.8c0.2,0.3,0.8,0.3,1.3,0.3c1.2-0.1,2.3-0.7,3-1.7c0.6-0.9,0.9-2.1,0.8-3.5c-0.1-1.2-0.7-2.4-1.4-3.2
		c-0.9-0.8-2.2-1.3-3.5-1.2c-0.3,0-0.7,0.1-0.9,0.2c-0.2,0.1-0.2,0.4-0.2,0.7c0,0.6,0.2,2.6,0.2,2.8L176.7,108.1z"/>
	<path fill="#FFFFFF" d="M191.2,108.3c0.1,0.8,0.1,2.3,0.2,2.5c0,0.8,0.3,1.1,0.7,1.1c0.2,0,0.6,0.1,1.2,0.1c0.3,0,1-0.1,1.3-0.1
		c0.3,0,0.8-0.2,1.2-0.6c0.3-0.3,1.1-1.3,1.3-1.7c0.1-0.1,0.1-0.1,0.2-0.1l0.2,0.1c0,0,0.1,0.1,0,0.1l-0.6,2.3
		c0,0.1-0.1,0.2-0.3,0.2c-0.1,0-0.4,0-1.3,0c-0.9,0-2.5,0.1-5,0.2c-0.6,0-1,0.1-1.3,0.1c-0.3,0-0.5,0.1-0.6,0.1
		c-0.1,0-0.1,0-0.1-0.1l0-0.4c0-0.1,0-0.1,0.1-0.1l0.5,0c0.7,0,0.7-0.1,0.7-0.7l-0.2-5c-0.1-1.2-0.2-3.1-0.2-3.3
		c-0.1-0.4-0.2-0.5-0.7-0.5l-0.6,0c-0.1,0-0.1,0-0.1-0.1l0-0.4c0-0.1,0-0.1,0.1-0.1c0.3,0,0.9,0,2.1-0.1l0.4,0
		c0.7,0,4.1-0.2,4.8-0.2c0.2,0,0.5,0,0.6,0c0.1,0,0.1,0,0.1,0.1c0.1,0.2,0.7,2.2,0.8,2.4c0,0.1,0,0.1,0,0.2l-0.3,0.1
		c0,0-0.1,0-0.1-0.1c-0.1-0.1-1.4-1.4-1.7-1.6c-0.3-0.2-0.7-0.3-1.2-0.3l-2.3,0l0.2,4.3c0.4,0,1.5-0.1,1.7-0.2
		c0.3-0.1,0.5-0.2,0.7-0.6c0.1-0.2,0.2-0.6,0.2-0.9c0-0.1,0.1-0.1,0.1-0.1l0.4,0c0.1,0,0.1,0,0.1,0.1c0,0.2,0,1.2,0,1.6
		c0,0.6,0.1,1.3,0.2,1.6c0,0.1,0,0.1-0.1,0.1l-0.3,0.1c-0.1,0-0.1,0-0.1-0.1c-0.1-0.2-0.2-0.6-0.3-0.7c-0.1-0.3-0.4-0.5-0.8-0.5
		c-0.5,0-1.3,0-1.7,0L191.2,108.3z"/>
	<path fill="#FFFFFF" d="M202.9,108.2c0,0.8,0.1,2.9,0.1,3.2c0,0.2,0.2,0.3,0.4,0.3l0.6,0c0.1,0,0.1,0,0.1,0.1l0,0.4
		c0,0.1,0,0.1-0.1,0.1c-0.2,0-0.6,0-1.9,0c-1.3,0-1.8,0.1-1.9,0.1c-0.1,0-0.1,0-0.1-0.1l0-0.4c0-0.1,0-0.1,0.1-0.1l0.5,0
		c0.3,0,0.4-0.1,0.4-0.3c0-0.1,0-2.9-0.1-4.7l0-0.9c0-0.3-0.1-3.1-0.1-3.3c0-0.2-0.1-0.4-0.5-0.3l-0.4,0c-0.1,0-0.1,0-0.1-0.1l0-0.4
		c0-0.1,0-0.1,0.1-0.1c0.2,0,0.6,0,1.9,0c1.2,0,1.6-0.1,1.9-0.1c0.1,0,0.1,0,0.1,0.1l0,0.4c0,0.1,0,0.1-0.1,0.1l-0.5,0
		c-0.3,0-0.4,0.1-0.4,0.4c0,0.2,0,2.6,0,3.3l0,0.7l0.3,0c0.2,0,0.3-0.1,0.5-0.2c0.3-0.2,2.8-3.6,3-3.8c0.2-0.3,0-0.5-0.3-0.5l-0.2,0
		c-0.1,0-0.1,0-0.1-0.1l0-0.4c0-0.1,0-0.1,0.1-0.1c0.2,0,0.8,0,1.8,0c0.6,0,1.1-0.1,1.3-0.1c0.1,0,0.1,0,0.1,0.1l0,0.4
		c0,0.1-0.1,0.1-0.1,0.1l-0.3,0c-0.2,0-0.5,0.1-0.8,0.3c-0.7,0.5-2.8,3-3.3,3.7c0.6,0.7,3.8,4.6,4.2,5.1c0.3,0.3,0.7,0.3,0.9,0.3
		l0.3,0c0.1,0,0.1,0.1,0.1,0.1l0,0.4c0,0.1,0,0.1-0.1,0.1c-0.2,0-0.7,0-2.1,0c-1.3,0-1.8,0.1-2,0.1c-0.1,0-0.1,0-0.1-0.1l0-0.4
		c0-0.1,0-0.1,0.1-0.1l0.2,0c0.3,0,0.3-0.3,0.2-0.4c-0.2-0.3-2.7-3.7-2.9-4c-0.2-0.1-0.3-0.2-0.5-0.2l-0.3,0L202.9,108.2z"/>
	<path fill="#FFFFFF" d="M221.4,102.4c1.1,0.9,2,2.4,2,4.5c0,1.1-0.3,2.3-1.1,3.3c-1,1.2-2.3,2.1-4.5,2.1c-0.9,0-2.2-0.3-3.4-1
		c-1.1-0.7-2.2-2.3-2.2-4.5c0-0.9,0.3-2.3,1.4-3.7c1.3-1.6,3-1.9,4.2-1.9C219,101.2,220.2,101.4,221.4,102.4z M215.6,102.7
		c-0.9,0.9-1.4,2.4-1.4,3.6c0,3.9,2.4,5.3,3.6,5.3c3,0,3.5-3.3,3.5-4.6c0-3.3-2.2-5.1-3.6-5.2C217.5,101.8,216.7,101.7,215.6,102.7z
		"/>
	<path fill="#FFFFFF" d="M229.7,108.3c0,0.9,0,2.6,0,2.8c0,0.3,0.1,0.6,0.4,0.6l0.8,0c0.1,0,0.1,0,0.1,0.1l0,0.4
		c0,0.1,0,0.1-0.2,0.1c-0.2,0-0.5-0.1-2.1-0.1c-1.5,0-1.8,0-2,0c-0.1,0-0.1,0-0.1-0.1l0-0.3c0-0.1,0-0.1,0.1-0.1l0.5,0
		c0.3,0,0.6-0.1,0.6-0.5c0.1-1.5,0.1-2.9,0.1-4.3l0.1-3.9c0-0.5-0.2-0.8-0.5-0.8l-0.6,0c-0.1,0-0.1,0-0.1-0.1l0-0.4
		c0-0.1,0-0.1,0.1-0.1c0.1,0,0.6,0.1,2.1,0.1c0.8,0,2.2,0,2.7,0c1.2,0,2.1,0.5,2.7,1c0.5,0.5,0.8,1.1,0.8,1.7
		c-0.1,1.9-1.2,2.6-2.9,2.9l0,0.1c0.4,0.2,0.7,0.4,0.9,0.7c0.2,0.2,1.1,1.7,1.2,1.9c0.1,0.2,1,1.5,1.2,1.7c0.3,0.3,0.7,0.3,1.1,0.3
		c0.1,0,0.1,0,0.1,0.1l0,0.3c0,0.1,0,0.1-0.1,0.1c-0.1,0-0.5-0.1-1.5-0.1c-0.4,0-1,0-1.3,0c-0.2-0.1-0.5-0.6-0.6-0.9
		c-0.3-0.4-0.8-1.5-0.9-1.8c-0.1-0.3-0.5-1-0.8-1.3c-0.4-0.5-0.7-0.9-1.3-1c-0.1,0-0.3,0-0.5,0L229.7,108.3z M229.8,106.9
		c0.2,0,0.4,0.1,0.6,0.1c2.3,0.1,2.9-1.8,2.9-2.5c0-0.7-0.2-1.3-0.6-1.7c-0.5-0.5-1.2-0.7-2-0.7c-0.2,0-0.4,0-0.5,0.1
		c-0.1,0.1-0.2,0.2-0.2,0.4L229.8,106.9z"/>
	<path fill="#FFFFFF" d="M244.2,107.3c0.1-1.2,1-1.9,2.1-1.8c1,0.1,1.9,0.8,1.8,2.1c-0.1,1.1-1,1.8-2.1,1.7
		C245.1,109.2,244.1,108.4,244.2,107.3z"/>
	<path fill="#FFFFFF" d="M259.3,109.4c-0.1,0.8-0.1,2.3-0.2,2.5c-0.1,0.8,0.2,1.1,0.5,1.2c0.2,0.1,0.6,0.2,1.2,0.2
		c0.3,0,1,0.1,1.3,0c0.3,0,0.9-0.1,1.3-0.4c0.3-0.2,1.2-1.1,1.5-1.5c0.1-0.1,0.1-0.1,0.2,0l0.2,0.2c0,0,0.1,0.1,0,0.2l-0.9,2.2
		c-0.1,0.1-0.2,0.2-0.3,0.2c-0.1,0-0.4,0-1.3-0.1c-0.9-0.1-2.5-0.2-5-0.4c-0.6,0-1-0.1-1.3-0.1c-0.3,0-0.5,0-0.6,0
		c-0.1,0-0.1,0-0.1-0.1l0-0.4c0-0.1,0-0.1,0.2-0.1l0.5,0c0.7,0.1,0.8,0,0.8-0.6l0.4-5c0.1-1.2,0.2-3.1,0.2-3.3
		c0-0.4-0.2-0.5-0.6-0.6l-0.6,0c-0.1,0-0.1,0-0.1-0.1l0-0.4c0-0.1,0-0.1,0.1-0.1c0.3,0,0.9,0.1,2.1,0.2l0.4,0
		c0.7,0.1,4.1,0.3,4.8,0.4c0.2,0,0.5,0,0.6,0c0.1,0,0.1,0,0.1,0.1c0,0.2,0.4,2.3,0.5,2.4c0,0.1,0,0.1-0.1,0.2l-0.3,0.1
		c0,0-0.1,0-0.1-0.1c-0.1-0.1-1.2-1.6-1.5-1.8c-0.3-0.2-0.7-0.4-1.1-0.5l-2.3-0.3l-0.4,4.3c0.4,0,1.5,0.1,1.7,0.1
		c0.3,0,0.5-0.1,0.7-0.5c0.1-0.2,0.3-0.5,0.3-0.8c0-0.1,0.1-0.1,0.1-0.1l0.4,0.1c0.1,0,0.1,0,0.1,0.1c-0.1,0.2-0.1,1.2-0.2,1.6
		c-0.1,0.6-0.1,1.3-0.1,1.7c0,0.1,0,0.1-0.1,0.1l-0.3,0c-0.1,0-0.1,0-0.1-0.1c0-0.2-0.1-0.6-0.2-0.8c-0.1-0.3-0.4-0.5-0.7-0.6
		c-0.5-0.1-1.2-0.2-1.7-0.2L259.3,109.4z"/>
	<path fill="#FFFFFF" d="M278.5,110.3c0.1-0.4,0.5-4.1,0.5-4.2l-0.1,0c-0.1,0.2-2.5,4.3-2.7,4.7c-0.3,0.5-2.2,3.8-2.3,3.9
		c-0.1,0.1-0.2,0.3-0.4,0.3c-0.1,0-0.2-0.1-0.2-0.3c-0.1-0.1-1.4-5-1.5-5.2c-0.2-0.7-1.2-4.2-1.3-4.4c-0.1,0.2-0.5,4-0.6,4.1
		c0,0.2-0.3,2.7-0.4,3.7c0,0.7,0.1,1.3,0.6,1.3l0.7,0.1c0.1,0,0.1,0.1,0.1,0.1l0,0.4c0,0.1,0,0.1-0.2,0.1c-0.2,0-0.6-0.1-1.7-0.2
		c-1.3-0.1-1.8-0.2-1.9-0.2c-0.1,0-0.1,0-0.1-0.1l0-0.4c0,0,0-0.1,0.1-0.1l0.7,0.1c0.5,0.1,0.7-0.5,0.9-1c0.3-1,0.8-4.7,0.8-5
		l0.3-2.5c0.1-0.5,0-0.9-0.6-0.9l-0.7-0.1c-0.1,0-0.1-0.1-0.1-0.1l0-0.4c0,0,0-0.1,0.1-0.1c0.1,0,0.5,0.1,2.1,0.3
		c0.7,0.1,1.1,0.1,1.3,0.1c0.2,0,0.3,0.1,0.3,0.3c0.4,1.5,1.9,6.7,2.2,7.9c0.2-0.3,1.5-2.6,2-3.4c0.3-0.6,2-3.5,2.1-3.8
		c0.1-0.1,0.2-0.2,0.6-0.1c2.2,0.3,2.7,0.3,2.9,0.3c0.1,0,0.1,0.1,0.1,0.1l0,0.3c0,0.1,0,0.1-0.1,0.1l-0.7-0.1
		c-0.4,0-0.4,0.2-0.5,0.5c-0.1,0.3-0.4,3.3-0.4,3.7l-0.1,1c-0.1,0.9-0.3,3.1-0.4,3.3c-0.1,0.6,0.1,0.8,0.3,0.9l0.8,0.1
		c0.1,0,0.1,0.1,0.1,0.1l0,0.3c0,0.1,0,0.1-0.1,0.1c-0.2,0-0.9-0.1-2.2-0.3c-1.5-0.2-2-0.2-2.2-0.2c-0.1,0-0.1-0.1-0.1-0.1l0-0.3
		c0-0.1,0-0.1,0.1-0.1l0.9,0.1c0.3,0,0.4,0,0.5-0.5c0-0.1,0.3-2.3,0.4-3.5L278.5,110.3z"/>
	<path fill="#FFFFFF" d="M293.4,114.7c0,0,0,0.1,0,0.2c-0.1,0.1-1,2.5-1.2,2.8c-0.4-0.1-4.7-0.7-6.2-1c-1.3-0.2-1.9-0.2-2.1-0.3
		c-0.1,0-0.1,0-0.1-0.2l0.1-0.3c0-0.1,0-0.1,0.1-0.1l0.6,0.1c0.5,0.1,0.7-0.1,0.7-0.3c0-0.3,0.6-4,0.8-4.9l0.1-0.8
		c0.1-0.9,0.3-2.5,0.4-2.8c0-0.4,0-0.5-0.4-0.6l-0.6-0.1c-0.1,0-0.1-0.1-0.1-0.2l0.1-0.3c0-0.1,0-0.1,0.1-0.1c0.1,0,0.7,0.1,2,0.3
		c1.6,0.2,2.2,0.3,2.3,0.3c0.1,0,0.1,0.1,0.1,0.2l-0.1,0.3c0,0.1,0,0.1-0.2,0.1l-0.8-0.1c-0.4-0.1-0.5,0.1-0.6,0.5
		c0,0.2-0.4,2.4-0.6,3.5l-0.2,1.3c0,0.3-0.5,3.5-0.5,4.1l0.8,0.1c0.8,0.1,1.9,0.3,2.5,0.3c0.8,0,2.1-1.6,2.4-2.2
		c0.1-0.1,0.1-0.1,0.2,0L293.4,114.7z"/>
	<path fill="#FFFFFF" d="M299.1,114.4c-0.1,0.8-0.3,2.3-0.4,2.5c-0.1,0.8,0.1,1.1,0.4,1.3c0.2,0.1,0.6,0.2,1.1,0.3
		c0.3,0,1,0.1,1.3,0.2c0.3,0,0.9,0,1.3-0.3c0.3-0.2,1.3-1,1.6-1.3c0.1-0.1,0.1-0.1,0.2,0l0.2,0.2c0,0,0,0.1,0,0.2l-1.1,2.1
		c-0.1,0.1-0.2,0.2-0.4,0.2c-0.1,0-0.4-0.1-1.3-0.3c-0.9-0.2-2.4-0.4-4.9-0.9c-0.5-0.1-0.9-0.2-1.3-0.2c-0.3,0-0.5-0.1-0.6-0.1
		c-0.1,0-0.1-0.1-0.1-0.1l0.1-0.4c0-0.1,0.1-0.1,0.2-0.1l0.5,0.1c0.7,0.1,0.8,0,0.8-0.5l0.9-5c0.2-1.2,0.5-3,0.5-3.3
		c0-0.4-0.1-0.6-0.6-0.6l-0.6-0.1c-0.1,0-0.1,0-0.1-0.1l0.1-0.4c0-0.1,0-0.1,0.1-0.1c0.3,0.1,0.8,0.2,2.1,0.4l0.4,0.1
		c0.7,0.1,4.1,0.7,4.7,0.8c0.2,0,0.5,0.1,0.6,0.1c0.1,0,0.1,0,0.1,0.1c0,0.2,0.2,2.3,0.3,2.5c0,0.1,0,0.1-0.1,0.2l-0.3,0.1
		c0,0-0.1,0-0.1-0.1c0-0.1-1-1.7-1.3-1.9c-0.3-0.2-0.6-0.5-1.1-0.6l-2.2-0.5l-0.8,4.3c0.4,0.1,1.5,0.2,1.7,0.2
		c0.3,0,0.5-0.1,0.8-0.4c0.1-0.2,0.3-0.5,0.4-0.8c0-0.1,0.1-0.1,0.1-0.1l0.4,0.1c0.1,0,0.1,0,0.1,0.1c-0.1,0.2-0.2,1.2-0.3,1.6
		c-0.1,0.6-0.2,1.3-0.2,1.6c0,0.1,0,0.1-0.1,0.1l-0.3,0c-0.1,0-0.1,0-0.1-0.1c0-0.2-0.1-0.6-0.1-0.8c-0.1-0.3-0.3-0.6-0.6-0.7
		c-0.5-0.2-1.2-0.3-1.7-0.4L299.1,114.4z M301.2,107.3c0,0,0-0.1,0.1-0.1l2.4-1.6c0.2-0.1,0.5-0.2,0.7-0.1c0.4,0.1,0.6,0.5,0.5,0.8
		c0,0.3-0.3,0.5-0.7,0.6l-2.7,0.7c0,0-0.1,0-0.1,0L301.2,107.3z"/>
	<path fill="#FFFFFF" d="M310.6,116.9c-0.2,0.7-0.6,2.9-0.6,3.1c0,0.2,0.1,0.4,0.3,0.4l0.6,0.1c0.1,0,0.1,0.1,0.1,0.1l-0.1,0.4
		c0,0.1-0.1,0.1-0.1,0.1c-0.2,0-0.6-0.2-1.9-0.4c-1.3-0.3-1.7-0.3-1.9-0.3c-0.1,0-0.1,0-0.1-0.1l0.1-0.4c0-0.1,0-0.1,0.1-0.1
		l0.5,0.1c0.3,0.1,0.4,0,0.5-0.2c0-0.1,0.6-2.8,1-4.6l0.2-0.9c0.1-0.3,0.6-3.1,0.6-3.2c0-0.2,0-0.4-0.4-0.4l-0.4-0.1
		c-0.1,0-0.1-0.1-0.1-0.1l0.1-0.4c0-0.1,0-0.1,0.1-0.1c0.2,0,0.6,0.2,1.9,0.4c1.1,0.2,1.6,0.3,1.8,0.3c0.1,0,0.1,0.1,0.1,0.1
		l-0.1,0.4c0,0.1-0.1,0.1-0.1,0.1l-0.5-0.1c-0.3-0.1-0.5,0-0.5,0.3c0,0.2-0.6,2.5-0.7,3.2l-0.1,0.6l0.3,0.1c0.2,0,0.3,0,0.5-0.1
		c0.3-0.2,3.5-2.8,3.8-3c0.3-0.3,0.1-0.5-0.1-0.5l-0.2,0c-0.1,0-0.1,0-0.1-0.1l0.1-0.4c0-0.1,0.1-0.1,0.1-0.1c0.2,0,0.8,0.2,1.7,0.4
		c0.6,0.1,1.1,0.2,1.3,0.2c0.1,0,0.1,0.1,0.1,0.1l-0.1,0.4c0,0.1-0.1,0.1-0.1,0.1l-0.3-0.1c-0.2,0-0.5-0.1-0.9,0.1
		c-0.8,0.3-3.4,2.3-4.1,2.9c0.4,0.9,2.6,5.4,3,6c0.2,0.4,0.6,0.5,0.8,0.5l0.3,0.1c0.1,0,0.1,0.1,0.1,0.1l-0.1,0.4
		c0,0.1-0.1,0.1-0.1,0.1c-0.1,0-0.7-0.2-2-0.5c-1.2-0.3-1.8-0.3-2-0.4c-0.1,0-0.1,0-0.1-0.1l0.1-0.4c0-0.1,0-0.1,0.1-0.1l0.2,0
		c0.3,0.1,0.3-0.2,0.3-0.3c-0.1-0.3-1.8-4.2-1.9-4.5c-0.1-0.2-0.3-0.3-0.5-0.3l-0.3-0.1L310.6,116.9z"/>
	<path fill="#FFFFFF" d="M323.2,119.3c-0.2,0.8-0.5,2.2-0.6,2.5c-0.2,0.8,0,1.1,0.3,1.3c0.2,0.1,0.6,0.3,1.1,0.4
		c0.3,0.1,0.9,0.2,1.2,0.2c0.3,0,0.9,0,1.3-0.2c0.3-0.2,1.4-0.9,1.7-1.2c0.1-0.1,0.1-0.1,0.2,0l0.2,0.2c0,0,0,0.1,0,0.2l-1.2,2
		c-0.1,0.1-0.2,0.2-0.4,0.1c-0.1,0-0.4-0.1-1.3-0.3c-0.9-0.2-2.4-0.6-4.9-1.2c-0.5-0.1-0.9-0.2-1.2-0.3c-0.3-0.1-0.5-0.1-0.6-0.1
		c-0.1,0-0.1-0.1-0.1-0.1l0.1-0.3c0-0.1,0.1-0.1,0.2-0.1l0.5,0.1c0.7,0.2,0.8,0.1,0.9-0.5l1.2-4.9c0.3-1.2,0.7-3,0.7-3.2
		c0-0.4-0.1-0.6-0.5-0.7l-0.6-0.1c-0.1,0-0.1-0.1-0.1-0.1l0.1-0.4c0-0.1,0-0.1,0.1-0.1c0.3,0.1,0.8,0.3,2,0.5l0.4,0.1
		c0.6,0.2,4,0.9,4.6,1.1c0.2,0.1,0.5,0.1,0.6,0.1c0.1,0,0.1,0.1,0.1,0.1c0,0.2,0.1,2.3,0.1,2.5c0,0.1,0,0.1-0.1,0.1l-0.3,0.1
		c0,0-0.1,0-0.1-0.1c0-0.1-0.9-1.7-1.2-2c-0.3-0.2-0.6-0.5-1-0.6l-2.2-0.6l-1,4.2c0.4,0.1,1.5,0.3,1.7,0.3c0.3,0,0.5-0.1,0.8-0.4
		c0.1-0.2,0.4-0.5,0.4-0.8c0-0.1,0.1-0.1,0.1-0.1l0.4,0.1c0.1,0,0.1,0.1,0.1,0.1c-0.1,0.2-0.3,1.2-0.4,1.6c-0.1,0.6-0.2,1.3-0.3,1.6
		c0,0.1-0.1,0.1-0.1,0.1l-0.3,0c-0.1,0-0.1,0-0.1-0.1c0-0.2,0-0.6-0.1-0.8c-0.1-0.3-0.3-0.6-0.6-0.7c-0.5-0.2-1.2-0.4-1.7-0.5
		L323.2,119.3z"/>
	<path fill="#FFFFFF" d="M334.5,122.5c-0.2,0.7-0.8,2.8-0.8,3.1c0,0.2,0.1,0.4,0.2,0.4l0.5,0.2c0.1,0,0.1,0.1,0.1,0.1l-0.1,0.4
		c0,0.1-0.1,0.1-0.1,0.1c-0.2,0-0.6-0.2-1.8-0.6c-1.2-0.3-1.7-0.4-1.9-0.5c-0.1,0-0.1-0.1-0.1-0.1l0.1-0.4c0-0.1,0.1-0.1,0.1-0.1
		l0.5,0.1c0.3,0.1,0.4,0,0.5-0.2c0-0.1,0.8-2.7,1.3-4.5l0.2-0.8c0.1-0.3,0.8-3,0.8-3.2c0-0.2,0-0.4-0.3-0.5l-0.4-0.1
		c-0.1,0-0.1-0.1-0.1-0.1l0.1-0.4c0-0.1,0.1-0.1,0.1-0.1c0.2,0,0.6,0.2,1.8,0.6c1.1,0.3,1.6,0.4,1.8,0.5c0.1,0,0.1,0.1,0.1,0.1
		l-0.1,0.4c0,0.1-0.1,0.1-0.1,0.1l-0.5-0.1c-0.3-0.1-0.5,0-0.6,0.3c-0.1,0.2-0.7,2.5-0.9,3.2l-0.2,0.6l0.3,0.1c0.2,0,0.3,0,0.5-0.1
		c0.3-0.2,3.7-2.6,3.9-2.8c0.3-0.2,0.2-0.5-0.1-0.5l-0.2-0.1c-0.1,0-0.1,0,0-0.1l0.1-0.3c0-0.1,0.1-0.1,0.1-0.1
		c0.2,0,0.7,0.3,1.7,0.5c0.6,0.2,1.1,0.3,1.3,0.3c0.1,0,0.1,0.1,0.1,0.1l-0.1,0.4c0,0.1-0.1,0.1-0.1,0.1l-0.3-0.1
		c-0.2-0.1-0.5-0.1-0.9,0c-0.8,0.3-3.5,2.1-4.2,2.6c0.4,0.9,2.3,5.5,2.6,6.1c0.2,0.4,0.5,0.5,0.8,0.6l0.3,0.1c0.1,0,0.1,0.1,0.1,0.1
		l-0.1,0.4c0,0.1-0.1,0.1-0.1,0.1c-0.1,0-0.7-0.2-2-0.6c-1.2-0.3-1.8-0.4-2-0.5c-0.1,0-0.1-0.1-0.1-0.1l0.1-0.4
		c0-0.1,0.1-0.1,0.1-0.1l0.2,0.1c0.3,0.1,0.4-0.2,0.3-0.3c-0.1-0.3-1.5-4.3-1.6-4.6c-0.1-0.2-0.3-0.3-0.4-0.3l-0.3-0.1L334.5,122.5z
		"/>
	<path fill="#FFFFFF" d="M349.4,123.8C349.4,123.8,349.3,123.8,349.4,123.8c0-0.1,0-0.1,0.1-0.1l0.4-0.1c0,0,0,0,0.1,0s0,0,0.1,0.1
		l1.4,2.9c0,0.1,0,0.1,0,0.2c0,0.1-0.1,0.1-0.2,0.1l-2.8,1.5c0,0-0.1,0-0.1,0c0,0,0,0-0.1-0.1l-0.2-0.3c0,0,0,0,0-0.1
		c0,0,0,0,0.1-0.1l1.7-1.6L349.4,123.8z M351.8,124.6C351.8,124.6,351.8,124.6,351.8,124.6c0-0.1,0-0.1,0.1-0.1l0.4-0.1
		c0,0,0,0,0.1,0c0,0,0,0,0.1,0.1l1.4,2.9c0,0.1,0,0.1,0,0.2c0,0.1-0.1,0.1-0.2,0.1l-2.8,1.5c0,0-0.1,0-0.1,0c0,0,0,0-0.1-0.1
		l-0.2-0.3c0,0,0,0,0-0.1c0,0,0,0,0.1-0.1l1.7-1.6L351.8,124.6z"/>
</g>
<g>
	<path fill="#FFFFFF" d="M142.5,316.1c0,0.1,0,0.1,0,0.2c0,0,0,0.1-0.1,0.1l-0.6,0.3c-0.1,0-0.1,0-0.1,0c0,0-0.1-0.1-0.2-0.1
		l-2.8-4.4c-0.1-0.1-0.1-0.2-0.1-0.3c0-0.1,0.1-0.2,0.2-0.3l4.4-3c0.1,0,0.1-0.1,0.2-0.1c0,0,0,0,0.1,0.1l0.4,0.5c0,0.1,0,0.1,0,0.1
		c0,0-0.1,0.1-0.1,0.1l-2.5,3L142.5,316.1z M146.7,316.9c0,0.1,0,0.1,0,0.2c0,0,0,0.1-0.1,0.1l-0.6,0.3c-0.1,0-0.1,0-0.1,0
		c0,0-0.1-0.1-0.1-0.1l-2.9-4.4c-0.1-0.1-0.1-0.2-0.1-0.3c0-0.1,0.1-0.2,0.2-0.3l4.4-3c0.1,0,0.1-0.1,0.2-0.1c0,0,0,0,0.1,0.1
		l0.4,0.5c0,0.1,0,0.1,0,0.1c0,0-0.1,0.1-0.1,0.1l-2.5,3L146.7,316.9z"/>
	<path fill="#FFFFFF" d="M157.7,315.1c-0.4,2.5,1.2,4.3,2.6,4.5c1.5,0.2,2.6-0.3,3.2-1c0.1-0.2,0.2-0.1,0.3-0.1l0.3,0.3
		c0.1,0.1,0.1,0.2-0.1,0.5c-0.7,0.9-2.2,2.4-4.9,1.9c-1.6-0.2-2.6-0.8-3.4-1.9c-0.9-1.5-1-2.8-0.8-4.3c0.2-1.4,0.5-2.3,1.8-3.5
		c1.2-1.2,2.4-1.5,4.6-1.2c2.8,0.4,3.3,3.5,3.1,4.5c-0.1,0.4-0.3,0.4-0.8,0.3l-6-0.9L157.7,315.1z M161,313.9c0.5,0.1,0.8,0,0.9-0.2
		c0.1-0.7,0.1-2.2-1.2-2.4c-1.2-0.2-2.1,0.6-2.7,2.2L161,313.9z M160.2,308.5c0-0.1,0-0.2,0-0.2l2.4-2.7c0.4-0.4,0.8-0.7,1.3-0.6
		c0.9,0.1,1.3,1.5,0.1,2.1l-3.5,1.7c-0.1,0-0.2,0-0.2,0L160.2,308.5z"/>
	<path fill="#FFFFFF" d="M166.1,318.7c0-0.1,0-0.2,0.1-0.2l0.5-0.1c0.1,0,0.2,0,0.2,0.1l0.6,1.5c0.4,0.8,0.8,1.5,2,1.6
		c1,0.1,1.8-0.4,1.9-1.3c0.1-1-0.5-1.5-2.1-2.2c-1.6-0.7-2.9-1.7-2.6-3.5c0.1-1.1,0.6-1.9,1.6-2.5c0.9-0.5,1.7-0.6,2.7-0.5
		c1.2,0.1,1.9,0.5,2.3,0.8c0.3,0.2,0.4,0.4,0.4,0.5l0.1,1.7c0,0.1,0,0.2-0.1,0.3l-0.5,0.2c-0.1,0-0.1,0-0.2-0.1l-1-1.5
		c-0.3-0.4-0.7-0.9-1.5-1c-0.9-0.1-1.8,0.3-1.9,1.2c-0.1,1,0.6,1.4,2,2c1.1,0.4,1.8,0.8,2.3,1.6c0.5,0.6,0.6,1.2,0.5,2.1
		c-0.3,2.1-2.1,3.4-4.6,3.1c-1.3-0.2-2.4-0.7-2.6-1c-0.1-0.1-0.2-0.2-0.2-0.3L166.1,318.7z"/>
	<path fill="#FFFFFF" d="M184.7,313.3c0.2-0.1,0.4-0.1,0.5-0.1c0.1,0,0.3,0.1,0.3,0.4l0.1,1.5l0.1,0c0.8-0.9,2.2-1.7,3.7-1.6
		c1.5,0.1,2.3,0.9,2.8,2l0.1,0c0.9-1,2.2-1.7,3.6-1.6c1,0.1,1.6,0.3,2.2,1c0.6,0.7,1.1,1.1,0.9,3.3l-0.2,2.8c0,0.7-0.2,1.9-0.2,2.2
		c0,0.5,0.2,0.8,0.6,0.8l0.6,0c0.1,0,0.2,0.1,0.2,0.2l0,0.5c0,0.1-0.1,0.2-0.2,0.2c-0.1,0-0.8-0.1-2.4-0.2c-1.4-0.1-2.3-0.1-2.4-0.1
		c-0.1,0-0.2-0.1-0.2-0.2l0-0.5c0-0.2,0.1-0.2,0.2-0.2l0.4,0c0.2,0,0.5-0.1,0.5-0.5c0.1-0.5,0.2-1.4,0.2-2.2l0.2-2.9
		c0.1-1.2,0-1.9-0.4-2.3c-0.4-0.4-0.8-0.6-1.5-0.6c-0.7,0-1.5,0.5-1.8,0.9c-0.4,0.5-0.5,1.2-0.5,1.9l-0.3,4.6c0,0.5,0.1,0.8,0.4,0.8
		l0.6,0c0.2,0,0.2,0.1,0.2,0.2l0,0.5c0,0.1,0,0.2-0.2,0.2c-0.2,0-0.8-0.1-2.4-0.2c-1.5-0.1-2.4-0.1-2.5-0.1c-0.1,0-0.2-0.1-0.2-0.2
		l0-0.5c0-0.2,0.1-0.2,0.2-0.2l0.5,0c0.3,0,0.6-0.2,0.7-1.1l0.3-4.3c0.1-1.8-0.1-2.4-0.5-2.7c-0.3-0.3-0.8-0.4-1.3-0.4
		c-0.5,0-1.4,0.2-1.9,0.9c-0.4,0.5-0.5,1-0.5,1.7l-0.3,4.4c-0.1,0.9,0.1,1.2,0.4,1.2l0.5,0c0.2,0,0.2,0.1,0.2,0.2l0,0.6
		c0,0.1-0.1,0.2-0.2,0.2c-0.2,0-0.9-0.1-2.5-0.2c-1.5-0.1-2.3-0.1-2.5-0.1c-0.1,0-0.2-0.1-0.2-0.2l0-0.5c0-0.1,0.1-0.2,0.3-0.2
		l0.7,0c0.2,0,0.4-0.2,0.5-0.6l0.3-5.2c0.1-0.8-0.1-1.3-0.6-1.6l-0.5-0.3c-0.1-0.1-0.2-0.1-0.2-0.2l0-0.2c0-0.1,0.1-0.1,0.2-0.2
		L184.7,313.3z"/>
	<path fill="#FFFFFF" d="M204.8,319.4c-0.1,2.5,1.7,4.1,3.1,4.1c1.5,0,2.5-0.6,3.1-1.4c0.1-0.2,0.2-0.2,0.3-0.1l0.4,0.2
		c0.1,0.1,0.2,0.2,0,0.5c-0.5,0.9-1.9,2.6-4.6,2.5c-1.6,0-2.7-0.4-3.6-1.4c-1.1-1.4-1.3-2.6-1.3-4.2c0-1.4,0.2-2.3,1.3-3.7
		c1.1-1.3,2.2-1.8,4.4-1.7c2.8,0.1,3.7,3.1,3.7,4.1c0,0.4-0.3,0.4-0.7,0.4l-6-0.2L204.8,319.4z M208,317.8c0.5,0,0.8-0.1,0.8-0.3
		c0-0.8-0.2-2.2-1.5-2.3c-1.2,0-2,0.9-2.4,2.5L208,317.8z M206.5,312.6c0-0.1,0-0.2,0-0.2l2.1-2.9c0.3-0.5,0.7-0.8,1.2-0.8
		c1,0,1.5,1.4,0.4,2.1l-3.3,2.1c-0.1,0-0.2,0-0.2,0L206.5,312.6z"/>
	<path fill="#FFFFFF" d="M214.3,331.2c-0.9-0.5-1.3-1.2-1.3-2c0-1.3,1.4-2.3,2.6-2.8l0-0.1c-1.1-0.2-1.7-1-1.7-1.8
		c0-1.3,1.4-2.2,2.1-2.6l0-0.1c-1-0.5-2.2-1.6-2.2-3.7c0-1.6,1.4-3.7,4.6-3.7c2.1,0,3.2,1.1,3.4,1.4c0.6-0.5,1.5-0.9,2.1-0.9
		c0.9,0,1.4,0.5,1.3,1.2c0,0.5-0.4,1-1,1c-0.4,0-0.6-0.2-0.8-0.3c-0.2-0.1-0.4-0.3-0.6-0.3c-0.2,0-0.4,0-0.6,0.2
		c0.2,0.3,0.3,0.8,0.3,1.6c0,1-0.3,2-1,2.8c-0.8,0.9-2,1.2-3.2,1.2c-0.5,0-0.9,0-1.4-0.1c-0.4,0.2-1.1,0.7-1.1,1.3c0,1,1,1,3.2,0.9
		c1.9-0.1,3.2,0,4.3,0.9c1,0.7,1.3,1.7,1.3,2.4c0,1.1-0.4,2.1-1.5,2.9c-0.8,0.7-2.5,1.5-4.9,1.4C217,331.9,215.4,331.8,214.3,331.2z
		 M216.7,326.6c-0.7,0.2-1.5,1-1.5,2c0,0.7,0.4,1.4,0.9,1.7c0.8,0.4,1.5,0.6,2.9,0.6c1.3,0,3.4-0.8,3.4-2.3c0-1.4-1.1-2.3-3.5-2.2
		L216.7,326.6z M220.1,317.8c0-1-0.3-1.6-0.6-2c-0.2-0.3-0.6-0.5-1.2-0.5c-0.5,0-1,0.2-1.3,0.6c-0.5,0.7-0.7,1.9-0.7,2.8
		c0,0.8,0.2,1.6,0.6,2c0.4,0.3,0.7,0.5,1.4,0.5C219.7,321.3,220.1,319.6,220.1,317.8z"/>
	<path fill="#FFFFFF" d="M231.5,315.8c-0.2,0-0.4-0.1-0.4-0.3c0-0.2,0.1-0.4,0.5-0.5c0.7-0.3,2.8-2.2,3.3-3.3
		c0.1-0.2,0.2-0.3,0.4-0.3c0.2,0,0.3,0.1,0.3,0.3l0,2.5l3.3-0.2c0.2,0,0.2,0.1,0.2,0.2l-0.2,1.1c0,0.1-0.1,0.2-0.2,0.2l-3,0.1
		c0,1.1,0,2.3,0.1,3.4l0.1,2.2c0.1,1.9,0.9,2.3,1.4,2.3c0.5,0,1.1-0.2,1.4-0.4c0.2-0.1,0.2-0.1,0.3,0l0.2,0.3c0.1,0.1,0,0.2-0.1,0.4
		c-0.3,0.3-1.4,1.1-3.1,1.1c-1.5,0.1-2.7-1.1-2.7-2.1c0-0.9-0.1-2.9-0.1-3.9l-0.2-3.2L231.5,315.8z"/>
	<path fill="#FFFFFF" d="M249.5,314.5c1.3,1.1,1.9,2.3,2,3.8c0.1,1.4-0.4,2.8-1.3,3.9c-0.9,1.2-2.4,2-4.1,2.1
		c-1.6,0.1-3-0.2-4.2-1.5c-1.2-1.2-1.5-2.2-1.6-3.8c-0.1-1.2,0.4-3,1.8-4.3c1.1-1.1,2.4-1.4,3.5-1.5
		C247.3,313.2,248.6,313.8,249.5,314.5z M241.6,309.7c0-0.4,0.2-1.4,1.4-1.5c0.7-0.1,1.4,0.4,1.4,1.3c0.1,0.8-0.5,1.3-1.2,1.4
		C242.7,311,241.7,310.8,241.6,309.7z M248.5,318.5c-0.2-2.7-1.8-4.2-2.9-4.1c-0.6,0-1.1,0.3-1.5,0.8c-0.7,0.9-0.9,2-0.8,3.8
		c0.1,1.4,0.3,2.4,1,3.4c0.5,0.6,1.1,1,2.1,0.9C248,323.2,248.6,321,248.5,318.5z M246.1,309.3c0-0.4,0.2-1.4,1.4-1.5
		c0.7-0.1,1.4,0.4,1.4,1.3c0.1,0.8-0.5,1.3-1.2,1.4C247.1,310.6,246.2,310.5,246.1,309.3z"/>
	<path fill="#FFFFFF" d="M255.8,323.5c-0.1,0.1-0.2,0.1-0.3,0.1l-0.4-0.1c-0.1,0-0.1-0.1-0.1-0.2c0-0.4-0.2-2.4-0.4-4.2l-1-9.1
		c-0.2-1.7-0.5-2-1.3-2.1l-0.3-0.1c-0.3,0-0.4-0.1-0.4-0.2l0-0.2c0,0,0-0.2,0.2-0.2c1-0.5,2.3-1.3,3.1-1.7c0.3-0.2,0.5-0.4,0.7-0.4
		c0.2,0,0.3,0.1,0.3,0.4c0,0.2,0.2,3,0.4,5.2l0.3,3c0.8-0.9,2-1.5,3.3-1.6c1.5-0.2,3,0.6,3.9,1.7c0.5,0.6,0.9,1.7,1.1,3
		c0.3,2.7-1.8,6-4.8,6.4c-1.5,0.2-2.5,0-3.3-0.3L255.8,323.5z M257.1,317.7c0.2,2.1,0.4,2.9,0.7,3.6c0.4,0.6,1.1,1,2,0.9
		c0.8-0.1,1.7-0.5,2.1-1.5c0.4-1,0.5-1.8,0.3-2.9c-0.3-2.9-1.7-4.4-3.7-4.2c-0.7,0.1-1.4,0.4-1.9,1L257.1,317.7z"/>
	<path fill="#FFFFFF" d="M269.4,321.9c-0.1,0.1-0.2,0.1-0.3,0.1l-0.4,0c-0.1,0-0.1-0.1-0.1-0.2c0-0.4-0.3-2.4-0.5-4.2l-1.4-9
		c-0.2-1.7-0.6-1.9-1.4-2.1l-0.3-0.1c-0.3,0-0.4,0-0.4-0.1l0-0.2c0,0,0-0.2,0.2-0.2c0.9-0.5,2.3-1.3,3-1.9c0.3-0.2,0.5-0.4,0.7-0.4
		c0.2,0,0.3,0.1,0.3,0.4c0,0.2,0.3,3,0.6,5.2l0.4,3c0.7-0.9,1.9-1.6,3.2-1.8c1.5-0.2,3,0.4,3.9,1.5c0.5,0.6,1,1.6,1.2,3
		c0.4,2.7-1.6,6.1-4.6,6.5c-1.5,0.2-2.5,0.1-3.3-0.2L269.4,321.9z M270.4,316c0.3,2.1,0.5,2.9,0.9,3.6c0.4,0.5,1.2,1,2,0.8
		c0.8-0.1,1.6-0.5,2.1-1.6c0.4-1,0.4-1.8,0.2-2.9c-0.4-2.9-1.8-4.3-3.8-4c-0.7,0.1-1.3,0.5-1.8,1L270.4,316z"/>
	<path fill="#FFFFFF" d="M285.2,310.2c0,0-0.1-0.1-0.1-0.1c0,0,0-0.1,0.1-0.1l0.4-0.5c0,0,0-0.1,0.1-0.1c0,0,0.1,0,0.2,0.1l4.4,3
		c0.1,0.1,0.2,0.2,0.2,0.2c0,0.1-0.1,0.2-0.1,0.3l-2.9,4.4c0,0.1-0.1,0.1-0.1,0.1c-0.1,0-0.1,0-0.2-0.1l-0.5-0.3
		c-0.1,0-0.1,0-0.1-0.1c0,0,0-0.1,0.1-0.2l1.2-3.8L285.2,310.2z M289.4,309.4c0,0-0.1-0.1-0.1-0.1c0,0,0-0.1,0.1-0.1l0.4-0.5
		c0,0,0-0.1,0.1-0.1c0,0,0.1,0,0.2,0.1l4.4,3c0.1,0.1,0.2,0.2,0.2,0.2c0,0.1-0.1,0.2-0.1,0.3l-2.9,4.4c0,0.1-0.1,0.1-0.1,0.1
		c0,0-0.1,0-0.2-0.1l-0.5-0.3c-0.1,0-0.1,0-0.1-0.1c0,0,0-0.1,0.1-0.2l1.2-3.8L289.4,309.4z"/>
</g>
</svg>
