<?xml version="1.0" encoding="UTF-8" standalone="no"?>
<!DOCTYPE svg  PUBLIC '-//W3C//DTD SVG 1.1//EN'  'http://www.w3.org/Graphics/SVG/1.1/DTD/svg11.dtd'>
<svg xmlns="http://www.w3.org/2000/svg">
<defs>
<font id="DidotHTF-06Bold" horiz-adv-x="716">
<font-face underline-position="-113" font-weight="700" descent="-200" panose-1="0 0 0 0 0 0 0 0 0 0" units-per-em="1000" unicode-range="U+000D-02DC" bbox="-75 -318 1035 980" x-height="426" underline-thickness="20" font-family="DidotHTF" ascent="800" cap-height="709"/>
<missing-glyph horiz-adv-x="1000"/>
<glyph glyph-name=".notdef" horiz-adv-x="1000"/>
<glyph glyph-name=".null" horiz-adv-x="0"/>
<glyph glyph-name=".null" horiz-adv-x="0"/>
<glyph glyph-name="nonmarkingreturn" horiz-adv-x="1000" unicode=""/>
<glyph glyph-name="space" horiz-adv-x="166" unicode=" "/>
<glyph glyph-name="exclam" horiz-adv-x="242" unicode="!" d="M187 56q0 -28 -19 -48.5t-47 -20.5q-27 0 -47 20.5t-20 48.5t20 48.5t47 20.5q28 0 47 -20.5t19 -48.5zM193 642q0 -33 -9.5 -84t-21 -112t-21 -128t-9.5 -133q0 -2 -11 -2t-11 2q0 66 -9.5 133t-21 128t-21 112t-9.5 84q0 25 6.5 41t17 25.5t23 13.5t25.5 4t26 -4 t23 -13.5t16.5 -25.5t6.5 -41z"/>
<glyph glyph-name="quotedbl" horiz-adv-x="311" unicode='&quot;' d="M125 673q0 -38 -10 -86.5t-17 -98.5q-1 -3 -1 -5q-1 -6 0 -6q-2 -4 -10.5 -4t-9.5 4l-2 11q-8 50 -17.5 98.5t-9.5 86.5q0 8 1.5 17t6 17t11.5 13.5t19 5.5t19.5 -5.5t12 -13.5t6 -17t1.5 -17zM265 673q0 -38 -10 -86.5t-18 -98.5v-11q-1 -4 -11 -4t-11 4l-1 11 q-8 50 -17.5 98.5t-9.5 86.5q0 16 8.5 34.5t30.5 18.5q23 0 31 -18.5t8 -34.5z"/>
<glyph glyph-name="numbersign" horiz-adv-x="452" unicode="#" d="M192 297l-39 -147h112l38 147h-111zM325 297l-38 -147h105q1 0 1.5 -3.5t0.5 -8t-0.5 -8.5t-1.5 -4h-112l-46 -169q0 -1 -3.5 -1t-8 0.5t-7.5 1t-3 1.5l45 167h-111l-44 -169q-1 -1 -6 -1q-3 0 -10 0.5t-7 2.5l45 167h-93q-1 0 -1 4v8.5v8t1 3.5h101l36 147h-91 q-1 0 -1 4v8.5v8t1 3.5h98l40 148q1 1 6 1q3 0 10 -0.5t6 -2.5l-38 -146h109l40 148q1 1 6 1q3 0 10 -0.5t6 -2.5l-38 -146h105q1 0 1.5 -3.5t0.5 -8t-0.5 -8.5t-1.5 -4h-112z"/>
<glyph glyph-name="dollar" horiz-adv-x="551" unicode="$" d="M315 258q-17 8 -33.5 15t-39.5 15v-280q7 0 14 -0.5t15 -0.5q12 0 22.5 1t21.5 3v247zM431 114q0 48 -25 82.5t-68 54.5v-234q47 9 70 37.5t23 59.5zM218 696q-41 -13 -58.5 -36.5t-17.5 -64.5q0 -35 14.5 -63.5t61.5 -53.5v218zM315 700q-6 2 -13.5 3t-15.5 1 q-11 0 -22 -1t-22 -4v-231q17 -8 36 -16t37 -13v261zM503 230q0 -40 -11.5 -79.5t-33 -72t-52 -55t-68.5 -29.5v-94q0 -1 -3.5 -1.5t-8 -0.5t-8 0.5t-3.5 1.5v87q-11 -2 -21 -3t-22 -1q-8 0 -14.5 0.5t-15.5 1.5v-85q0 -1 -3.5 -1.5t-8 -0.5t-8.5 0.5t-4 1.5v89 q-32 4 -63 18.5t-55.5 36t-39.5 48t-15 54.5q0 38 21 59t44 21q26 0 44.5 -20t18.5 -49q0 -19 -6 -28.5t-13.5 -16t-14 -14t-6.5 -22.5q0 -7 2.5 -16.5t11 -18.5t25.5 -16.5t46 -11.5v284q-26 10 -53.5 25t-50 38t-36.5 56.5t-14 80.5q0 42 12 79.5t33 66.5t49 49t60 26v93 q0 1 4 1.5t8.5 0.5t8 -0.5t3.5 -1.5v-88q11 4 21.5 4h21.5q6 0 14.5 -0.5t15.5 -2.5v87q0 1 3.5 1.5t8 0.5t8 -0.5t3.5 -1.5v-91q24 -5 52 -18t53 -32t41.5 -43t16.5 -52q0 -37 -21.5 -58.5t-44.5 -21.5q-26 0 -44 20.5t-18 48.5q0 19 5.5 28t12.5 15t12.5 13t5.5 22 q0 10 -16.5 28t-54.5 27v-269q81 -32 123 -77t42 -121z"/>
<glyph glyph-name="percent" horiz-adv-x="696" unicode="%" d="M592 254q0 36 -9.5 52t-30.5 16q-14 0 -26 -3.5t-24 -14.5q-18 -16 -34.5 -44.5t-29 -60t-20 -62.5t-7.5 -54q0 -36 8.5 -52t31.5 -16q12 0 25 3.5t24 14.5q18 17 35 45t29.5 59.5t20 63t7.5 53.5zM292 621q0 36 -7.5 52t-30.5 16q-14 0 -26 -3.5t-25 -14.5 q-18 -16 -34.5 -44.5t-28.5 -60t-19.5 -62.5t-7.5 -54q0 -36 8.5 -52t31.5 -16q14 0 25 3.5t24 14.5q18 17 34.5 45t28.5 59.5t19.5 63t7.5 53.5zM662 220q0 -39 -16.5 -79.5t-45.5 -73.5t-69 -54.5t-87 -21.5q-48 0 -79.5 33t-31.5 93q0 39 16.5 79.5t45.5 73.5t68.5 54.5 t85.5 21.5q49 0 81 -33t32 -93zM147 -24q0 -1 -3.5 1l-7 4t-6 4.5t-2.5 3.5l422 749q0 1 3.5 -1t7.5 -4q4 -3 7 -5l3 -2zM364 587q0 -39 -16.5 -79.5t-45.5 -73.5t-68.5 -54.5t-86.5 -21.5q-49 0 -81 33t-32 93q0 39 16.5 79.5t46 73.5t69.5 54.5t86 21.5q48 0 80 -33 t32 -93z"/>
<glyph glyph-name="ampersand" horiz-adv-x="755" unicode="&amp;" d="M439 50q-16 15 -23.5 27l-22.5 36q-48 73 -96 151t-75 159q-34 -27 -48.5 -62.5t-14.5 -85.5q0 -39 13.5 -80t41.5 -75t71 -55.5t103 -21.5q14 0 24.5 -0.5t26.5 7.5zM433 633q0 31 -14 48t-38 17q-29 0 -40.5 -16t-11.5 -61q0 -26 6 -54.5t16 -59.5q46 26 64 57.5 t18 68.5zM702 377q-38 0 -57.5 -16.5t-24.5 -58.5q-7 -56 -20.5 -104t-33.5 -84q5 -7 7 -10.5t4 -6.5t4.5 -6.5t6.5 -10.5q20 -26 32 -36t34 -10q9 0 16 3q14 4 23.5 12t17.5 29q1 2 9 -4.5t7 -8.5q-9 -19 -25.5 -34.5t-37.5 -25.5t-44.5 -15.5t-46.5 -5.5q-31 0 -59.5 12 t-57.5 36q-80 -49 -177 -49q-52 0 -94.5 15t-73.5 42.5t-48 65.5t-17 83q0 78 43 139t128 113q-8 26 -13 50.5t-5 46.5q0 44 11.5 78.5t31 59t46.5 37.5t58 13q60 0 85 -24t25 -69q0 -18 -5 -38t-16 -40t-30 -38.5t-46 -32.5q30 -94 82 -178t111 -170q20 37 29.5 78.5 t14.5 87.5q2 10 2 19q0 27 -18.5 41.5t-60.5 14.5h-39q-1 0 -1 4v8.5v8t1 3.5h265q1 0 1.5 -3.5t0.5 -8t-0.5 -8.5t-1.5 -4h-43z"/>
<glyph glyph-name="quotesingle" horiz-adv-x="172" unicode="&apos;" d="M125 673q0 -38 -10 -86.5t-17 -98.5q-1 -3 -1 -5q-1 -6 0 -6q-2 -4 -10.5 -4t-9.5 4l-2 11q-8 50 -17.5 98.5t-9.5 86.5q0 8 1.5 17t6 17t11.5 13.5t19 5.5t19.5 -5.5t12 -13.5t6 -17t1.5 -17z"/>
<glyph glyph-name="parenleft" horiz-adv-x="294" unicode="(" d="M299 -230q0 -2 -6.5 -8t-9.5 -6h-1q-107 79 -165 205.5t-58 285.5t58 285.5t165 205.5h1q3 0 9.5 -6t6.5 -7v-1q-25 -18 -48.5 -48t-41.5 -83.5t-28.5 -137t-10.5 -208.5t10.5 -208.5t28.5 -137t29 -68.5z"/>
<glyph glyph-name="parenright" horiz-adv-x="294" unicode=")" d="M232 247q0 -159 -58 -285.5t-165 -205.5h-1q-2 0 -9 6t-7 8l36 39q36 39 54 92.5t28.5 137t10.5 208.5t-10.5 208.5t-28.5 137t-30 68.5l-60 64q0 2 7 7.5t9 5.5h1q107 -79 165 -205.5t58 -285.5z"/>
<glyph glyph-name="asterisk" horiz-adv-x="417" unicode="*" d="M368 469q0 -21 -14.5 -38t-31.5 -17q-15 0 -22 9.5t-14.5 23.5t-20.5 31t-40 33l-6 5v-9q0 -30 5.5 -45.5t12 -25.5t12 -18.5t5.5 -24.5t-11.5 -30.5t-34.5 -14.5q-22 0 -33.5 14.5t-11.5 30.5t5 24.5t11.5 18.5t11.5 25.5t5 45.5v9l-6 -5q-27 -16 -40 -33t-20.5 -31 t-14.5 -23.5t-22 -9.5q-17 0 -31 17t-14 38q0 22 14 36q12 11 21.5 9.5t22 -3t31 2t49.5 23.5q-31 20 -49.5 23.5t-31 2t-22 -2.5t-21.5 9q-14 14 -14 36q0 21 14 37.5t31 16.5q15 0 22 -9t14.5 -23.5t20.5 -31.5t40 -33l6 -4v8q0 31 -5 46.5t-11.5 25.5t-11.5 18.5t-5 24.5 t11.5 30.5t33.5 14.5q23 0 34.5 -14.5t11.5 -30.5t-5.5 -24.5t-12 -18.5t-12 -25.5t-5.5 -46.5v-8l6 4q27 16 40 33t20.5 31.5t14.5 23.5t22 9q17 0 31.5 -16.5t14.5 -37.5t-15 -36q-12 -10 -21.5 -9t-22 2.5t-31 -2t-49.5 -23.5q31 -20 49.5 -23.5t31 -2t22 3t21.5 -9.5 q15 -15 15 -36z"/>
<glyph glyph-name="plus" horiz-adv-x="395" unicode="+" d="M214 196v-139q0 -1 -5 -1h-11h-11t-5 1v139h-137q-1 0 -1 5v11.5v11.5t1 5h137v148q0 1 5 1.5t11 0.5t11 -0.5t5 -1.5v-148h129q1 0 1.5 -5t0.5 -11.5t-0.5 -11.5t-1.5 -5h-129z"/>
<glyph glyph-name="comma" horiz-adv-x="231" unicode="," d="M173 35q0 -23 -9 -53t-25.5 -58t-44 -55.5t-47.5 -27.5q-2 0 -2.5 7t-0.5 9v2q10 2 17 7.5t12 9.5q35 29 35 64t-33 61q-8 7 -14.5 20t-6.5 29q0 26 17.5 44.5t41.5 18.5q30 0 45 -20.5t15 -57.5z"/>
<glyph glyph-name="hyphen" horiz-adv-x="304" unicode="-" d="M277 271q-6 -11 -11.5 -31.5t-7.5 -37.5h-230q-2 0 -2 1l2 3q5 11 10.5 31.5t7.5 37.5h231q2 0 2 -1t-2 -3z"/>
<glyph glyph-name="period" horiz-adv-x="231" unicode="." d="M176 53q0 -29 -18 -47.5t-47 -18.5q-26 0 -43 18.5t-17 47.5q0 26 17 43t43 17q29 0 47 -17t18 -43z"/>
<glyph glyph-name="slash" horiz-adv-x="337" unicode="/" d="M73 -23l-1 -1q-1 0 -3 1l-6 3t-7.5 3.5t-2.5 2.5l297 777l1 1q1 0 4 -1t7 -3l7 -3.5t3 -2.5z"/>
<glyph glyph-name="zero" horiz-adv-x="584" unicode="0" d="M411 214q0 72 -10.5 114.5t-34.5 62.5q-16 13 -34 17.5t-39 4.5q-24 0 -42.5 -4.5t-32.5 -17.5q-24 -20 -34.5 -62.5t-10.5 -114.5q0 -40 2.5 -69t8 -49.5t14 -34t20.5 -23.5q14 -13 32.5 -17.5t42.5 -4.5q21 0 39 4.5t34 17.5q12 10 20.5 23.5t14 34t8 49.5t2.5 69z M534 214q0 -45 -19 -85.5t-51.5 -71t-76.5 -48t-94 -17.5q-51 0 -95 17.5t-77 48t-52 71t-19 85.5q0 46 19 86.5t52 70.5t77 47.5t95 17.5q50 0 94 -17.5t76.5 -47.5t51.5 -70.5t19 -86.5z"/>
<glyph glyph-name="one" horiz-adv-x="366" unicode="1" d="M49 0q-1 0 -1 4v8.5v8t1 3.5h68q7 0 7 4v370q0 4 -7 4h-68q-1 0 -1 4v8.5v8t1 3.5h269v-4v-8v-8v-4h-70q-6 0 -6 -4v-370q0 -4 6 -4h70v-4v-8v-8v-4h-269z"/>
<glyph glyph-name="two" horiz-adv-x="480" unicode="2" d="M443 3q0 -3 -3 -3h-416q-1 0 -2.5 5.5t-1.5 12.5q0 8 3 9q82 31 132.5 59t78.5 59.5t38 69.5t10 89q0 61 -15.5 84t-54.5 23q-37 0 -51.5 -20t-14.5 -52q0 -14 4.5 -22t4.5 -22q0 -13 -12 -25.5t-39 -12.5q-26 0 -38 15.5t-12 35.5q0 22 11 44.5t32.5 41t55 30t78.5 11.5 q33 0 63.5 -9t54 -26.5t37.5 -43.5t14 -61q0 -27 -11 -52t-35.5 -50.5t-63.5 -52.5t-94 -58q-3 -2 0 -3t7 -1h124q50 0 72 14t22 59q0 2 11 2t11 -2v-148z"/>
<glyph glyph-name="three" horiz-adv-x="450" unicode="3" d="M430 -72q0 -53 -23 -93t-58.5 -67t-78.5 -41t-84 -14q-36 0 -67 11t-54 28.5t-36 38t-13 40.5q0 18 11.5 34t38.5 16t38.5 -12.5t11.5 -26.5t-4 -21.5t-4 -22.5q0 -19 6.5 -31t17.5 -18.5t25 -9t29 -2.5q31 0 53.5 5.5t37.5 24.5t22 55t7 97t-4.5 96t-15 53t-28.5 22.5 t-46 4.5q-18 0 -31.5 -6t-41.5 -23q-2 -2 -7 7t-2 11q43 23 69 44.5t40 46.5t18.5 56.5t4.5 73.5q0 36 -2.5 57t-10.5 32t-23 14t-40 3q-20 0 -37.5 -12.5t-17.5 -39.5q0 -15 5 -22t5 -21t-11.5 -27t-39.5 -13t-38.5 16t-10.5 35q0 15 11 33.5t30.5 35t46 28t57.5 11.5 q41 0 77 -8t63 -25t42.5 -43.5t15.5 -63.5q0 -31 -22.5 -63t-51 -57t-51.5 -38.5t-30 -13.5q-2 0 -3 1q2 -2 0 -2h7q48 0 85 -16t61.5 -43t37.5 -62.5t13 -72.5z"/>
<glyph glyph-name="four" horiz-adv-x="484" unicode="4" d="M382 0v-278h-118v278h-241q-2 0 -2 2q0 1 1 3q16 20 34 51t35 65l168 348q8 -3 17 -3q12 0 31 6t43.5 18.5t45 27.5t29.5 25q1 0 9 -6.5t8 -8.5l-385 -504h207v100q17 1 33 11.5t28.5 24.5t21.5 29t13 26q1 2 11.5 2t10.5 -2v-191h108q1 0 1.5 -3.5t0.5 -8t-0.5 -8.5 t-1.5 -4h-108z"/>
<glyph glyph-name="five" horiz-adv-x="434" unicode="5" d="M400 -52q0 -58 -20.5 -102t-53 -73.5t-73 -44.5t-80.5 -15q-37 0 -69 11t-54.5 28.5t-35.5 38t-13 40.5q0 18 11.5 34t36.5 16q29 0 41.5 -12.5t12.5 -26.5t-4.5 -21.5t-4.5 -22.5q0 -38 24 -49.5t55 -11.5t51.5 6.5t32.5 28t16.5 61t4.5 105.5q0 46 -2 82.5t-10 62 t-24 38.5t-44 13q-17 0 -31.5 -2t-26.5 -8.5t-20.5 -19.5t-13.5 -35q-2 -9 -1 -12.5t1 -12.5q0 -11 -11 -11q-5 0 -7 2t-2 10q0 7 1.5 16t1.5 15v333q0 5 -0.5 6.5t-0.5 3.5q0 4 3 1q14 -11 37 -17.5t52 -6.5q31 0 51 8.5t34.5 18.5t26.5 18.5t27 8.5q26 0 37 -11t11 -31 q0 -34 -32.5 -54.5t-88.5 -20.5q-38 0 -74 4.5t-59 28.5v-246q8 13 32 27t76 14q48 0 81.5 -17.5t55.5 -47t32 -68t10 -80.5z"/>
<glyph glyph-name="six" horiz-adv-x="553" unicode="6" d="M379 196q0 63 -7.5 104t-26.5 58q-12 11 -25 14.5t-33 3.5q-21 0 -39 -7t-30.5 -17t-20 -21.5t-7.5 -20.5v-119q0 -37 3 -63t8 -44t12 -30t16 -21q12 -11 25.5 -14.5t32.5 -3.5q20 0 33 3.5t25 14.5q19 17 26.5 53.5t7.5 109.5zM503 196q0 -42 -17 -79t-46.5 -65 t-68.5 -44.5t-84 -16.5q-47 0 -87.5 18t-70 55.5t-46.5 94.5t-17 135t18.5 153t52 134t81.5 95t106 36q31 0 57 -11.5t44.5 -28t28.5 -35t10 -33.5q0 -18 -10.5 -34t-36.5 -16q-28 0 -40.5 11.5t-12.5 27.5q0 14 5 21.5t5 21.5q0 28 -15 41t-35 13q-39 0 -64.5 -25.5 t-40.5 -70.5t-21.5 -106t-8.5 -131q22 23 47 33t51 10q45 0 84 -16.5t68.5 -44.5t46.5 -65t17 -78z"/>
<glyph glyph-name="seven" horiz-adv-x="444" unicode="7" d="M428 422q-23 -47 -39.5 -87.5l-27.5 -67.5l-174 -545h-118l296 616h-192q-50 0 -72.5 -19.5t-22.5 -64.5q0 -2 -11 -2t-11 2v169q0 3 3 3h359h9q3 0 3 -1t-2 -3z"/>
<glyph glyph-name="eight" horiz-adv-x="555" unicode="8" d="M425 134q0 42 -17 71t-44.5 52t-62.5 44t-71 47q-20 -18 -32.5 -34.5t-20 -35.5t-10 -41.5t-2.5 -53.5q0 -84 31 -126t90 -42q31 0 56.5 5.5t44 19.5t28.5 37t10 57zM390 540q0 86 -26.5 118.5t-77.5 32.5q-28 0 -46.5 -8t-29 -22t-14.5 -32.5t-4 -39.5q0 -35 11 -58 t30 -40.5t44 -32.5t53 -33q34 14 47 42t13 73zM509 200q0 -40 -13.5 -78t-41 -67t-69.5 -46.5t-99 -17.5q-40 0 -79 11.5t-69.5 34.5t-49 57.5t-18.5 81.5q0 66 37.5 111t106.5 73q-22 16 -42.5 33.5t-36.5 38t-25.5 45t-9.5 54.5q0 28 10.5 60t33 59t58 45t84.5 18 q42 0 77.5 -12t60.5 -33t39 -48t14 -57q0 -52 -27.5 -86.5t-98.5 -63.5q28 -18 56 -38t50.5 -45.5t37 -57.5t14.5 -72z"/>
<glyph glyph-name="nine" horiz-adv-x="547" unicode="9" d="M378 224q0 39 -2.5 66.5t-8 47t-13 32.5t-18.5 22q-13 11 -28 15t-38 4q-21 0 -33.5 -4t-23.5 -15q-10 -9 -17 -22.5t-11 -33.5t-5.5 -47.5t-1.5 -66.5q0 -68 7.5 -109.5t27.5 -60.5q11 -12 23.5 -16t33.5 -4q26 0 43.5 6t29.5 15.5t18.5 21t9.5 22.5q2 6 3 22t2 34.5 t1.5 38t0.5 32.5zM502 129q0 -78 -19 -153t-54.5 -133.5t-86 -94t-113.5 -35.5q-33 0 -60.5 12t-47.5 29.5t-31 37t-11 34.5q0 19 11 35t37 16q28 0 39.5 -13t11.5 -28q0 -13 -4.5 -20.5t-4.5 -21.5q0 -27 17 -42t43 -15q44 0 70.5 25.5t41.5 69.5t21 103.5t8 127.5 q-7 -27 -36.5 -41t-63.5 -14q-46 0 -85.5 17t-68 46t-45 68t-16.5 83t16.5 82.5t45 67.5t68 46t85.5 17q48 0 90.5 -17.5t74 -54.5t49.5 -95t18 -139z"/>
<glyph glyph-name="colon" horiz-adv-x="231" unicode=":" d="M176 53q0 -29 -18 -47.5t-47 -18.5q-26 0 -43 18.5t-17 47.5q0 26 17 43t43 17q29 0 47 -17t18 -43zM176 380q0 -29 -18 -47.5t-47 -18.5q-26 0 -43 18.5t-17 47.5q0 26 17 43t43 17q29 0 47 -17t18 -43z"/>
<glyph glyph-name="semicolon" horiz-adv-x="231" unicode=";" d="M173 35q0 -23 -9 -53t-25.5 -58t-44 -55.5t-47.5 -27.5q-2 0 -2.5 7t-0.5 9v2q10 2 17 7.5t12 9.5q35 29 35 64t-33 61q-8 7 -14.5 20t-6.5 29q0 26 17.5 44.5t41.5 18.5q30 0 45 -20.5t15 -57.5zM176 380q0 -29 -18 -47.5t-47 -18.5q-26 0 -43 18.5t-17 47.5q0 26 17 43 t43 17q29 0 47 -17t18 -43z"/>
<glyph glyph-name="less" horiz-adv-x="315" unicode="&lt;" d="M284 96q1 0 -0.5 -4t-4 -8.5t-4.5 -8t-3 -2.5l-224 139v3l224 139q1 0 3 -3t4.5 -7.5t4 -8.5t0.5 -4l-193 -118z"/>
<glyph glyph-name="equal" horiz-adv-x="356" unicode="=" d="M49 141l-1 3v8v8l1 4h260v-23h-260zM49 260l-1 4v8v8l1 4h260v-24h-260z"/>
<glyph glyph-name="greater" horiz-adv-x="315" unicode="&gt;" d="M43 73q-1 -1 -3 2.5t-4.5 8t-4 8.5t-0.5 4l194 117l-194 118q-1 0 0.5 4t4 8.5t4.5 7.5t3 3l224 -139q1 0 1 -1t-1 -2z"/>
<glyph glyph-name="question" horiz-adv-x="443" unicode="?" d="M240 56q0 -28 -19 -48.5t-48 -20.5q-26 0 -46 20.5t-20 48.5t20 48.5t46 20.5q29 0 48 -20.5t19 -48.5zM432 518q0 -46 -15.5 -86t-41 -70t-59.5 -47t-72 -17q-12 0 -28 2.5t-31 10.5v-126q0 -2 -11 -2t-11 2v166q0 2 -0.5 2.5t-0.5 1.5q0 5 5 2q10 -20 33.5 -27.5 t43.5 -7.5q17 0 26.5 5t14.5 13q6 6 9 14t4.5 26t1.5 50.5v87.5q0 40 -1.5 67t-5 45t-10 30t-15.5 22q-11 11 -28 15.5t-37 4.5q-39 0 -63 -21.5t-24 -61.5q0 -16 3 -25t6 -16l6 -14t3 -21q0 -22 -17 -38.5t-49 -16.5q-29 0 -47.5 16.5t-18.5 50.5q0 26 18 56t47 55.5 t64.5 42.5t71.5 17q50 0 91.5 -15t72.5 -42.5t48 -66t17 -84.5z"/>
<glyph glyph-name="at" horiz-adv-x="772" unicode="@" d="M444 461q0 27 -10 37.5t-33 10.5q-7 0 -14 -1t-17 -10q-21 -16 -37 -45.5t-26.5 -63.5t-16 -67.5t-5.5 -58.5q0 -35 6 -48t23 -13q18 0 35 20t30 46t22.5 51.5t12.5 36.5zM714 403q0 -59 -21.5 -102t-54 -70.5t-71 -41t-72.5 -13.5q-28 0 -49.5 9t-34.5 23t-16 27.5 t-3 21.5q0 10 3 21q-17 -61 -42 -81.5t-52 -20.5t-46 11t-31 29t-17 40.5t-5 46.5q0 39 16.5 79.5t45 74t66.5 54.5t81 21q41 0 41 -44l11 36h85l-47 -159q-14 -48 -21.5 -78t-7.5 -48q0 -20 10 -27.5t30 -7.5q35 0 67 15t56 41.5t38.5 63.5t14.5 80q0 71 -24 126 t-64.5 92.5t-93.5 57.5t-111 20q-67 0 -125.5 -26t-102.5 -72.5t-69.5 -110t-25.5 -137.5q0 -72 25.5 -135t69.5 -109.5t102.5 -73.5t125.5 -27q59 0 110.5 19.5t93.5 56.5q1 0 3.5 -2.5t5.5 -6t4.5 -6.5t0.5 -4q-45 -39 -100.5 -61t-117.5 -22q-72 0 -135.5 29t-111 79.5 t-75 118t-27.5 144.5t27.5 145t75 118.5t111 79.5t135.5 29q64 0 122 -21.5t101.5 -62.5t69.5 -101.5t26 -137.5z"/>
<glyph glyph-name="A" horiz-adv-x="634" unicode="A" d="M263 537l-97 -287h189zM341 0q-1 0 -1 4v8.5v8t1 3.5h82q2 0 3.5 1t0.5 1l-64 200h-205l-56 -160q-8 -27 -9.5 -34.5t1.5 -7.5h80q1 0 1.5 -3.5t0.5 -8t-0.5 -8.5t-1.5 -4h-194q-1 0 -1.5 4t-0.5 8.5t0.5 8t1.5 3.5h76q7 0 10.5 6.5t13.5 35.5l226 657q1 2 11.5 2 t11.5 -2l250 -697q1 -1 2 -1q3 -1 5 -1h86q1 0 1.5 -3.5t0.5 -8t-0.5 -8.5t-1.5 -4h-331z"/>
<glyph glyph-name="B" horiz-adv-x="633" unicode="B" d="M449 182q0 60 -5.5 96.5t-19 56t-37 26t-59.5 6.5h-58v-339q0 -4 5 -4h67q33 0 54 6.5t33 23.5t16 48t4 80zM417 541q0 44 -5 72t-17.5 44t-34 22t-54.5 6h-31q-5 0 -5 -4v-291h68q24 0 39.5 6.5t24.5 23t12 46t3 75.5zM590 188q0 -36 -14 -69.5t-41.5 -60t-69.5 -42.5 t-98 -16h-329q-1 0 -1.5 4t-0.5 8.5t0.5 8t1.5 3.5h84q5 0 5 4v653q0 4 -5 4h-84q-1 0 -1.5 4t-0.5 8.5t0.5 8t1.5 3.5h284q50 0 91 -10t70.5 -30.5t46 -51t16.5 -72.5q0 -36 -13.5 -66.5t-36 -53t-51 -35t-58.5 -12.5q41 0 78 -13t64.5 -37.5t44 -59.5t16.5 -80z"/>
<glyph glyph-name="C" horiz-adv-x="653" unicode="C" d="M598 -15q0 -1 -10.5 -1t-12.5 1q-2 9 -12 19.5t-30 10.5q-16 0 -37.5 -5t-44.5 -11t-46 -11t-43 -5q-67 0 -124.5 30t-99.5 81t-66 118.5t-24 141.5q0 75 23 142.5t64.5 118.5t98 81t123.5 30q17 0 37 -4t40.5 -9.5t40.5 -9.5t36 -4q20 0 32.5 8t14.5 16q0 2 11 2t11 -2 v-244q0 -2 -11 -2t-11 2q0 37 -18 76.5t-47 72t-65 53.5t-71 21q-32 0 -54 -8t-42 -28q-32 -35 -44.5 -110.5t-12.5 -201.5q0 -127 12.5 -201.5t44.5 -109.5q20 -22 44.5 -29.5t56.5 -7.5q43 0 81.5 22t68 58.5t46.5 83.5t17 96q0 1 3.5 1.5t8 0.5t8 -0.5t3.5 -1.5v-281z "/>
<glyph glyph-name="D" horiz-adv-x="700" unicode="D" d="M494 354q0 120 -11.5 191.5t-43.5 104.5q-20 20 -42 27.5t-54 7.5h-68q-5 0 -5 -4v-655q0 -2 5 -2h68q32 0 54 7t42 27q16 17 26.5 39.5t17 57t9 83t2.5 116.5zM651 354q0 -73 -24 -137.5t-66 -112.5t-98 -76t-120 -28h-305q-1 0 -1 4v8.5v8t1 3.5h84q5 0 5 4v653 q0 4 -5 4h-84q-1 0 -1 4v8.5v8t1 3.5h305q64 0 120 -28t98 -76t66 -112.5t24 -138.5z"/>
<glyph glyph-name="E" horiz-adv-x="627" unicode="E" d="M602 3q0 -3 -3 -3h-562q-1 0 -1 4v8.5v8t1 3.5h85q5 0 5 4v653q0 4 -5 4h-85q-1 0 -1 4v8.5v8t1 3.5h511q5 0 5 -3v-221l-3 -1h-8.5h-8.5l-4 1q0 35 -9.5 70.5t-29.5 64.5t-51.5 47t-76.5 18h-87q-7 0 -7 -4v-305h18q29 0 50 11.5t35 30.5t21 43.5t7 50.5q0 2 11 2t11 -2 v-296q0 -2 -11 -2t-11 2q0 26 -7 50t-21 43.5t-35 31t-50 11.5h-18v-324q0 -4 7 -4h90q59 0 99.5 20t66.5 51.5t37.5 70.5t11.5 78q0 2 11 2t11 -2v-241z"/>
<glyph glyph-name="F" horiz-adv-x="603" unicode="F" d="M554 485l-4 -1h-8h-8l-4 1q0 35 -13.5 70.5t-38.5 64.5t-61 47t-80 18h-62q-5 0 -5 -4v-305h17q29 0 54 11.5t44 30.5t30 43.5t11 50.5q0 1 3.5 1.5t8 0.5t8 -0.5t3.5 -1.5v-296q0 -1 -3.5 -1h-8h-8t-3.5 1q0 26 -11 50t-30 43.5t-44 31t-54 11.5h-17v-324q0 -4 5 -4h85 q1 0 1.5 -3.5t0.5 -8t-0.5 -8.5t-1.5 -4h-322q-1 0 -1 4v8.5v8t1 3.5h85q4 0 4 4v653q0 4 -4 4h-85q-1 0 -1 4v8.5v8t1 3.5h513q3 0 3 -3v-221z"/>
<glyph glyph-name="G" horiz-adv-x="659" unicode="G" d="M604 268q-6 0 -6 -3v-269q0 -1 -3.5 -1h-8t-8.5 0.5t-4 1.5q1 19 -4.5 25.5t-25.5 6.5q-16 0 -34 -7t-41.5 -16t-53.5 -16t-70 -7q-69 0 -124.5 31t-93.5 82.5t-58.5 118.5t-20.5 139q0 75 23 142.5t64.5 118.5t98 81t123.5 30q18 0 36.5 -4t35 -9.5t29.5 -9.5t20 -4 q21 0 33.5 8t13.5 16q2 2 13 2t11 -2v-251q0 -1 -3.5 -1h-8h-8.5t-4 1q0 37 -12.5 77.5t-35 74.5t-53 56t-67.5 22q-32 0 -54.5 -8t-42.5 -28q-31 -35 -43 -110.5t-12 -201.5q0 -67 1 -117.5t5.5 -88t13 -63t24.5 -42.5q18 -22 41 -29.5t55 -7.5q65 0 87.5 22.5t22.5 63.5 v173q0 3 -4 3h-85v4v8v8v4h321q1 0 1.5 -3.5t0.5 -8t-0.5 -8.5t-1.5 -4h-83z"/>
<glyph glyph-name="H" horiz-adv-x="744" unicode="H" d="M394 0q-1 0 -1 4v8.5v8t1 3.5h75q4 0 4 4v329h-203v-329q0 -4 5 -4h75q1 0 1.5 -3.5t0.5 -8t-0.5 -8.5t-1.5 -4h-312q-1 0 -1 4v8.5v8t1 3.5h84q5 0 5 4v653q0 4 -5 4h-84q-1 0 -1 4v8.5v8t1 3.5h312q1 0 1.5 -3.5t0.5 -8t-0.5 -8.5t-1.5 -4h-75q-5 0 -5 -4v-300h203v300 q0 4 -4 4h-75q-1 0 -1 4v8.5v8t1 3.5h312q1 0 1.5 -3.5t0.5 -8t-0.5 -8.5t-1.5 -4h-83q-6 0 -6 -4v-653q0 -4 6 -4h83q1 0 1.5 -3.5t0.5 -8t-0.5 -8.5t-1.5 -4h-312z"/>
<glyph glyph-name="I" horiz-adv-x="397" unicode="I" d="M38 0q-1 0 -1 4v8.5v8t1 3.5h85q4 0 4 4v653q0 4 -4 4h-85q-1 0 -1 4v8.5v8t1 3.5h322q1 0 1.5 -3.5t0.5 -8t-0.5 -8.5t-1.5 -4h-85q-6 0 -6 -4v-653q0 -4 6 -4h85q1 0 1.5 -3.5t0.5 -8t-0.5 -8.5t-1.5 -4h-322z"/>
<glyph glyph-name="J" horiz-adv-x="504" unicode="J" d="M407 685q-8 0 -8 -4v-514q0 -43 -14.5 -77.5t-41 -58t-63 -36t-80.5 -12.5q-33 0 -65.5 15t-59 39t-43 55t-16.5 64q0 23 7.5 41t19.5 31t26.5 20t28.5 7q32 0 54.5 -25.5t22.5 -58.5q0 -24 -7.5 -36t-17 -20t-17 -16.5t-7.5 -26.5q0 -13 7 -25t17.5 -21t23.5 -14.5 t26 -5.5q40 0 48.5 20.5t8.5 61.5v593q0 4 -4 4h-85q-1 0 -1 4v8.5v8t1 3.5h322q1 0 1.5 -3.5t0.5 -8t-0.5 -8.5t-1.5 -4h-83z"/>
<glyph glyph-name="K" horiz-adv-x="669" unicode="K" d="M394 0q-1 0 -1 4v8.5v8t1 3.5h81q3 0 5 1t1 1l-210 325v-323q0 -4 4 -4h85q1 0 1.5 -3.5t0.5 -8t-0.5 -8.5t-1.5 -4h-322q-1 0 -1 4v8.5v8t1 3.5h85q4 0 4 4v653q0 4 -4 4h-85q-1 0 -1 4v8.5v8t1 3.5h322q1 0 1.5 -3.5t0.5 -8t-0.5 -8.5t-1.5 -4h-85q-4 0 -4 -4v-324 l233 286q12 15 18.5 23t9 12.5t1.5 5.5t-3 1h-70q-1 0 -1 4v8.5v8t1 3.5h187v-24h-71q-3 0 -6 -1t-7.5 -5.5t-11.5 -13t-19 -22.5l-164 -198l279 -419q2 -1 4 -1q4 -1 5 -1h97q2 0 3 -3.5t1 -8t-1 -8.5t-3 -4h-359z"/>
<glyph glyph-name="L" horiz-adv-x="597" unicode="L" d="M578 3q0 -3 -3 -3h-537q-1 0 -1 4v8.5v8t1 3.5h85q4 0 4 4v653q0 4 -4 4h-85q-1 0 -1 4v8.5v8t1 3.5h322q1 0 1.5 -3.5t0.5 -8t-0.5 -8.5t-1.5 -4h-85q-4 0 -4 -4v-653q0 -4 4 -4h63q54 0 95 21.5t68 55t41 74t14 78.5q0 1 11 1t11 -1v-250z"/>
<glyph glyph-name="M" horiz-adv-x="857" unicode="M" d="M519 0q-1 0 -1 4v8.5v8t1 3.5h83q6 0 6 4v600l-206 -641q-1 -2 -11.5 -2t-11.5 2l-232 659v-618q0 -2 0.5 -3t5.5 -1h84q1 0 1.5 -3.5t0.5 -8t-0.5 -8.5t-1.5 -4h-204q-1 0 -1 4v8.5v8t1 3.5h85q4 0 4 4v653q0 4 -4 4h-85q-1 0 -1 4v8.5v8t1 3.5h229q10 0 14 -18 l170 -478l154 478q5 18 15 18h226v-24h-85q-5 0 -5 -4v-653q0 -4 5 -4h85v-24h-322z"/>
<glyph glyph-name="N" horiz-adv-x="693" unicode="N" d="M602 685q-6 0 -6 -4v-694q0 -3 -11 -3h-3q-8 0 -10 3l-425 681v-640q0 -4 4 -4h85q1 0 1.5 -3.5t0.5 -8t-0.5 -8.5t-1.5 -4h-203q-1 0 -1.5 4t-0.5 8.5t0.5 8t1.5 3.5h83q5 0 5.5 1t0.5 3v653q0 2 -0.5 3t-5.5 1h-83q-1 0 -1.5 4t-0.5 8.5t0.5 8t1.5 3.5h243q5 0 10 -3.5 t10 -14.5l277 -451v441q0 4 -6 4h-83q-1 0 -2 4t-1 8.5t1 8t2 3.5h202v-3v-8v-9v-4h-84z"/>
<glyph glyph-name="O" d="M510 354q0 126 -12 201.5t-44 110.5q-19 20 -43.5 28t-53.5 8t-52.5 -8t-42.5 -28q-32 -35 -44.5 -110.5t-12.5 -201.5q0 -72 3 -123t9.5 -87t17.5 -60t27 -41q19 -22 42.5 -29.5t52.5 -7.5t53.5 7.5t43.5 29.5q16 17 26.5 41t17 60t9.5 87t3 123zM667 354 q0 -77 -24 -144.5t-66 -118t-98.5 -79.5t-121.5 -29q-64 0 -120 29t-98 79.5t-66.5 118t-24.5 144.5q0 75 23 142.5t64.5 118.5t98 81t123.5 30q65 0 121.5 -29t98.5 -79.5t66 -118.5t24 -145z" unicode="O"/>
<glyph glyph-name="P" horiz-adv-x="613" unicode="P" d="M441 496q0 54 -6.5 90.5t-21 58.5t-38 31t-56.5 9h-44q-4 0 -4 -4v-343q20 -10 34.5 -13t44.5 -3q34 0 52.5 7t27 26t10 53t1.5 88zM583 496q0 -91 -60.5 -144.5t-172.5 -53.5q-29 0 -44.5 3.5t-34.5 8.5v-282q0 -4 4 -4h85q1 0 1.5 -3.5t0.5 -8t-0.5 -8.5t-1.5 -4h-322 q-1 0 -1 4v8.5v8t1 3.5h85q4 0 4 4v653q0 4 -4 4h-85q-1 0 -1 4v8.5v8t1 3.5h281q64 0 113.5 -16t83 -44.5t50.5 -67.5t17 -85z"/>
<glyph glyph-name="Q" d="M510 354q0 126 -12 201.5t-44 110.5q-19 20 -43.5 28t-53.5 8q-28 0 -52 -8t-42 -28q-33 -35 -45.5 -110.5t-12.5 -201.5q0 -72 3 -123t9.5 -87t18 -60t27.5 -41q18 -22 42 -29.5t52 -7.5q29 0 53.5 7.5t43.5 29.5q16 17 26.5 41t17 60t9.5 87t3 123zM667 354 q0 -42 -12.5 -90t-34.5 -94t-53 -84t-67 -61q-22 -14 -59 -29.5t-76.5 -30.5t-77 -28t-61.5 -23q81 0 128 -12.5t74 -31.5t41 -41t29 -41t38 -31.5t67 -12.5q1 0 1.5 -4t0.5 -8.5t-0.5 -8t-1.5 -3.5q-92 0 -148 12.5t-88 31.5t-47.5 41t-27 41t-25.5 31.5t-44 12.5 q-11 0 -20 -7.5t-13 -7.5q-23 0 -23 17q0 8 5.5 16t13.5 10q15 6 36 14.5t43 17t43.5 16.5t37.5 15q6 1 5.5 1.5t5.5 0.5q-64 0 -120 29t-98 79.5t-66.5 118t-24.5 144.5q0 75 23 142.5t64.5 118.5t98 81t123.5 30q65 0 121.5 -29t98.5 -79.5t66 -118.5t24 -145z" unicode="Q"/>
<glyph glyph-name="R" horiz-adv-x="661" unicode="R" d="M422 531q0 47 -4.5 77t-16.5 47t-33 23.5t-55 6.5h-38q-5 0 -5 -4v-300h44q35 0 56 5.5t32.5 22t15.5 45.5t4 77zM684.5 -4q-28.5 -13 -59.5 -13q-29 0 -60.5 10t-57.5 33t-42.5 60t-16.5 91v65q0 66 -34.5 90.5t-99.5 24.5h-44v-329q0 -4 5 -4h71v-24h-308q-1 0 -1 4 v8.5v8t1 3.5h85q4 0 4 4v653q0 4 -4 4h-85q-1 0 -1 4v8.5v8t1 3.5h299q53 0 95 -13.5t71.5 -37t45.5 -55t16 -68.5q0 -35 -13.5 -65t-37 -52.5t-55 -35.5t-66.5 -13q53 0 90.5 -16.5t62 -44t36 -62.5t11.5 -71v-90q0 -38 16 -53t42 -15q20 0 28.5 3.5t18.5 14.5l3 -3 q3 -2 6 -5t4.5 -5.5t1.5 -3.5q0 -9 -28.5 -22z"/>
<glyph glyph-name="S" horiz-adv-x="534" unicode="S" d="M510 229q0 -43 -14 -87t-42 -79.5t-70 -57.5t-98 -22q-24 0 -46.5 6.5t-43 14t-38 14t-29.5 6.5q-21 0 -35.5 -12t-16.5 -26q-2 -2 -12.5 -2t-10.5 2v250q0 1 3.5 1.5t8 0.5t8 -0.5t3.5 -1.5q0 -30 15 -69.5t42.5 -75.5t66 -60.5t84.5 -24.5q41 0 70 10.5t47 27.5t26 40 t8 47q0 37 -11 59t-35 38t-62.5 30.5t-93.5 35.5q-33 13 -62 29.5t-50.5 40t-34 56t-12.5 77.5q0 51 15.5 93t41 72t59 47t69.5 17q23 0 36.5 -4t24.5 -9.5t23 -9.5t32 -4t28.5 8t10.5 16q0 2 11 2t11 -2v-196q0 -2 -11 -2t-11 2q0 36 -11.5 67.5t-32 55.5t-49 38t-61.5 14 q-57 0 -88 -32t-31 -83q0 -27 9.5 -46.5t30 -35t52.5 -30t77 -31.5q46 -18 82.5 -37t62.5 -43t40 -56.5t14 -78.5z"/>
<glyph glyph-name="T" horiz-adv-x="647" unicode="T" d="M626 455q0 -2 -10.5 -2t-10.5 2q0 44 -11.5 85t-35.5 73.5t-61.5 52t-89.5 19.5h-9q-6 0 -6 -4v-653q0 -4 6 -4h83q1 0 1.5 -3.5t0.5 -8t-0.5 -8.5t-1.5 -4h-320l-1 4v8v8l1 4h84q6 0 6 4v653q0 4 -6 4h-10q-52 0 -88.5 -19.5t-59.5 -52t-33.5 -73.5t-10.5 -85 q0 -2 -11 -2t-11 2v251q0 3 3 3h600q2 0 2 -3v-251z"/>
<glyph glyph-name="U" horiz-adv-x="683" unicode="U" d="M587 685q-4 0 -4 -4v-471q0 -103 -55 -165t-175 -62q-53 0 -98 12.5t-77.5 38.5t-50.5 66t-18 96v485q0 4 -5 4h-84q-1 0 -1 4v8.5v8t1 3.5h321q1 0 1.5 -3.5t0.5 -8t-0.5 -8.5t-1.5 -4h-84q-7 0 -7 -4v-485q0 -43 6 -76.5t20.5 -56.5t39 -35t62.5 -12q95 0 138 53.5 t43 140.5v471q0 4 -6 4h-90q-1 0 -1 4v8.5v8t1 3.5h209q1 0 1.5 -3.5t0.5 -8t-0.5 -8.5t-1.5 -4h-85z"/>
<glyph glyph-name="V" horiz-adv-x="653" unicode="V" d="M617 685q-6 0 -9.5 -6.5t-14.5 -35.5l-215 -658q-1 -2 -12 -2t-12 2l-285 696q-1 4 -8 4h-92q-1 0 -1.5 4t-0.5 8.5t0.5 8t1.5 3.5h348q1 0 1.5 -3.5t0.5 -8t-0.5 -8.5t-1.5 -4h-93q-5 0 -4 -4l200 -502l152 464q9 29 9.5 35.5t-4.5 6.5h-82v24h206q1 0 1.5 -3.5t0.5 -8 t-0.5 -8.5t-1.5 -4h-84z"/>
<glyph glyph-name="W" horiz-adv-x="993" unicode="W" d="M950 685q-5 0 -10 -6.5t-13 -35.5l-213 -658q-1 -2 -12 -2t-12 2l-180 522l-168 -522q-2 -3 -10 -3q-1 0 -7 0.5t-8 2.5l-259 696q0 4 -8 4h-91q-1 0 -1.5 4t-0.5 8.5t0.5 8t1.5 3.5h335q1 0 1.5 -3.5t0.5 -8t-0.5 -8.5t-1.5 -4h-79q-6 0 -5 -4l178 -485l109 344l-48 141 q-1 2 -4 3l-2 1h-104q-1 0 -1 4v8.5v8t1 3.5h356l1 -3v-8.5v-8.5l-1 -4h-95q-3 0 -3 -4l164 -486l144 453q8 25 8.5 31t-4.5 6h-81q-1 0 -1 4v8.5v8t1 3.5h205q1 0 1.5 -3.5t0.5 -8t-0.5 -8.5t-1.5 -4h-83z"/>
<glyph glyph-name="X" horiz-adv-x="685" unicode="X" d="M367 0q-1 0 -1 4v8.5v8t1 3.5h87q2 0 3 1v1l-145 275l-133 -235q-18 -29 -19.5 -35.5t4.5 -6.5h72v-4v-8v-8v-4h-207q-1 0 -1 4v8.5v8t1 3.5h94q3 1 8 6q4 4 9.5 12.5t13.5 23.5l147 259l-194 356q0 4 -7 4h-97q-1 0 -1 4v8.5v8t1 3.5h347q1 0 1.5 -3.5t0.5 -8t-0.5 -8.5 t-1.5 -4h-86q-5 0 -3 -4l125 -239l116 201q17 29 19 35.5t-8 6.5h-69q-1 0 -1 4v8.5v8t1 3.5h205q1 0 1.5 -3.5t0.5 -8t-0.5 -8.5t-1.5 -4h-92q-2 0 -8.5 -6.5t-24.5 -35.5l-125 -223l211 -394q1 0 3.5 -1t5.5 -1h96q1 0 1.5 -3.5t0.5 -8t-0.5 -8.5t-1.5 -4h-348z"/>
<glyph glyph-name="Y" horiz-adv-x="638" unicode="Y" d="M592 685q-2 0 -5 -2t-9 -12t-15.5 -29.5t-26.5 -55.5l-125 -282v-276q0 -4 7 -4h83q1 0 1.5 -3.5t0.5 -8t-0.5 -8.5t-1.5 -4h-320q-1 0 -1 4v8.5v8t1 3.5h84q6 0 6 4v281l-181 372q-2 4 -8 4h-95q-1 0 -1.5 4t-0.5 8.5t0.5 8t1.5 3.5h349q1 0 1.5 -3.5t0.5 -8t-0.5 -8.5 t-1.5 -4h-91q-3 0 -2.5 -1t-1.5 -3l165 -337l133 299q12 29 14 35.5t-2 6.5h-84q-1 0 -1 4v8.5v8t1 3.5h203q1 0 1.5 -3.5t0.5 -8t-0.5 -8.5t-1.5 -4h-78z"/>
<glyph glyph-name="Z" horiz-adv-x="603" unicode="Z" d="M550 3q0 -3 -3 -3h-491q-3 0 -3 3q0 2 1 5l335 673q2 4 -2 4h-79q-47 0 -84 -19.5t-62.5 -52t-38.5 -73.5t-13 -85q0 -1 -3.5 -1h-8h-8.5t-4 1v251q0 3 3 3h457q3 0 1 -8l-336 -675q-1 0 0 -1t4 -1h110q48 0 85 20.5t63 53.5t39.5 75t13.5 85q0 1 4 1.5t8.5 0.5t8 -0.5 t3.5 -1.5v-255z"/>
<glyph glyph-name="bracketleft" horiz-adv-x="283" unicode="[" d="M84 -244q-3 0 -3 4v974q0 3 3 3h231l1 -3v-8v-8l-1 -4h-117q-6 0 -6 -4v-927q0 -3 6 -3h117l1 -4v-8v-8l-1 -4h-231z"/>
<glyph glyph-name="backslash" horiz-adv-x="337" unicode="\" d="M285 -14q1 -1 -2 -2.5l-7 -3.5t-6.5 -3t-3.5 -1t-1 1l-299 777q0 1 3 2.5l7 3.5t7 3t4 1t1 -1z"/>
<glyph glyph-name="bracketright" horiz-adv-x="275" unicode="]" d="M192 -240v-3l-1 -1h-233q-1 0 -1.5 3.5t-0.5 8t0.5 8.5t1.5 4h118q5 0 5 3v927q0 4 -5 4h-118q-1 0 -1.5 3.5t-0.5 8t0.5 8t1.5 3.5h233l1 -1v-2v-974z"/>
<glyph glyph-name="asciicircum" horiz-adv-x="308" unicode="^" d="M315 523l1 -1q0 -2 -5 -7.5t-7 -5.5h-1l-145 96l-136 -96h-1q-2 0 -6 5.5t-4 7.5t61 68t89 105q-1 1 1 1q1 0 3 -1q26 -39 65 -81.5t85 -90.5z"/>
<glyph glyph-name="underscore" horiz-adv-x="533" unicode="_" d="M34 0q-1 0 -1 4v8.5v8t1 3.5h465q1 0 1.5 -3.5t0.5 -8t-0.5 -8.5t-1.5 -4h-465z"/>
<glyph glyph-name="grave" horiz-adv-x="333" unicode="`" d="M307 536q2 -1 2 -8q0 -16 -3 -16q-82 19 -133.5 41t-80.5 45t-40 46t-11 42q0 17 11 28t29 11q23 0 39 -24.5t38 -57t56 -63.5t93 -44z"/>
<glyph glyph-name="a" horiz-adv-x="481" unicode="a" d="M289 221q-19 -11 -39.5 -13.5t-43.5 -5.5q-13 -3 -22.5 -7t-15.5 -14t-9 -29.5t-3 -54.5q0 -16 1 -30t6 -24.5t16 -16.5t30 -6q36 0 58 34t22 82v85zM446 4q-24 -12 -54 -12q-16 0 -33 5.5t-31.5 14.5t-24 21t-12.5 25q-11 -31 -36 -48.5t-64 -17.5q-27 0 -54 5.5 t-49 17.5t-36 32t-14 50q0 39 17 63.5t40.5 38t48.5 19t41 6.5q44 4 74 9t30 21v76q0 30 -4 46.5t-12 24.5t-19.5 9.5t-25.5 1.5h-20t-17.5 -2.5t-12 -9t-4.5 -20.5t4 -22t4 -21q0 -16 -11.5 -28t-39.5 -12q-26 0 -38 15.5t-12 34.5q0 15 11 31t31 29t47 21t58 8 q81 0 130 -43.5t49 -137.5v-195q0 -34 22 -34q13 0 21 5.5t10 13.5q0 2 8 -5q7 -6 7 -8q0 -13 -29 -28z"/>
<glyph glyph-name="b" horiz-adv-x="573" unicode="b" d="M404 210q0 70 -6.5 115.5t-27.5 65.5q-13 11 -27 15.5t-35 4.5q-14 0 -30 -4t-30 -11.5t-24.5 -18.5t-13.5 -25v-267q8 -18 21.5 -31t29.5 -22t33.5 -13t32.5 -4q10 0 15.5 1t9.5 3t8 6l10 10q21 20 27.5 62t6.5 113zM529 210q0 -41 -14.5 -80.5t-41 -70t-63.5 -49.5 t-83 -19q-32 0 -65.5 15.5t-51.5 35.5v-39q0 -3 -3 -3h-181q-1 0 -1 4v8.5v8t1 3.5h61q6 0 6 4v679q0 4 -6 4h-61q-1 0 -1 4v8.5v8t1 3.5h181q3 0 3 -3v-338q38 41 98 41q46 0 86 -19.5t70 -51.5t47.5 -72t17.5 -82z"/>
<glyph glyph-name="c" horiz-adv-x="472" unicode="c" d="M451 86q-30 -43 -80 -69t-107 -26q-45 0 -85 17.5t-70 47.5t-47.5 70.5t-17.5 86.5t17.5 86.5t47.5 70.5t70 47.5t85 17.5q37 0 68 -12t54 -30.5t36 -40.5t13 -42q0 -24 -14 -35t-34 -11q-23 0 -35 11t-12 27q0 11 2 16t4.5 10t4.5 11.5t2 18.5q0 30 -24 41.5t-65 11.5 q-19 0 -33 -4t-27 -17q-10 -10 -16.5 -23.5t-10.5 -34t-6 -49.5t-2 -70t2 -70t6 -49.5t10.5 -34t16.5 -23.5q13 -13 27 -17t33 -4q57 0 104.5 23.5t72.5 60.5q1 1 6 -4t5 -8z"/>
<glyph glyph-name="d" horiz-adv-x="568" unicode="d" d="M363 352q-3 14 -13 25t-24 18.5t-29.5 11.5t-30.5 4q-21 0 -34.5 -4.5t-26.5 -15.5q-20 -20 -28 -65.5t-8 -115.5q0 -71 8 -113t28 -62q6 -6 9.5 -10t7.5 -6t9.5 -3t16.5 -1q33 0 55.5 8.5t35.5 22t18.5 29t5.5 29.5v248zM366 0q-3 0 -3 3v44q-2 -6 -10.5 -15.5 t-23 -18.5t-35 -15.5t-46.5 -6.5q-46 0 -84 19t-64.5 49.5t-41 70t-14.5 80.5q0 42 17.5 82t47.5 72t70.5 51.5t86.5 19.5q32 0 55.5 -10.5t41.5 -30.5v313q0 4 -6 4h-57q-1 0 -1 4v8.5v8t1 3.5h178q4 0 4 -3v-704q0 -4 7 -4h59q1 0 1.5 -3.5t0.5 -8t-0.5 -8.5t-1.5 -4h-182 z"/>
<glyph glyph-name="e" horiz-adv-x="504" unicode="e" d="M360 259q0 30 -2.5 51t-7 36t-10.5 25t-14 19q-11 13 -24.5 17t-30.5 4q-21 0 -36 -4t-27 -17q-9 -9 -16.5 -19t-12 -25t-7.5 -36t-3 -51h191zM468 238q0 -3 -3 -3h-296v-22q0 -41 2 -70t7 -49.5t12.5 -34t17.5 -23.5q12 -13 27 -17t36 -4q57 0 101 23.5t71 60.5 q1 1 8 -5t6 -8q-29 -43 -79.5 -69t-106.5 -26q-46 0 -87 17.5t-72 47.5t-49.5 70.5t-18.5 86.5t18.5 86.5t49.5 70.5t72 47.5t87 17.5q50 0 86.5 -21t61.5 -52t37 -64.5t12 -59.5z"/>
<glyph glyph-name="f" horiz-adv-x="353" unicode="f" d="M398 650q0 -21 -15 -37t-38 -16q-26 0 -39.5 10.5t-13.5 27.5q0 10 2.5 15.5t5.5 10.5t5.5 11.5t2.5 18.5q0 17 -5.5 22t-22.5 5q-22 0 -34.5 -25t-12.5 -93v-170q0 -4 6 -4h89v-4v-8v-8v-4h-89q-6 0 -6 -4v-370q0 -4 6 -4h59q1 0 1.5 -3.5t0.5 -8t-0.5 -8.5t-1.5 -4 h-248q-1 0 -1 4v8.5v8t1 3.5h58q6 0 6 4v370q0 4 -6 4h-72q-1 0 -2 4t-1 8.5t1 8t2 3.5h72q6 0 6 4v19q0 83 15 139t40.5 91t60 50t74.5 15q17 0 34 -7.5t30.5 -20.5t21.5 -30t8 -36z"/>
<glyph glyph-name="g" horiz-adv-x="510" unicode="g" d="M443 -169q0 21 -7.5 40.5t-24 34.5t-42 24.5t-62.5 9.5h-136h-1h-8h-8h-1q-16 -10 -27 -19t-17.5 -21t-9 -27.5t-2.5 -38.5q0 -40 10 -64.5t30 -38t50 -18t71 -4.5q37 0 70.5 6.5t59 21.5t40.5 38t15 56zM320 275q0 50 -5.5 79.5t-19.5 43.5q-8 8 -19 10.5t-25 2.5 q-12 0 -23 -2.5t-19 -10.5q-14 -14 -21 -43.5t-7 -79.5q0 -57 7 -83t21 -40q8 -9 19 -11.5t23 -2.5q14 0 25 2.5t19 11.5q14 14 19.5 40t5.5 83zM528 381q0 -23 -9.5 -34t-22.5 -11q-17 0 -25 7.5t-8 16.5q0 10 4 13.5t4 11.5t-5 12t-13 4h-12t-13 -3t-14.5 -11.5 t-16.5 -25.5q17 -20 22.5 -39.5t5.5 -47.5q0 -33 -13.5 -62t-37 -51t-55.5 -34.5t-68 -12.5q-43 0 -75.5 15t-47.5 28q-12 -9 -19.5 -23t-7.5 -37q0 -19 4.5 -29.5t14 -15.5t24.5 -6.5t36 -1.5h138q88 0 142 -43.5t54 -126.5q0 -47 -24 -82t-61.5 -59t-83 -36t-87.5 -12 q-54 0 -98 11t-76 29.5t-49.5 43.5t-17.5 53q0 21 8.5 40.5t23 36t34.5 28.5t43 18q-43 10 -70 39.5t-27 67.5q0 45 24.5 72.5t61.5 50.5q-17 20 -28 45.5t-11 53.5q0 33 13.5 62.5t37.5 51.5t56 34.5t68 12.5q44 0 78 -16t57 -44q14 26 36.5 43t53.5 17t41.5 -18.5 t10.5 -35.5z"/>
<glyph glyph-name="h" horiz-adv-x="584" unicode="h" d="M323 0q-1 0 -2 4t-1 8.5t1 8t2 3.5h57q6 0 6 4v281q0 53 -14 77.5t-43 24.5q-45 0 -72.5 -23t-45.5 -80v-280q0 -4 6 -4h58q1 0 1.5 -3.5t0.5 -8t-0.5 -8.5t-1.5 -4h-249q-1 0 -1 4v8.5v8t1 3.5h59q8 0 8 4v679q0 4 -8 4h-59q-1 0 -1 4v8.5v8t1 3.5h182q3 0 3 -3v-375 q14 42 48.5 60t69.5 18q82 0 129 -43.5t47 -123.5v-240q0 -4 7 -4h57q2 0 2.5 -3.5t0.5 -8t-0.5 -8.5t-2.5 -4h-246z"/>
<glyph glyph-name="i" horiz-adv-x="316" unicode="i" d="M38 0q-1 0 -1 4v8.5v8t1 3.5h60q7 0 7 4v370q0 4 -7 4h-60q-1 0 -1 4v8.5v8t1 3.5h180q4 0 4 -3v-395q0 -4 7 -4h59q1 0 1.5 -3.5t0.5 -8t-0.5 -8.5t-1.5 -4h-250zM236 657q0 -30 -21 -51.5t-50 -21.5q-32 0 -53 21.5t-21 51.5q0 32 21 54t53 22q29 0 50 -22t21 -54z"/>
<glyph glyph-name="j" horiz-adv-x="301" unicode="j" d="M223 -24q0 -82 -15.5 -138.5t-42 -91t-62 -49.5t-75.5 -15q-18 0 -35 8.5t-30.5 22t-22 31t-8.5 36.5q0 20 15.5 37t38.5 17q27 0 40 -12.5t13 -29.5q0 -9 -2.5 -14.5t-5.5 -10t-5.5 -11t-2.5 -17.5q0 -17 5.5 -24t22.5 -7q11 0 20.5 5.5t17 19t12 36t4.5 57.5v572 q0 4 -8 4h-58q-1 0 -1 4v8.5v8t1 3.5h181q3 0 3 -3v-447zM237 657q0 -30 -21 -51.5t-50 -21.5q-32 0 -53 21.5t-21 51.5q0 32 21 54t53 22q29 0 50 -22t21 -54z"/>
<glyph glyph-name="k" horiz-adv-x="556" unicode="k" d="M324 0q-1 0 -2 4t-1 8.5t1 8t2 3.5h42q8 0 5 4l-158 201v-201q0 -4 6 -4h58v-24h-249q-1 0 -1 4v8.5v8t1 3.5h60q7 0 7 4v679q0 4 -7 4h-60q-1 0 -1 4v8.5v8t1 3.5h179q6 0 6 -3v-497l145 125q17 15 26 23t13 12.5t4 5.5t-3 1h-54q-1 0 -1 4v8.5v8t1 3.5h161v-4v-8v-8v-4 h-58q-3 0 -6.5 -1t-10 -5.5t-16.5 -13t-27 -22.5l-89 -75l203 -257q4 -4 11 -4h79q1 0 1.5 -3.5t0.5 -8t-0.5 -8.5t-1.5 -4h-267z"/>
<glyph glyph-name="l" horiz-adv-x="295" unicode="l" d="M27 0q-1 0 -1.5 4t-0.5 8.5t0.5 8t1.5 3.5h59q7 0 7 4v679q0 4 -7 4h-59q-1 0 -1.5 4t-0.5 8.5t0.5 8t1.5 3.5h180q4 0 4 -3v-704q0 -4 5 -4h58q2 0 2.5 -3.5t0.5 -8t-0.5 -8.5t-2.5 -4h-247z"/>
<glyph glyph-name="m" horiz-adv-x="886" unicode="m" d="M623 0v24h60q7 0 7 4v281q0 53 -15.5 77.5t-41.5 24.5q-33 0 -56 -11.5t-37.5 -29.5t-21 -40t-6.5 -43v-259q0 -4 7 -4h59q1 0 1.5 -3.5t0.5 -8t-0.5 -8.5t-1.5 -4h-248q-1 0 -1 4v8.5v8t1 3.5h57q6 0 6 4v281q0 53 -13.5 77.5t-41.5 24.5q-46 0 -74 -23t-46 -80v-280 q0 -4 6 -4h58q1 0 1.5 -3.5t0.5 -8t-0.5 -8.5t-1.5 -4h-248q-1 0 -1.5 4t-0.5 8.5t0.5 8t1.5 3.5h58q8 0 8 4v370q0 4 -8 4h-58q-1 0 -1.5 4t-0.5 8.5t0.5 8t1.5 3.5h181q3 0 3 -3v-66q14 42 49 60t71 18q71 0 111.5 -22t56.5 -57q20 45 55.5 62t71.5 17q81 0 127 -33 t46 -113v-261q0 -4 8 -4h59q1 0 1.5 -3.5t0.5 -8t-0.5 -8.5t-1.5 -4h-250z"/>
<glyph glyph-name="n" horiz-adv-x="592" unicode="n" d="M331 0q-1 0 -1.5 4t-0.5 8.5t0.5 8t1.5 3.5h58q5 0 5 4v281q0 53 -14 77.5t-42 24.5q-46 0 -74 -23t-46 -80v-280q0 -4 6 -4h59q1 0 1.5 -3.5t0.5 -8t-0.5 -8.5t-1.5 -4h-249q-1 0 -1 4v8.5v8t1 3.5h58q8 0 8 4v370q0 4 -8 4h-58q-1 0 -1 4v8.5v8t1 3.5h181q3 0 3 -3v-66 q14 42 49 60t71 18q82 0 128.5 -43.5t46.5 -123.5v-240q0 -4 7 -4h58q1 0 1.5 -3.5t0.5 -8t-0.5 -8.5t-1.5 -4h-247z"/>
<glyph glyph-name="o" horiz-adv-x="531" unicode="o" d="M363 213q0 72 -8 114.5t-28 62.5q-12 13 -27.5 17t-35.5 4q-17 0 -32.5 -4t-28.5 -17q-19 -20 -27 -62.5t-8 -114.5q0 -41 2 -70t6 -49.5t11 -34t16 -23.5q13 -13 28.5 -17t32.5 -4q20 0 35.5 4t27.5 17q10 10 16.5 23.5t11 34t6.5 49.5t2 70zM487 213q0 -46 -17.5 -86.5 t-48 -70.5t-71 -47.5t-86.5 -17.5q-45 0 -85 17.5t-70 47.5t-47.5 70.5t-17.5 86.5t17.5 86.5t47.5 70.5t70 47.5t85 17.5q46 0 86.5 -17.5t71 -47.5t48 -70.5t17.5 -86.5z"/>
<glyph glyph-name="p" horiz-adv-x="573" unicode="p" d="M403 211q0 71 -7 116t-28 64q-12 12 -25.5 16t-34.5 4q-14 0 -30 -4t-30.5 -11.5t-25 -18t-13.5 -24.5v-268q8 -18 21.5 -31t30 -21.5t34 -13t32.5 -4.5q10 0 15.5 1t9 3.5t7 6l9.5 9.5q21 20 28 63t7 113zM529 211q0 -42 -14.5 -81t-40.5 -70t-63.5 -49.5t-83.5 -18.5 q-32 0 -65.5 15.5t-52.5 34.5v-323q0 -4 8 -4h58q1 0 1.5 -3.5t0.5 -8t-0.5 -8t-1.5 -3.5h-249q-1 0 -1 3.5v8v8t1 3.5h59q8 0 8 4v681q0 4 -8 4h-59q-2 0 -2 11t2 11h180q3 0 3 -0.5v-1.5v-34q14 17 41.5 31t57.5 14q46 0 86 -19.5t70 -51t47.5 -71.5t17.5 -82z"/>
<glyph glyph-name="q" horiz-adv-x="548" unicode="q" d="M363 355q-3 13 -13 23t-24 17.5t-30 11.5t-31 4q-20 0 -33.5 -4t-26.5 -16q-20 -18 -28.5 -63.5t-8.5 -116.5q0 -70 8.5 -113t28.5 -63q13 -11 23.5 -15.5t31.5 -4.5q24 0 43 10t32.5 25t20.5 32t7 31v242zM299 -306q-2 0 -2 10.5t2 10.5h58q6 0 6 4v338 q-22 -33 -47.5 -49t-68.5 -16q-46 0 -83.5 18.5t-64 49.5t-41 70t-14.5 81t17.5 82.5t47.5 72t70 50.5t86 19q26 0 54.5 -11.5t43.5 -33.5v36h3h182q2 0 2 -10.5t-2 -10.5h-59q-5 0 -6.5 -2t-1.5 -3v-681q0 -4 8 -4h59q2 0 2 -10.5t-2 -10.5h-249z"/>
<glyph glyph-name="r" horiz-adv-x="432" unicode="r" d="M417 339q0 -38 -16.5 -54.5t-42.5 -16.5q-29 0 -43.5 12.5t-14.5 31.5q0 11 2.5 17.5t5 12t5 10.5t2.5 14q0 16 -8.5 26t-22.5 10q-9 0 -18.5 -3.5t-18.5 -15t-18 -34t-18 -60.5v-261q0 -2 0.5 -3t5.5 -1h56q2 0 3 -3.5t1 -8t-1 -8.5t-3 -4h-246q-1 0 -1.5 4t-0.5 8.5 t0.5 8t1.5 3.5h58q8 0 8 4v370q0 4 -8 4h-58q-1 0 -1.5 4t-0.5 8.5t0.5 8t1.5 3.5h181q1 0 2 -1t1 -2v-66q9 26 21 41.5t25 23.5t27.5 10.5t29.5 2.5q25 0 44.5 -9t32.5 -23t19.5 -31t6.5 -33z"/>
<glyph glyph-name="s" horiz-adv-x="405" unicode="s" d="M377 140q0 -30 -11 -57.5t-32 -47.5t-50.5 -32t-67.5 -12q-25 0 -39.5 4t-24.5 9.5t-18 9.5t-21 4q-14 0 -25 -7t-13 -12q-1 -2 -12 -2t-10 2l5 154q0 2 11 2t11 -5q0 -58 36.5 -96.5t99.5 -38.5q45 0 69 19t24 64q0 18 -7 29.5t-21.5 19.5t-38 14.5t-56.5 14.5 q-60 12 -92 39.5t-32 79.5q0 35 12 61t31 43.5t43 26.5t49 9q22 0 34.5 -2.5t21 -5.5t14.5 -5.5t16 -2.5q8 0 15 7.5t7 9.5q2 2 13 2t11 -2v-124q0 -1 -3.5 -1h-8h-8.5t-4 1q0 21 -10 39t-25.5 31.5t-34.5 21t-38 7.5q-34 0 -55 -13.5t-21 -55.5q0 -18 8 -28.5t23.5 -18 t38.5 -14t53 -14.5q26 -6 49.5 -17t42.5 -27t30 -37t11 -46z"/>
<glyph glyph-name="t" horiz-adv-x="335" unicode="t" d="M287 19.5q-36 -28.5 -84 -28.5q-56 0 -79.5 24.5t-23.5 73.5v309q0 4 -7 4h-74q-1 0 -1 4v8.5v8t1 3.5h74q7 0 7 4v84q17 2 33 11.5t28.5 23t20.5 28t11 25.5q2 1 12 1q5 0 10 -1v-172q0 -4 10 -4h87q1 0 1.5 -3.5t0.5 -8t-0.5 -8.5t-1.5 -4h-87q-10 0 -10 -4v-343 q0 -14 9.5 -21.5t24.5 -7.5q21 0 35.5 18t24.5 46q1 0 7 -4q8 -4 7 -7q0 -31 -36 -59.5zM309 90v0v0z"/>
<glyph glyph-name="u" horiz-adv-x="582" unicode="u" d="M383 0q-4 0 -4 3v66q-14 -42 -49 -60t-72 -18q-80 0 -126.5 40t-46.5 120v247q0 4 -8 4h-59v4v8v8v4h182q3 0 3 -3v-306q0 -54 14.5 -78.5t40.5 -24.5q48 0 75.5 23.5t45.5 80.5v280q0 4 -7 4h-57q-1 0 -2 4t-1 8.5t1 8t2 3.5h180q3 0 3 -3v-395q0 -4 7 -4h58 q1 0 1.5 -3.5t0.5 -8t-0.5 -8.5t-1.5 -4h-180z"/>
<glyph glyph-name="v" horiz-adv-x="483" unicode="v" d="M448 402q-6 0 -10.5 -6.5t-15.5 -35.5l-143 -368q-1 -2 -12.5 -2t-12.5 2l-198 407q-1 3 -8 3h-59q-1 0 -1.5 4t-0.5 8.5t0.5 8t1.5 3.5h269q2 0 3 -3.5t1 -8t-1 -8.5t-3 -4h-63q-8 0 -7 -3l117 -275l94 236q12 29 12.5 35.5t-5.5 6.5h-58q-1 0 -1.5 4t-0.5 8.5t0.5 8 t1.5 3.5h163q2 0 2.5 -3.5t0.5 -8t-0.5 -8.5t-2.5 -4h-63z"/>
<glyph glyph-name="w" horiz-adv-x="755" unicode="w" d="M729 402q-5 0 -9.5 -6.5t-15.5 -35.5l-139 -368q0 -2 -11.5 -2t-12.5 2l-156 333l-124 -333q-1 -2 -12 -2t-12 2l-190 407q-2 2 -3 2.5t-5 0.5h-61q-1 0 -1.5 4t-0.5 8.5t0.5 8t1.5 3.5h263q1 0 1.5 -3.5t0.5 -8t-0.5 -8.5t-1.5 -4h-60q-7 0 -6 -3l116 -264l82 218 l-22 46q-1 3 -10 3h-50q-1 0 -2 4t-1 8.5t1 8t2 3.5h253q1 0 1.5 -3.5t0.5 -8t-0.5 -8.5t-1.5 -4h-60q-6 0 -5 -3l117 -261l85 222q11 29 11 35.5t-5 6.5h-59q-1 0 -2 4t-1 8.5t1 8t2 3.5h163q1 0 1.5 -3.5t0.5 -8t-0.5 -8.5t-1.5 -4h-62z"/>
<glyph glyph-name="x" horiz-adv-x="533" unicode="x" d="M276 0q-1 0 -2 4t-1 8.5t1 8t2 3.5h59q8 0 4 2l-111 160l-99 -120q-23 -29 -26 -35.5t3 -6.5h55q1 0 1.5 -3.5t0.5 -8t-0.5 -8.5t-1.5 -4h-149q-1 0 -1 4v8.5v8t1 3.5h50q3 0 6 1t7.5 5t11.5 12.5t19 23.5l111 135l-137 198q-3 3 -10 3h-66q-1 0 -1 4v8.5v8t1 3.5h283 q1 0 1.5 -3.5t0.5 -8t-0.5 -8.5t-1.5 -4h-68q-8 0 -5 -3l93 -134l74 95q12 15 17.5 23t7 12.5t1 5.5t-2.5 1h-51q-1 0 -1.5 4t-0.5 8.5t0.5 8t1.5 3.5h150l1 -4v-8v-8l-1 -4h-55q-7 0 -14 -6.5t-30 -35.5l-88 -109l158 -225q2 -2 8 -2h66v-4v-8v-8v-4h-272z"/>
<glyph glyph-name="y" horiz-adv-x="464" unicode="y" d="M437 404q-6 0 -10.5 -7t-15.5 -36l-233 -597q-17 -45 -44 -63t-59 -18q-16 0 -30 7t-24.5 19t-16.5 27.5t-6 31.5q0 26 16 44.5t41 18.5q23 0 36 -12.5t13 -29.5q0 -9 -3.5 -15.5t-8 -13t-8.5 -13t-4 -15.5q0 -8 1.5 -15.5t10.5 -7.5q6 0 13.5 1t16 6t17 15.5t16.5 30.5 l89 228l-199 409q-1 2 -2 3.5t-6 1.5h-59q-2 0 -2 11t2 11h269q4 0 4 -11t-4 -11h-63q-7 0 -5 -5l116 -275l93 238q12 29 12.5 35.5t-5.5 6.5h-58q-2 0 -2 11t2 11h163q3 0 3 -11t-3 -11h-63z"/>
<glyph glyph-name="z" horiz-adv-x="448" unicode="z" d="M414 3q0 -3 -3 -3h-369q-5 0 -5 3q0 2 2 4l235 392q3 3 -5 3h-58q-37 0 -60 -8t-36 -23.5t-17.5 -37.5t-4.5 -51q0 -2 -11 -2t-11 2v141q0 3 3 3h333q3 0 1 -7l-234 -393q-6 -2 3 -2h82q42 0 68 9.5t40.5 27t19.5 42.5t5 55q0 2 11 2t11 -2v-155z"/>
<glyph glyph-name="braceleft" horiz-adv-x="270" unicode="{" d="M244 -244q-42 0 -76 15.5t-57.5 43t-36.5 66t-13 84.5q0 39 12.5 73t27 63l27 54t12.5 46q0 11 -4 20.5t-12 11.5q-4 2 -9 2q-8 0 -12.5 -1.5t-11.5 -1.5q-3 0 -5 6.5t-2 8.5t2 8t5 6q7 0 11.5 -1t12.5 -1h9q8 4 12 13t4 20q0 21 -12.5 46.5t-27 54.5t-27 62.5 t-12.5 72.5q0 46 13 84.5t36.5 66t57.5 43t76 15.5h26q1 0 1.5 -3.5t0.5 -8t-0.5 -8t-1.5 -3.5h-26q-24 0 -40.5 -6t-26.5 -22t-14 -44t-4 -72q0 -27 3 -58t7 -63.5t7 -64t3 -60.5q0 -11 -0.5 -23t-4 -23t-10.5 -19t-20 -12q13 -4 20 -12.5t10.5 -19.5t4 -23t0.5 -23 q0 -28 -3 -60t-7 -64t-7 -63.5t-3 -58.5q0 -44 4 -72t14 -43.5t26.5 -21.5t40.5 -6h26q1 0 1.5 -4t0.5 -8.5t-0.5 -8t-1.5 -3.5h-26z"/>
<glyph glyph-name="bar" horiz-adv-x="147" unicode="|" d="M87 -23q0 -1 -3.5 -1.5t-8 -0.5t-8.5 0.5t-4 1.5v778q0 1 4 1.5t8.5 0.5t8 -0.5t3.5 -1.5v-778z"/>
<glyph glyph-name="braceright" horiz-adv-x="270" unicode="}" d="M211 -35q0 -46 -13 -84.5t-37 -66t-58 -43t-76 -15.5h-27q-1 0 -1.5 3.5t-0.5 8t0.5 8.5t1.5 4h27q24 0 40 6t26 21.5t14.5 43.5t4.5 72q0 27 -3.5 58.5t-7.5 63.5t-7.5 64t-3.5 60q0 11 0.5 23t4 23t11 19.5t20.5 12.5q-13 4 -20.5 12t-11 19t-4 23t-0.5 23 q0 29 3.5 60.5t7.5 64t7.5 63.5t3.5 58q0 44 -4.5 72t-14.5 44t-26 22t-40 6h-27q-1 0 -1.5 3.5t-0.5 8t0.5 8t1.5 3.5h27q42 0 76 -15.5t58 -43t37 -66t13 -84.5q0 -39 -12.5 -72.5t-28 -62.5t-28 -54.5t-12.5 -46.5q0 -11 3.5 -20t11.5 -13h11q7 0 11.5 1t11.5 1 q2 0 4.5 -6t2.5 -8t-2.5 -8.5t-4.5 -6.5q-7 0 -11.5 1.5t-11.5 1.5q-5 0 -11 -2q-8 -2 -11.5 -11.5t-3.5 -20.5q0 -21 12.5 -46t28 -54t28 -63t12.5 -73z"/>
<glyph glyph-name="asciitilde" horiz-adv-x="382" unicode="~" d="M368 414q0 -24 -10 -45t-26.5 -37t-39 -25t-46.5 -9q-27 0 -50.5 6.5t-44.5 15t-40 15t-37 6.5q-39 0 -39 -47q0 -1 -3.5 -1h-8h-8.5t-4 1q0 24 10 45t27 37t39.5 25t47.5 9q27 0 50 -6.5t43.5 -14.5t39.5 -14.5t37 -6.5q41 0 41 46q0 2 11 2t11 -2z"/>
<glyph glyph-name="exclamdown" horiz-adv-x="221" unicode="¡" d="M194 -204q0 -25 -6.5 -41t-17 -25.5t-23.5 -13.5t-26 -4t-26 4t-23.5 13.5t-17 25.5t-6.5 41q0 33 9.5 84t21.5 112t21.5 128.5t9.5 133.5q0 2 11 2t11 -2q0 -66 9.5 -133.5t21.5 -128.5t21.5 -112t9.5 -84zM187 384q0 -29 -19 -49.5t-47 -20.5q-27 0 -47 20.5t-20 49.5 q0 27 20 47t47 20q28 0 47 -20t19 -47z"/>
<glyph glyph-name="cent" horiz-adv-x="479" unicode="¢" d="M270 413q-20 -1 -35.5 -5t-29.5 -18q-10 -10 -16.5 -23.5t-10.5 -34t-6 -49.5t-2 -70t2 -70t6 -49.5t10.5 -34t16.5 -23.5q14 -14 29.5 -18t35.5 -5v400zM452 86q-26 -38 -69.5 -63t-89.5 -31v-70q0 -1 -3.5 -1.5t-8 -0.5t-8 0.5t-3.5 1.5v67q-46 0 -87 18t-72 48.5 t-48.5 71t-17.5 86.5q0 47 17.5 87.5t48.5 70.5t72 47.5t87 17.5v68q0 1 3.5 1.5t8 0.5t8 -0.5t3.5 -1.5v-70q31 -4 57.5 -17.5t45.5 -30.5t29.5 -36.5t10.5 -37.5q0 -26 -14 -37t-34 -11q-23 0 -35 11t-12 27q0 11 2 16t4.5 10t4.5 11.5t2 18.5q0 25 -17 37t-44 16v-396 q47 6 87 28.5t62 55.5q1 1 6 -4t5 -8z"/>
<glyph glyph-name="sterling" horiz-adv-x="609" unicode="£" d="M169 37q-25 8 -48 15.5t-35 7.5q-22 0 -30 -4.5t-8 -15.5q0 -20 17 -27.5t31 -7.5t33 7.5t40 24.5zM590 126q-2 -25 -16 -50.5t-39 -46t-61 -33.5t-81 -13q-31 0 -55.5 4.5t-47 11.5t-44 16t-47.5 18q-29 -26 -56.5 -38t-56.5 -12q-9 0 -19.5 2.5t-20 8.5t-16 15.5 t-6.5 24.5t10 30t27.5 27t40.5 19t49 7q32 0 56.5 -1.5t45.5 -3.5q2 14 3.5 26.5t1.5 26.5q0 19 -6 39t-15 42t-20 45.5t-21 49.5h-74q-2 0 -2 11t2 11h71q-12 34 -21 61t-9 58q0 46 17.5 89.5t48.5 78t73 55.5t91 21q27 0 51.5 -12t42.5 -30.5t29 -40.5t11 -41 q0 -23 -20 -42.5t-46 -19.5q-32 0 -45.5 13.5t-13.5 33.5q0 11 4.5 18.5t9.5 14.5t9.5 15.5t4.5 20.5q0 17 -12.5 30.5t-43.5 13.5q-22 0 -38.5 -8t-27.5 -27.5t-16 -51t-5 -78.5q0 -21 3 -40t7.5 -39t10 -42.5t9.5 -50.5h97q2 0 2 -11t-2 -11h-97q3 -24 5 -45.5t2 -52.5 q0 -30 -18 -65t-38 -68q31 -7 52.5 -14.5t45.5 -13.5t55.5 -9.5t82.5 -3.5q26 0 43 18.5t21 40.5q0 2 11 1t11 -3z"/>
<glyph glyph-name="yen" horiz-adv-x="612" unicode="¥" d="M580 685q-5 0 -12.5 -6.5t-22.5 -35.5l-133 -261h179q2 0 2.5 -3.5t0.5 -8t-0.5 -8t-2.5 -3.5h-189l-17 -33v-76h206q2 0 2.5 -3.5t0.5 -8t-0.5 -8.5t-2.5 -4h-206v-198q0 -4 6 -4h96q1 0 1.5 -3.5t0.5 -8t-0.5 -8.5t-1.5 -4h-333q-1 0 -1 4v8.5v8t1 3.5h96q7 0 7 4v198 h-207v4v8v8v4h207v52l-33 57h-174v3v8v8v4h162l-167 299q-2 4 -8 4h-110q-1 0 -1.5 4t-0.5 8.5t0.5 8t1.5 3.5h380q1 0 1.5 -3.5t0.5 -8t-0.5 -8.5t-1.5 -4h-105q-5 0 -3 -4l180 -320l145 282q13 29 15.5 35.5t-2.5 6.5h-107q-1 0 -1.5 4t-0.5 8.5t0.5 8t1.5 3.5h239 q2 0 3 -3.5t1 -8t-1 -8.5t-3 -4h-89z"/>
<glyph glyph-name="section" horiz-adv-x="557" unicode="§" d="M465 146q0 44 -31 73t-77 53t-97.5 48.5t-92.5 58.5q-35 -23 -54.5 -48t-19.5 -51q0 -43 31.5 -72t77.5 -53t98.5 -48.5t93.5 -58.5q30 23 50.5 47.5t20.5 50.5zM509 231q0 -29 -3.5 -53.5t-14.5 -47t-31.5 -45t-54.5 -48.5q29 -26 48 -57.5t19 -73.5q0 -46 -15.5 -86.5 t-44.5 -71t-69.5 -48t-91.5 -17.5q-52 0 -88.5 16t-60 40t-34.5 52t-11 51q0 26 15 38t35 12q23 0 38 -11.5t15 -31.5q0 -13 -7.5 -22.5t-7.5 -29.5q0 -17 3 -33.5t13.5 -29t32 -20t57.5 -7.5q66 0 108.5 27.5t42.5 92.5q0 45 -26 75t-65.5 52.5t-85.5 42.5t-85.5 46 t-65.5 62t-26 91q0 59 23.5 107.5t80.5 86.5q-29 26 -46.5 57.5t-17.5 73.5q0 46 15.5 86.5t44 71t69 48t91.5 17.5q45 0 77.5 -14.5t52.5 -36t29.5 -47t9.5 -47.5q0 -26 -14 -38t-34 -12q-23 0 -37 11.5t-14 31.5q0 13 6.5 22.5t6.5 29.5q0 15 -1 29t-8.5 24.5t-24.5 16.5 t-49 6t-60 -6.5t-48.5 -21t-32 -37.5t-11.5 -55q0 -45 26 -75t65.5 -52.5t85 -42.5t85 -46t65.5 -62t26 -91z"/>
<glyph glyph-name="dieresis" horiz-adv-x="451" unicode="¨" d="M172 595q0 -23 -17 -38.5t-37 -15.5q-24 0 -39.5 15.5t-15.5 38.5t15.5 38.5t39.5 15.5q20 0 37 -15.5t17 -38.5zM390 595q0 -23 -16 -38.5t-38 -15.5q-23 0 -40 15.5t-17 38.5t17 38.5t40 15.5q22 0 38 -15.5t16 -38.5z"/>
<glyph glyph-name="copyright" horiz-adv-x="822" unicode="©" d="M558 138q-2 -1 -11.5 -1t-10.5 1q-1 5 -7.5 11.5t-18.5 6.5q-10 0 -22.5 -3t-26.5 -6.5t-27.5 -6.5t-25.5 -3q-41 0 -75.5 18t-60 48.5t-39.5 71t-14 85.5t14 85t38.5 71t59 49t74.5 18q20 0 46 -8.5t46 -8.5q11 0 18.5 5t9.5 10q0 1 10 1t12 -1v-151q-2 -1 -12 -1t-10 1 q0 22 -11 45t-28 41.5t-38.5 30.5t-42.5 12q-20 0 -33.5 -4.5t-24.5 -16.5q-21 -20 -27.5 -63t-6.5 -115q0 -73 6.5 -116t27.5 -63q11 -13 26 -17.5t35 -4.5q26 0 49 12t40.5 32.5t28 47t10.5 56.5q0 1 10 1t12 -1v-169zM741 354q0 72 -26 135t-71 110t-105 74t-128 27 t-128 -27t-105 -74t-71 -110t-26 -135t26 -135t71 -110t105 -74t128 -27t128 27t105 74t71 110t26 135zM766 354q0 -77 -28 -144.5t-76.5 -118t-113 -79.5t-137.5 -29t-138 29t-113.5 79.5t-76.5 118t-28 144.5t28 145t76.5 118.5t113.5 79.5t138 29t137.5 -29t113 -79.5 t76.5 -118.5t28 -145z"/>
<glyph glyph-name="ordfeminine" horiz-adv-x="371" unicode="ª" d="M208 558q-14 -12 -48 -14q-14 -1 -20.5 -14t-6.5 -61q0 -32 6 -42.5t22 -10.5q21 0 34 16t13 27v99zM367 424q-4 -9 -22.5 -22t-50.5 -13q-21 0 -40 10t-29 33q-17 -23 -33.5 -33t-51.5 -10q-20 0 -39.5 5t-35 14.5t-25 24.5t-9.5 36q0 30 13 48.5t31 29t36.5 15 t29.5 4.5q31 2 49 8.5t18 17.5v55q0 35 -6.5 46t-26.5 11q-23 0 -34 -5.5t-11 -19.5q0 -13 3.5 -20t3.5 -18q0 -14 -7 -25t-27 -11q-24 0 -34.5 13.5t-10.5 31.5q0 13 10 26.5t26 24.5t37.5 18t43.5 7q30 0 54.5 -5t42 -18.5t27 -36t9.5 -58.5v-162q0 -14 4.5 -20t10.5 -6 q10 0 16 5t9 13q0 1 3.5 -1t7 -4.5t6 -5t2.5 -3.5z"/>
<glyph glyph-name="guillemotleft" horiz-adv-x="397" unicode="«" d="M186 51q0 -2 -4 -3t-8.5 -1t-8.5 1t-4 3q0 29 -17 56t-39.5 48t-44.5 36t-32 20q-1 1 -1 2t1 2q10 5 32 20t44.5 36t39.5 48t17 56q0 2 4 3t8.5 1t8.5 -1t4 -3q0 -24 -4.5 -48t-12 -46t-17.5 -39.5t-20 -28.5q10 -10 20 -28t17.5 -40t12 -46.5t4.5 -47.5zM355 51 q0 -2 -4 -3t-9 -1t-9 1t-4 3q0 29 -17 56t-39.5 48t-44.5 36t-32 20v4q10 5 32 20t44.5 36t39.5 48t17 56q0 2 4 3t9 1t9 -1t4 -3q0 -24 -5 -48t-13 -46t-17.5 -39.5t-19.5 -28.5q10 -10 19.5 -28t17.5 -40t13 -46.5t5 -47.5z"/>
<glyph glyph-name="registered" horiz-adv-x="822" unicode="®" d="M464 466q0 28 -2.5 44.5t-10 24.5t-20.5 10.5t-33 2.5h-21q-4 0 -4 -2v-176h27q21 0 33.5 4t19.5 15t9 29.5t2 47.5zM638 158q-9 -10 -21 -15.5t-32 -5.5q-18 0 -36.5 6t-33.5 20t-25 36t-10 54v19q0 40 -20.5 57t-59.5 17h-27v-173q0 -2 4 -2h41v-24h-184v4v9v8v3h50 q1 0 2 1q2 0 2 1v373q0 1 -2 2h-2h-50v4v8v8v4h180q63 0 99 -29.5t36 -74.5q0 -21 -7.5 -40.5t-21.5 -35t-35 -24.5t-48 -9q37 0 61.5 -8.5t39.5 -23t21.5 -34t6.5 -41.5v-54q0 -23 9.5 -31t22.5 -8q9 0 17 5.5t13 11.5q1 1 6 -8.5t4 -9.5zM741 354q0 72 -26 135t-71 110 t-105 74t-128 27t-128 -27t-105 -74t-71 -110t-26 -135t26 -135t71 -110t105 -74t128 -27t128 27t105 74t71 110t26 135zM766 354q0 -77 -28 -144.5t-76.5 -118t-113 -79.5t-137.5 -29t-138 29t-113.5 79.5t-76.5 118t-28 144.5t28 145t76.5 118.5t113.5 79.5t138 29 t137.5 -29t113 -79.5t76.5 -118.5t28 -145z"/>
<glyph glyph-name="macron" horiz-adv-x="376" unicode="¯" d="M4 597q-1 0 -1 5v10.5v10.5t1 5h365q1 0 1.5 -5t0.5 -10.5t-0.5 -10.5t-1.5 -5h-365z"/>
<glyph glyph-name="degree" horiz-adv-x="267" unicode="°" d="M191 636q0 22 -17 37.5t-40 15.5t-39.5 -15.5t-16.5 -37.5t16.5 -37.5t39.5 -15.5t40 15.5t17 37.5zM216 636q0 -32 -23.5 -54.5t-58.5 -22.5q-33 0 -57 22.5t-24 54.5t24 54.5t57 22.5q35 0 58.5 -22.5t23.5 -54.5z"/>
<glyph glyph-name="acute" horiz-adv-x="333" unicode="´" d="M286 686q0 -19 -10.5 -42t-39.5 -46t-80.5 -45t-133.5 -41q-2 0 -2 12v6q0 5 1 6q59 13 93 44t55.5 63.5t37.5 57t39 24.5q18 0 29 -11t11 -28z"/>
<glyph glyph-name="paragraph" horiz-adv-x="605" unicode="¶" d="M473 681q0 4 -7 4h-52q-5 0 -5 -4v-653q0 -4 5 -4h52q7 0 7 4v653zM357 0q-64 0 -120 28t-98 76t-66.5 112.5t-24.5 137.5q0 74 24.5 138.5t66.5 112.5t98 76t120 28h210q1 0 1.5 -3.5t0.5 -8t-0.5 -8.5t-1.5 -4h-66q-5 0 -5 -4v-653q0 -4 5 -4h66q1 0 1.5 -3.5t0.5 -8 t-0.5 -8.5t-1.5 -4h-210z"/>
<glyph glyph-name="periodcentered" horiz-adv-x="172" unicode="·" d="M176 354q0 -29 -18 -47.5t-47 -18.5q-26 0 -43 18.5t-17 47.5q0 26 17 43t43 17q29 0 47 -17t18 -43z"/>
<glyph glyph-name="cedilla" horiz-adv-x="273" unicode="¸" d="M200 -140q0 -34 -18.5 -57.5t-57.5 -23.5q-48 0 -65.5 21t-17.5 44q0 10 7.5 17.5t19.5 7.5q9 0 16.5 -4.5t7.5 -15.5q0 -12 -6 -15t-6 -11q0 -10 12 -15t32 -5q48 0 48 33q0 13 -11 20t-23.5 14.5t-23.5 20.5t-11 39q0 19 8.5 39t15.5 30q1 1 2 1q3 0 9.5 -3t6.5 -5 q-4 -5 -7 -12t-3 -9q0 -25 10 -34.5t22.5 -16.5t22.5 -19t10 -41z"/>
<glyph glyph-name="ordmasculine" horiz-adv-x="401" unicode="º" d="M251 558q0 53 -3 84t-15 45q-5 10 -14 13.5t-20 3.5q-9 0 -17.5 -3.5t-15.5 -13.5q-10 -14 -13.5 -45t-3.5 -84q0 -60 3.5 -87.5t13.5 -41.5q7 -11 15.5 -13.5t17.5 -2.5q11 0 20 2.5t14 13.5q12 14 15 41.5t3 87.5zM362 558q0 -35 -13 -65.5t-35 -53.5t-52 -36.5 t-63 -13.5q-32 0 -61 13.5t-51 36.5t-35 53.5t-13 65.5t13 65.5t35 53.5t51 36t61 13q33 0 63 -13t52 -36t35 -53.5t13 -65.5z"/>
<glyph glyph-name="guillemotright" horiz-adv-x="397" unicode="»" d="M201 211q-9 -5 -31 -20t-44.5 -36t-40 -48t-17.5 -56q0 -2 -4 -3t-8.5 -1t-8.5 1t-4 3q0 23 5 47.5t12.5 46.5t17 40t19.5 28q-10 11 -19.5 28.5t-17 39.5t-12.5 46t-5 48q0 2 4 3t8.5 1t8.5 -1t4 -3q0 -29 17.5 -56t40 -48t44.5 -36t31 -20q2 -2 0 -4zM369 211 q-10 -5 -32 -20t-44.5 -36t-39.5 -48t-17 -56q0 -2 -4 -3t-8.5 -1t-8.5 1t-4 3q0 23 4.5 47.5t12 46.5t17.5 40t20 28q-10 11 -20 28.5t-17.5 39.5t-12 46t-4.5 48q0 2 4 3t8.5 1t8.5 -1t4 -3q0 -29 17 -56t39.5 -48t44.5 -36t32 -20q1 -1 1 -2t-1 -2z"/>
<glyph glyph-name="questiondown" horiz-adv-x="399" unicode="¿" d="M442 -117q0 -26 -18 -56t-46.5 -55.5t-65 -42.5t-72.5 -17q-49 0 -91 15t-73 42.5t-48 66t-17 84.5t15.5 86t41.5 70t60 47t72 17q12 0 28 -2.5t31 -9.5v126q0 2 11 2t11 -2v-167q0 -2 0.5 -2.5t0.5 -1.5q0 -4 -5 -2q-11 20 -34.5 27.5t-42.5 7.5q-31 0 -42 -18 q-6 -6 -9 -14t-4.5 -26t-1.5 -50.5v-87.5q0 -40 1.5 -67t5.5 -45t10 -30t16 -22q11 -11 27.5 -15.5t36.5 -4.5q39 0 63 21.5t24 62.5q0 16 -3 24.5t-6 15.5t-6 14.5t-3 21.5q0 21 18 37.5t49 16.5q29 0 47.5 -16.5t18.5 -50.5zM336 384q0 -29 -19 -49.5t-47 -20.5 q-29 0 -48 20.5t-19 49.5q0 27 19 47t48 20q28 0 47 -20t19 -47z"/>
<glyph glyph-name="Agrave" horiz-adv-x="634" unicode="À" d="M263 537l-97 -287h189zM341 0q-1 0 -1 4v8.5v8t1 3.5h82q2 0 3.5 1t0.5 1l-64 200h-205l-56 -160q-8 -27 -9.5 -34.5t1.5 -7.5h80q1 0 1.5 -3.5t0.5 -8t-0.5 -8.5t-1.5 -4h-194q-1 0 -1.5 4t-0.5 8.5t0.5 8t1.5 3.5h76q7 0 10.5 6.5t13.5 35.5l226 657q1 2 11.5 2 t11.5 -2l250 -697q1 -1 2 -1q3 -1 5 -1h86q1 0 1.5 -3.5t0.5 -8t-0.5 -8.5t-1.5 -4h-331zM374 791q2 -1 2 -8q0 -16 -3 -16q-82 19 -133.5 41t-80.5 45t-40 46t-11 42q0 17 11 28t29 11q23 0 39 -24.5t38 -57t56 -63.5t93 -44z"/>
<glyph glyph-name="Aacute" horiz-adv-x="634" unicode="Á" d="M263 537l-97 -287h189zM341 0q-1 0 -1 4v8.5v8t1 3.5h82q2 0 3.5 1t0.5 1l-64 200h-205l-56 -160q-8 -27 -9.5 -34.5t1.5 -7.5h80q1 0 1.5 -3.5t0.5 -8t-0.5 -8.5t-1.5 -4h-194q-1 0 -1.5 4t-0.5 8.5t0.5 8t1.5 3.5h76q7 0 10.5 6.5t13.5 35.5l226 657q1 2 11.5 2 t11.5 -2l250 -697q1 -1 2 -1q3 -1 5 -1h86q1 0 1.5 -3.5t0.5 -8t-0.5 -8.5t-1.5 -4h-331zM550 941q0 -19 -10.5 -42t-39.5 -46t-80.5 -45t-133.5 -41q-2 0 -2 12v6q0 5 1 6q59 13 93 44t55.5 63.5t37.5 57t39 24.5q18 0 29 -11t11 -28z"/>
<glyph glyph-name="Acircumflex" horiz-adv-x="634" unicode="Â" d="M263 537l-97 -287h189zM341 0q-1 0 -1 4v8.5v8t1 3.5h82q2 0 3.5 1t0.5 1l-64 200h-205l-56 -160q-8 -27 -9.5 -34.5t1.5 -7.5h80q1 0 1.5 -3.5t0.5 -8t-0.5 -8.5t-1.5 -4h-194q-1 0 -1.5 4t-0.5 8.5t0.5 8t1.5 3.5h76q7 0 10.5 6.5t13.5 35.5l226 657q1 2 11.5 2 t11.5 -2l250 -697q1 -1 2 -1q3 -1 5 -1h86q1 0 1.5 -3.5t0.5 -8t-0.5 -8.5t-1.5 -4h-331zM483 778l1 -1q0 -2 -5 -7.5t-7 -5.5h-1l-145 96l-136 -96h-1q-2 0 -6 5q-4 6 -4 8q-1 2 83 92q38 42 67 81q0 1 1.5 1t2.5 -1q26 -39 65 -81.5t85 -90.5z"/>
<glyph glyph-name="Atilde" horiz-adv-x="634" unicode="Ã" d="M522 919q0 -24 -10 -45t-26.5 -37t-39 -25t-46.5 -9q-27 0 -50.5 6.5t-44.5 15t-40 15t-37 6.5q-39 0 -39 -47q0 -1 -3.5 -1h-8h-8.5t-4 1q0 24 10 45t27 37t39.5 25t47.5 9q27 0 50 -6.5t43.5 -14.5t39.5 -14.5t37 -6.5q41 0 41 46q0 2 11 2t11 -2zM263 537l-97 -287 h189zM341 0q-1 0 -1 4v8.5v8t1 3.5h82q2 0 3.5 1t0.5 1l-64 200h-205l-56 -160q-8 -27 -9.5 -34.5t1.5 -7.5h80q1 0 1.5 -3.5t0.5 -8t-0.5 -8.5t-1.5 -4h-194q-1 0 -1.5 4t-0.5 8.5t0.5 8t1.5 3.5h76q7 0 10.5 6.5t13.5 35.5l226 657q1 2 11.5 2t11.5 -2l250 -697q1 -1 2 -1 q3 -1 5 -1h86q1 0 1.5 -3.5t0.5 -8t-0.5 -8.5t-1.5 -4h-331z"/>
<glyph glyph-name="Adieresis" horiz-adv-x="634" unicode="Ä" d="M263 537l-97 -287h189zM341 0q-1 0 -1 4v8.5v8t1 3.5h82q2 0 3.5 1t0.5 1l-64 200h-205l-56 -160q-8 -27 -9.5 -34.5t1.5 -7.5h80q1 0 1.5 -3.5t0.5 -8t-0.5 -8.5t-1.5 -4h-194q-1 0 -1.5 4t-0.5 8.5t0.5 8t1.5 3.5h76q7 0 10.5 6.5t13.5 35.5l226 657q1 2 11.5 2 t11.5 -2l250 -697q1 -1 2 -1q3 -1 5 -1h86q1 0 1.5 -3.5t0.5 -8t-0.5 -8.5t-1.5 -4h-331zM276 850q0 -23 -17 -38.5t-37 -15.5q-24 0 -39.5 15.5t-15.5 38.5t15.5 38.5t39.5 15.5q20 0 37 -15.5t17 -38.5zM494 850q0 -23 -16 -38.5t-38 -15.5q-23 0 -40 15.5t-17 38.5 t17 38.5t40 15.5q22 0 38 -15.5t16 -38.5z"/>
<glyph glyph-name="Aring" horiz-adv-x="634" unicode="Å" d="M263 537l-97 -287h189zM373 795q0 22 -17 37.5t-40 15.5t-40 -15.5t-17 -37.5t17 -37.5t40 -15.5t40 15.5t17 37.5zM341 0q-1 0 -1 4v8.5v8t1 3.5h82q2 0 3.5 1t0.5 1l-64 200h-205l-56 -160q-8 -27 -9.5 -34.5t1.5 -7.5h80q1 0 1.5 -3.5t0.5 -8t-0.5 -8.5t-1.5 -4h-194 q-1 0 -1.5 4t-0.5 8.5t0.5 8t1.5 3.5h76q7 0 10.5 6.5t13.5 35.5l224 653q-29 4 -49.5 25.5t-20.5 50.5q0 32 25 54.5t57 22.5q35 0 58 -22.5t23 -54.5q0 -28 -18.5 -49.5t-47.5 -26.5l248 -693q1 -1 2 -1q3 -1 5 -1h86q1 0 1.5 -3.5t0.5 -8t-0.5 -8.5t-1.5 -4h-331z"/>
<glyph glyph-name="AE" horiz-adv-x="905" unicode="Æ" d="M405 666l-195 -367h195v367zM880 3q0 -3 -3 -3h-562q-1 0 -1 4v8.5v8t1 3.5h85q5 0 5 4v248h-207l-111 -210q-15 -27 -18 -34.5t2 -7.5h75q2 0 2 -4.5t-2 -19.5h-180q-2 15 -2 19.5t2 4.5h62q5 0 10.5 6.5t20.5 35.5l334 619h-82q-1 0 -1 4v8.5v8t1 3.5h517q3 0 3 -3 v-221l-3 -1h-8h-8l-4 1q0 35 -9.5 70.5t-30 64.5t-52 47t-76.5 18h-88q-4 0 -4 -4v-305h16q29 0 50 11.5t35 30.5t21 43.5t7 50.5q0 2 11 2t11 -2v-296q0 -2 -11 -2t-11 2q0 26 -7 50t-21 43.5t-35 31t-50 11.5h-16v-324q0 -4 4 -4h91q59 0 99.5 20t66.5 51.5t37.5 70.5 t11.5 78q0 2 11 2t11 -2v-241z"/>
<glyph glyph-name="Ccedilla" horiz-adv-x="653" unicode="Ç" d="M598 -15q0 -1 -10.5 -1t-12.5 1q-2 9 -12 19.5t-30 10.5q-15 0 -36 -5t-43 -11t-44 -11t-39 -5l-4 -10t-2 -6q0 -25 10.5 -34.5t23 -16.5t23 -19t10.5 -41q0 -34 -18.5 -58.5t-59.5 -24.5q-24 0 -39.5 6t-25 15.5t-13.5 21t-4 23.5q0 9 7 16.5t19 7.5q9 0 16.5 -4 t7.5 -15q0 -12 -6 -15t-6 -11q0 -11 12 -16t32 -5q26 0 37 8.5t11 24.5q0 14 -10.5 21t-23.5 14.5t-23.5 20.5t-10.5 40q0 14 5.5 30t11.5 27q-65 2 -120.5 33t-96 82t-63.5 117t-23 139q0 75 23 142.5t64.5 118.5t98 81t123.5 30q17 0 37 -4t40.5 -9.5t40.5 -9.5t36 -4 q20 0 32.5 8t14.5 16q0 2 11 2t11 -2v-244q0 -2 -11 -2t-11 2q0 37 -18 76.5t-47 72t-65 53.5t-71 21q-32 0 -54 -8t-42 -28q-32 -35 -44.5 -110.5t-12.5 -201.5q0 -127 12.5 -201.5t44.5 -109.5q20 -22 44.5 -29.5t56.5 -7.5q43 0 81.5 22t68 58.5t46.5 83.5t17 96 q0 1 3.5 1.5t8 0.5t8 -0.5t3.5 -1.5v-281z"/>
<glyph glyph-name="Egrave" horiz-adv-x="627" unicode="È" d="M436 791q2 -1 1.5 -12.5t-2.5 -11.5q-82 19 -133.5 41t-80.5 45t-40 46t-11 42q0 17 11 28t29 11q23 0 39 -24.5t38 -57t56 -63.5t93 -44zM602 3q0 -3 -3 -3h-562q-1 0 -1 4v8.5v8t1 3.5h85q5 0 5 4v653q0 4 -5 4h-85q-1 0 -1 4v8.5v8t1 3.5h511q5 0 5 -3v-221l-3 -1 h-8.5h-8.5l-4 1q0 35 -9.5 70.5t-29.5 64.5t-51.5 47t-76.5 18h-87q-7 0 -7 -4v-305h18q29 0 50 11.5t35 30.5t21 43.5t7 50.5q0 2 11 2t11 -2v-296q0 -2 -11 -2t-11 2q0 26 -7 50t-21 43.5t-35 31t-50 11.5h-18v-324q0 -4 7 -4h90q59 0 99.5 20t66.5 51.5t37.5 70.5 t11.5 78q0 2 11 2t11 -2v-241z"/>
<glyph glyph-name="Eacute" horiz-adv-x="627" unicode="É" d="M602 3q0 -3 -3 -3h-562q-1 0 -1 4v8.5v8t1 3.5h85q5 0 5 4v653q0 4 -5 4h-85q-1 0 -1 4v8.5v8t1 3.5h511q5 0 5 -3v-221l-3 -1h-8.5h-8.5l-4 1q0 35 -9.5 70.5t-29.5 64.5t-51.5 47t-76.5 18h-87q-7 0 -7 -4v-305h18q29 0 50 11.5t35 30.5t21 43.5t7 50.5q0 2 11 2t11 -2 v-296q0 -2 -11 -2t-11 2q0 26 -7 50t-21 43.5t-35 31t-50 11.5h-18v-324q0 -4 7 -4h90q59 0 99.5 20t66.5 51.5t37.5 70.5t11.5 78q0 2 11 2t11 -2v-241zM484 941q0 -19 -10.5 -42t-39.5 -46t-80.5 -45t-133.5 -41q-2 0 -2 12v6q0 5 1 6q59 13 93 44t55.5 63.5t37.5 57 t39 24.5q18 0 29 -11t11 -28z"/>
<glyph glyph-name="Ecircumflex" horiz-adv-x="627" unicode="Ê" d="M472 778q2 -2 -4 -9t-8 -5l-145 96l-136 -96q-2 -2 -7 5t-4 9q45 50 83.5 91.5t66.5 80.5q0 1 2 1q1 0 2 -1q26 -39 65 -81.5t85 -90.5zM602 3q0 -3 -3 -3h-562q-1 0 -1 4v8.5v8t1 3.5h85q5 0 5 4v653q0 4 -5 4h-85q-1 0 -1 4v8.5v8t1 3.5h511q5 0 5 -3v-221l-3 -1h-8.5 h-8.5l-4 1q0 35 -9.5 70.5t-29.5 64.5t-51.5 47t-76.5 18h-87q-7 0 -7 -4v-305h18q29 0 50 11.5t35 30.5t21 43.5t7 50.5q0 2 11 2t11 -2v-296q0 -2 -11 -2t-11 2q0 26 -7 50t-21 43.5t-35 31t-50 11.5h-18v-324q0 -4 7 -4h90q59 0 99.5 20t66.5 51.5t37.5 70.5t11.5 78 q0 2 11 2t11 -2v-241z"/>
<glyph glyph-name="Edieresis" horiz-adv-x="627" unicode="Ë" d="M602 3q0 -3 -3 -3h-562q-1 0 -1 4v8.5v8t1 3.5h85q5 0 5 4v653q0 4 -5 4h-85q-1 0 -1 4v8.5v8t1 3.5h511q5 0 5 -3v-221l-3 -1h-8.5h-8.5l-4 1q0 35 -9.5 70.5t-29.5 64.5t-51.5 47t-76.5 18h-87q-7 0 -7 -4v-305h18q29 0 50 11.5t35 30.5t21 43.5t7 50.5q0 2 11 2t11 -2 v-296q0 -2 -11 -2t-11 2q0 26 -7 50t-21 43.5t-35 31t-50 11.5h-18v-324q0 -4 7 -4h90q59 0 99.5 20t66.5 51.5t37.5 70.5t11.5 78q0 2 11 2t11 -2v-241zM260 850q0 -23 -17 -38.5t-37 -15.5q-24 0 -39.5 15.5t-15.5 38.5t15.5 38.5t39.5 15.5q20 0 37 -15.5t17 -38.5z M478 850q0 -23 -16 -38.5t-38 -15.5q-23 0 -40 15.5t-17 38.5t17 38.5t40 15.5q22 0 38 -15.5t16 -38.5z"/>
<glyph glyph-name="Igrave" horiz-adv-x="397" unicode="Ì" d="M334 791q2 -1 1.5 -12.5t-2.5 -11.5q-82 19 -133.5 41t-80.5 45t-40 46t-11 42q0 17 11 28t29 11q23 0 39 -24.5t38 -57t56 -63.5t93 -44zM38 0q-1 0 -1 4v8.5v8t1 3.5h85q4 0 4 4v653q0 4 -4 4h-85q-1 0 -1 4v8.5v8t1 3.5h322q1 0 1.5 -3.5t0.5 -8t-0.5 -8.5t-1.5 -4 h-85q-6 0 -6 -4v-653q0 -4 6 -4h85q1 0 1.5 -3.5t0.5 -8t-0.5 -8.5t-1.5 -4h-322z"/>
<glyph glyph-name="Iacute" horiz-adv-x="397" unicode="Í" d="M38 0q-1 0 -1 4v8.5v8t1 3.5h85q4 0 4 4v653q0 4 -4 4h-85q-1 0 -1 4v8.5v8t1 3.5h322q1 0 1.5 -3.5t0.5 -8t-0.5 -8.5t-1.5 -4h-85q-6 0 -6 -4v-653q0 -4 6 -4h85q1 0 1.5 -3.5t0.5 -8t-0.5 -8.5t-1.5 -4h-322zM337 941q0 -19 -10.5 -42t-39.5 -46t-80.5 -45t-133.5 -41 q-2 0 -2 12v6q0 5 1 6q59 13 93 44t55.5 63.5t37.5 57t39 24.5q18 0 29 -11t11 -28z"/>
<glyph glyph-name="Icircumflex" horiz-adv-x="397" unicode="Î" d="M354 778q2 -2 -4 -9t-8 -5l-145 96l-136 -96q-2 -2 -7 5t-4 9q45 50 83.5 91.5t66.5 80.5q0 1 2 1q1 0 2 -1q26 -39 65 -81.5t85 -90.5zM38 0q-1 0 -1 4v8.5v8t1 3.5h85q4 0 4 4v653q0 4 -4 4h-85q-1 0 -1 4v8.5v8t1 3.5h322q1 0 1.5 -3.5t0.5 -8t-0.5 -8.5t-1.5 -4h-85 q-6 0 -6 -4v-653q0 -4 6 -4h85q1 0 1.5 -3.5t0.5 -8t-0.5 -8.5t-1.5 -4h-322z"/>
<glyph glyph-name="Idieresis" horiz-adv-x="397" unicode="Ï" d="M38 0q-1 0 -1 4v8.5v8t1 3.5h85q4 0 4 4v653q0 4 -4 4h-85q-1 0 -1 4v8.5v8t1 3.5h322q1 0 1.5 -3.5t0.5 -8t-0.5 -8.5t-1.5 -4h-85q-6 0 -6 -4v-653q0 -4 6 -4h85q1 0 1.5 -3.5t0.5 -8t-0.5 -8.5t-1.5 -4h-322zM141 850q0 -23 -17 -38.5t-37 -15.5q-24 0 -39.5 15.5 t-15.5 38.5t15.5 38.5t39.5 15.5q20 0 37 -15.5t17 -38.5zM359 850q0 -23 -16 -38.5t-38 -15.5q-23 0 -40 15.5t-17 38.5t17 38.5t40 15.5q22 0 38 -15.5t16 -38.5z"/>
<glyph glyph-name="Ntilde" horiz-adv-x="693" unicode="Ñ" d="M602 685q-6 0 -6 -4v-694q0 -3 -11 -3h-3q-8 0 -10 3l-425 681v-640q0 -4 4 -4h85q1 0 1.5 -3.5t0.5 -8t-0.5 -8.5t-1.5 -4h-203q-1 0 -1.5 4t-0.5 8.5t0.5 8t1.5 3.5h83q5 0 5.5 1t0.5 3v653q0 2 -0.5 3t-5.5 1h-83q-1 0 -1.5 4t-0.5 8.5t0.5 8t1.5 3.5h243q5 0 10 -3.5 t10 -14.5l277 -451v441q0 4 -6 4h-83q-1 0 -2 4t-1 8.5t1 8t2 3.5h202v-3v-8v-9v-4h-84zM566 919q0 -24 -10 -45t-26.5 -37t-39 -25t-46.5 -9q-27 0 -50.5 6.5t-44.5 15t-40 15t-37 6.5q-39 0 -39 -47q0 -1 -3.5 -1h-8h-8.5t-4 1q0 24 10 45t27 37t39.5 25t47.5 9 q27 0 50 -6.5t43.5 -14.5t39.5 -14.5t37 -6.5q41 0 41 46q0 2 11 2t11 -2z"/>
<glyph glyph-name="Ograve" d="M510 354q0 126 -12 201.5t-44 110.5q-19 20 -43.5 28t-53.5 8t-52.5 -8t-42.5 -28q-32 -35 -44.5 -110.5t-12.5 -201.5q0 -72 3 -123t9.5 -87t17.5 -60t27 -41q19 -22 42.5 -29.5t52.5 -7.5t53.5 7.5t43.5 29.5q16 17 26.5 41t17 60t9.5 87t3 123zM667 354 q0 -77 -24 -144.5t-66 -118t-98.5 -79.5t-121.5 -29q-64 0 -120 29t-98 79.5t-66.5 118t-24.5 144.5q0 75 23 142.5t64.5 118.5t98 81t123.5 30q65 0 121.5 -29t98.5 -79.5t66 -118.5t24 -145zM428 791q2 -1 2 -8q0 -16 -3 -16q-82 19 -133.5 41t-80.5 45t-40 46t-11 42 q0 17 11 28t29 11q23 0 39 -24.5t38 -57t56 -63.5t93 -44z" unicode="Ò"/>
<glyph glyph-name="Oacute" d="M510 354q0 126 -12 201.5t-44 110.5q-19 20 -43.5 28t-53.5 8t-52.5 -8t-42.5 -28q-32 -35 -44.5 -110.5t-12.5 -201.5q0 -72 3 -123t9.5 -87t17.5 -60t27 -41q19 -22 42.5 -29.5t52.5 -7.5t53.5 7.5t43.5 29.5q16 17 26.5 41t17 60t9.5 87t3 123zM667 354 q0 -77 -24 -144.5t-66 -118t-98.5 -79.5t-121.5 -29q-64 0 -120 29t-98 79.5t-66.5 118t-24.5 144.5q0 75 23 142.5t64.5 118.5t98 81t123.5 30q65 0 121.5 -29t98.5 -79.5t66 -118.5t24 -145zM554 941q0 -19 -10.5 -42t-39.5 -46t-80.5 -45t-133.5 -41q-2 0 -2 12v6 q0 5 1 6q59 13 93 44t55.5 63.5t37.5 57t39 24.5q18 0 29 -11t11 -28z" unicode="Ó"/>
<glyph glyph-name="Ocircumflex" d="M516 778q2 -2 -4 -9t-8 -5l-145 96l-136 -96q-2 -2 -7 5t-4 9q45 50 83.5 91.5t66.5 80.5q0 1 2 1q1 0 2 -1q26 -39 65 -81.5t85 -90.5zM510 354q0 126 -12 201.5t-44 110.5q-19 20 -43.5 28t-53.5 8t-52.5 -8t-42.5 -28q-32 -35 -44.5 -110.5t-12.5 -201.5q0 -72 3 -123 t9.5 -87t17.5 -60t27 -41q19 -22 42.5 -29.5t52.5 -7.5t53.5 7.5t43.5 29.5q16 17 26.5 41t17 60t9.5 87t3 123zM667 354q0 -77 -24 -144.5t-66 -118t-98.5 -79.5t-121.5 -29q-64 0 -120 29t-98 79.5t-66.5 118t-24.5 144.5q0 75 23 142.5t64.5 118.5t98 81t123.5 30 q65 0 121.5 -29t98.5 -79.5t66 -118.5t24 -145z" unicode="Ô"/>
<glyph glyph-name="Otilde" d="M510 354q0 126 -12 201.5t-44 110.5q-19 20 -43.5 28t-53.5 8t-52.5 -8t-42.5 -28q-32 -35 -44.5 -110.5t-12.5 -201.5q0 -72 3 -123t9.5 -87t17.5 -60t27 -41q19 -22 42.5 -29.5t52.5 -7.5t53.5 7.5t43.5 29.5q16 17 26.5 41t17 60t9.5 87t3 123zM667 354 q0 -77 -24 -144.5t-66 -118t-98.5 -79.5t-121.5 -29q-64 0 -120 29t-98 79.5t-66.5 118t-24.5 144.5q0 75 23 142.5t64.5 118.5t98 81t123.5 30q65 0 121.5 -29t98.5 -79.5t66 -118.5t24 -145zM537 919q0 -24 -10 -45t-26.5 -37t-39 -25t-46.5 -9q-27 0 -50.5 6.5t-44.5 15 t-40 15t-37 6.5q-39 0 -39 -47q0 -1 -3.5 -1h-8h-8.5t-4 1q0 24 10 45t27 37t39.5 25t47.5 9q27 0 50 -6.5t43.5 -14.5t39.5 -14.5t37 -6.5q41 0 41 46q0 2 11 2t11 -2z" unicode="Õ"/>
<glyph glyph-name="Odieresis" d="M510 354q0 126 -12 201.5t-44 110.5q-19 20 -43.5 28t-53.5 8t-52.5 -8t-42.5 -28q-32 -35 -44.5 -110.5t-12.5 -201.5q0 -72 3 -123t9.5 -87t17.5 -60t27 -41q19 -22 42.5 -29.5t52.5 -7.5t53.5 7.5t43.5 29.5q16 17 26.5 41t17 60t9.5 87t3 123zM667 354 q0 -77 -24 -144.5t-66 -118t-98.5 -79.5t-121.5 -29q-64 0 -120 29t-98 79.5t-66.5 118t-24.5 144.5q0 75 23 142.5t64.5 118.5t98 81t123.5 30q65 0 121.5 -29t98.5 -79.5t66 -118.5t24 -145zM304 850q0 -23 -17 -38.5t-37 -15.5q-24 0 -39.5 15.5t-15.5 38.5t15.5 38.5 t39.5 15.5q20 0 37 -15.5t17 -38.5zM522 850q0 -23 -16 -38.5t-38 -15.5q-23 0 -40 15.5t-17 38.5t17 38.5t40 15.5q22 0 38 -15.5t16 -38.5z" unicode="Ö"/>
<glyph glyph-name="Oslash" d="M510 354q0 71 -3 125.5t-12 96.5l-19 -35q-20 -35 -50 -88.5t-64 -115t-64 -115t-50 -88.5l-19 -35q7 -17 15.5 -31t17.5 -25q19 -22 42.5 -29.5t52.5 -7.5t53.5 7.5t43.5 29.5q16 17 26.5 41t17 60t9.5 87t3 123zM488 607q-8 19 -15.5 33.5t-18.5 25.5q-19 20 -43.5 28 t-53.5 8t-52.5 -8t-42.5 -28q-32 -35 -44.5 -110.5t-12.5 -201.5q0 -79 3 -133.5t10 -91.5zM667 354q0 -77 -24 -144.5t-66 -118t-98.5 -79.5t-121.5 -29q-45 0 -86 14.5t-76 40.5q3 6 -2.5 -3t-12.5 -22q-9 -16 -21 -38h-1t-3.5 1t-6.5 3.5t-7 4.5l-3 2l38 68 q-58 51 -93 128.5t-35 171.5q0 75 23 142.5t64.5 118.5t98 81t123.5 30q91 0 165 -57q-3 -6 2.5 3.5t13.5 24.5q9 16 22 39h1q2 0 10.5 -5.5t7.5 -7.5q-3 -5 -8 -15q-4 -8 -11.5 -21t-18.5 -33q58 -51 92 -128.5t34 -171.5z" unicode="Ø"/>
<glyph glyph-name="Ugrave" horiz-adv-x="683" unicode="Ù" d="M587 685q-4 0 -4 -4v-471q0 -103 -55 -165t-175 -62q-53 0 -98 12.5t-77.5 38.5t-50.5 66t-18 96v485q0 4 -5 4h-84q-1 0 -1 4v8.5v8t1 3.5h321q1 0 1.5 -3.5t0.5 -8t-0.5 -8.5t-1.5 -4h-84q-7 0 -7 -4v-485q0 -43 6 -76.5t20.5 -56.5t39 -35t62.5 -12q95 0 138 53.5 t43 140.5v471q0 4 -6 4h-90q-1 0 -1 4v8.5v8t1 3.5h209q1 0 1.5 -3.5t0.5 -8t-0.5 -8.5t-1.5 -4h-85zM488 791q2 -1 2 -8q0 -16 -3 -16q-82 19 -133.5 41t-80.5 45t-40 46t-11 42q0 17 11 28t29 11q23 0 39 -24.5t38 -57t56 -63.5t93 -44z"/>
<glyph glyph-name="Uacute" horiz-adv-x="683" unicode="Ú" d="M587 685q-4 0 -4 -4v-471q0 -103 -55 -165t-175 -62q-53 0 -98 12.5t-77.5 38.5t-50.5 66t-18 96v485q0 4 -5 4h-84q-1 0 -1 4v8.5v8t1 3.5h321q1 0 1.5 -3.5t0.5 -8t-0.5 -8.5t-1.5 -4h-84q-7 0 -7 -4v-485q0 -43 6 -76.5t20.5 -56.5t39 -35t62.5 -12q95 0 138 53.5 t43 140.5v471q0 4 -6 4h-90q-1 0 -1 4v8.5v8t1 3.5h209q1 0 1.5 -3.5t0.5 -8t-0.5 -8.5t-1.5 -4h-85zM559 941q0 -19 -10.5 -42t-39.5 -46t-80.5 -45t-133.5 -41q-2 0 -2 12v6q0 5 1 6q59 13 93 44t55.5 63.5t37.5 57t39 24.5q18 0 29 -11t11 -28z"/>
<glyph glyph-name="Ucircumflex" horiz-adv-x="683" unicode="Û" d="M548 778q2 -2 -4 -9t-8 -5l-145 96l-136 -96q-2 -2 -7 5t-4 9q45 50 83.5 91.5t66.5 80.5q0 1 2 1q1 0 2 -1q26 -39 65 -81.5t85 -90.5zM587 685q-4 0 -4 -4v-471q0 -103 -55 -165t-175 -62q-53 0 -98 12.5t-77.5 38.5t-50.5 66t-18 96v485q0 4 -5 4h-84q-1 0 -1 4v8.5v8 t1 3.5h321q1 0 1.5 -3.5t0.5 -8t-0.5 -8.5t-1.5 -4h-84q-7 0 -7 -4v-485q0 -43 6 -76.5t20.5 -56.5t39 -35t62.5 -12q95 0 138 53.5t43 140.5v471q0 4 -6 4h-90q-1 0 -1 4v8.5v8t1 3.5h209q1 0 1.5 -3.5t0.5 -8t-0.5 -8.5t-1.5 -4h-85z"/>
<glyph glyph-name="Udieresis" horiz-adv-x="683" unicode="Ü" d="M343 850q0 -23 -17 -38.5t-37 -15.5q-24 0 -39.5 15.5t-15.5 38.5t15.5 38.5t39.5 15.5q20 0 37 -15.5t17 -38.5zM561 850q0 -23 -16 -38.5t-38 -15.5q-23 0 -40 15.5t-17 38.5t17 38.5t40 15.5q22 0 38 -15.5t16 -38.5zM587 685q-4 0 -4 -4v-471q0 -103 -55 -165 t-175 -62q-53 0 -98 12.5t-77.5 38.5t-50.5 66t-18 96v485q0 4 -5 4h-84q-1 0 -1 4v8.5v8t1 3.5h321q1 0 1.5 -3.5t0.5 -8t-0.5 -8.5t-1.5 -4h-84q-7 0 -7 -4v-485q0 -43 6 -76.5t20.5 -56.5t39 -35t62.5 -12q95 0 138 53.5t43 140.5v471q0 4 -6 4h-90q-1 0 -1 4v8.5v8 t1 3.5h209q1 0 1.5 -3.5t0.5 -8t-0.5 -8.5t-1.5 -4h-85z"/>
<glyph glyph-name="germandbls" horiz-adv-x="619" unicode="ß" d="M562 193q0 -53 -17 -91t-42.5 -63t-55 -36.5t-55.5 -11.5t-47 11.5t-36 29t-23 37t-8 34.5q0 19 9.5 30t23.5 11q17 0 27 -8t10 -24q0 -11 -5 -18t-5 -22q0 -29 15.5 -43t38.5 -14q16 0 26.5 3.5t16.5 19.5t8.5 50t2.5 95t-5.5 102.5t-17 66.5t-29.5 35.5t-44 10.5 q-9 0 -19 -2.5t-20 -9.5q-3 -1 -8.5 9t-5.5 11q26 14 42.5 26t27 30t14.5 45t4 70q0 72 -17.5 107.5t-72.5 35.5q-39 0 -63 -35t-24 -94v-563q0 -4 7 -4h57q2 0 2.5 -3.5t0.5 -8t-0.5 -8.5t-2.5 -4h-246q-1 0 -2 4t-1 8.5t1 8t2 3.5h57q5 0 5.5 1t0.5 3v421q0 80 17.5 136 t46 91.5t65.5 51.5t77 16q45 0 81.5 -13t62.5 -35.5t40 -53.5t14 -67q0 -31 -5.5 -55t-19 -42.5t-37 -33t-59.5 -26.5q13 2 20 1.5t16 -0.5q35 0 63 -17.5t48.5 -48t31.5 -71.5t11 -89z"/>
<glyph glyph-name="agrave" horiz-adv-x="481" unicode="à" d="M338 536q2 -1 1.5 -12.5t-2.5 -11.5q-82 19 -133.5 41t-80.5 45t-40 46t-11 42q0 17 11 28t29 11q23 0 39 -24.5t38 -57t56 -63.5t93 -44zM289 221q-19 -11 -39.5 -13.5t-43.5 -5.5q-13 -3 -22.5 -7t-15.5 -14t-9 -29.5t-3 -54.5q0 -16 1 -30t6 -24.5t16 -16.5t30 -6 q36 0 58 34t22 82v85zM448.5 6q-26.5 -14 -56.5 -14q-16 0 -33 5.5t-31.5 14.5t-24 21t-12.5 25q-11 -31 -36 -48.5t-64 -17.5q-27 0 -54 5.5t-49 17.5t-36 32t-14 50q0 39 17 63.5t40.5 38t48.5 19t41 6.5q44 4 74 9t30 21v76q0 30 -4 46.5t-12 24.5t-19.5 9.5t-25.5 1.5 h-20t-17.5 -2.5t-12 -9t-4.5 -20.5t4 -22t4 -21q0 -16 -11.5 -28t-39.5 -12q-26 0 -38 15.5t-12 34.5q0 15 11 31t31 29t47 21t58 8q81 0 130 -43.5t49 -137.5v-195q0 -34 22 -34q13 0 21 5.5t10 13.5q1 2 8 -4.5t7 -8.5q0 -12 -26.5 -26z"/>
<glyph glyph-name="aacute" horiz-adv-x="481" unicode="á" d="M289 221q-19 -11 -39.5 -13.5t-43.5 -5.5q-13 -3 -22.5 -7t-15.5 -14t-9 -29.5t-3 -54.5q0 -16 1 -30t6 -24.5t16 -16.5t30 -6q36 0 58 34t22 82v85zM446 4q-24 -12 -54 -12q-16 0 -33 5.5t-31.5 14.5t-24 21t-12.5 25q-11 -31 -36 -48.5t-64 -17.5q-27 0 -54 5.5 t-49 17.5t-36 32t-14 50q0 39 17 63.5t40.5 38t48.5 19t41 6.5q44 4 74 9t30 21v76q0 30 -4 46.5t-12 24.5t-19.5 9.5t-25.5 1.5h-20t-17.5 -2.5t-12 -9t-4.5 -20.5t4 -22t4 -21q0 -16 -11.5 -28t-39.5 -12q-26 0 -38 15.5t-12 34.5q0 15 11 31t31 29t47 21t58 8 q81 0 130 -43.5t49 -137.5v-195q0 -34 22 -34q13 0 21 5.5t10 13.5q0 2 8 -5q7 -6 7 -8q0 -13 -29 -28zM420 686q0 -19 -10.5 -42t-39.5 -46t-80.5 -45t-133.5 -41q-2 0 -2 12v6q0 5 1 6q59 13 93 44t55.5 63.5t37.5 57t39 24.5q18 0 29 -11t11 -28z"/>
<glyph glyph-name="acircumflex" horiz-adv-x="481" unicode="â" d="M289 221q-19 -11 -39.5 -13.5t-43.5 -5.5q-13 -3 -22.5 -7t-15.5 -14t-9 -29.5t-3 -54.5q0 -16 1 -30t6 -24.5t16 -16.5t30 -6q36 0 58 34t22 82v85zM446 4q-24 -12 -54 -12q-16 0 -33 5.5t-31.5 14.5t-24 21t-12.5 25q-11 -31 -36 -48.5t-64 -17.5q-27 0 -54 5.5 t-49 17.5t-36 32t-14 50q0 39 17 63.5t40.5 38t48.5 19t41 6.5q44 4 74 9t30 21v76q0 30 -4 46.5t-12 24.5t-19.5 9.5t-25.5 1.5h-20t-17.5 -2.5t-12 -9t-4.5 -20.5t4 -22t4 -21q0 -16 -11.5 -28t-39.5 -12q-26 0 -38 15.5t-12 34.5q0 15 11 31t31 29t47 21t58 8 q81 0 130 -43.5t49 -137.5v-195q0 -34 22 -34q13 0 21 5.5t10 13.5q0 2 8 -5q7 -6 7 -8q0 -13 -29 -28zM396 523l1 -1q0 -2 -5 -7.5t-7 -5.5h-1l-145 96l-136 -96h-1q-2 0 -6 5q-4 6 -4 8q-1 2 83 92q38 42 67 81q0 1 1.5 1t2.5 -1q26 -39 65 -81.5t85 -90.5z"/>
<glyph glyph-name="atilde" horiz-adv-x="481" unicode="ã" d="M289 221q-19 -11 -39.5 -13.5t-43.5 -5.5q-13 -3 -22.5 -7t-15.5 -14t-9 -29.5t-3 -54.5q0 -16 1 -30t6 -24.5t16 -16.5t30 -6q36 0 58 34t22 82v85zM446 4q-24 -12 -54 -12q-16 0 -33 5.5t-31.5 14.5t-24 21t-12.5 25q-11 -31 -36 -48.5t-64 -17.5q-27 0 -54 5.5 t-49 17.5t-36 32t-14 50q0 39 17 63.5t40.5 38t48.5 19t41 6.5q44 4 74 9t30 21v76q0 30 -4 46.5t-12 24.5t-19.5 9.5t-25.5 1.5h-20t-17.5 -2.5t-12 -9t-4.5 -20.5t4 -22t4 -21q0 -16 -11.5 -28t-39.5 -12q-26 0 -38 15.5t-12 34.5q0 15 11 31t31 29t47 21t58 8 q81 0 130 -43.5t49 -137.5v-195q0 -34 22 -34q13 0 21 5.5t10 13.5q0 2 8 -5q7 -6 7 -8q0 -13 -29 -28zM425 664q0 -24 -10 -45t-26.5 -37t-39 -25t-46.5 -9q-27 0 -50.5 6.5t-44.5 15t-40 15t-37 6.5q-39 0 -39 -47q0 -1 -3.5 -1h-8h-8.5t-4 1q0 24 10 45t27 37t39.5 25 t47.5 9q27 0 50 -6.5t43.5 -14.5t39.5 -14.5t37 -6.5q41 0 41 46q0 2 11 2t11 -2z"/>
<glyph glyph-name="adieresis" horiz-adv-x="481" unicode="ä" d="M184 595q0 -23 -17 -38.5t-37 -15.5q-24 0 -39.5 15.5t-15.5 38.5t15.5 38.5t39.5 15.5q20 0 37 -15.5t17 -38.5zM402 595q0 -23 -16 -38.5t-38 -15.5q-23 0 -40 15.5t-17 38.5t17 38.5t40 15.5q22 0 38 -15.5t16 -38.5zM289 221q-19 -11 -39.5 -13.5t-43.5 -5.5 q-13 -3 -22.5 -7t-15.5 -14t-9 -29.5t-3 -54.5q0 -16 1 -30t6 -24.5t16 -16.5t30 -6q36 0 58 34t22 82v85zM448.5 6q-26.5 -14 -56.5 -14q-16 0 -33 5.5t-31.5 14.5t-24 21t-12.5 25q-11 -31 -36 -48.5t-64 -17.5q-27 0 -54 5.5t-49 17.5t-36 32t-14 50q0 39 17 63.5 t40.5 38t48.5 19t41 6.5q44 4 74 9t30 21v76q0 30 -4 46.5t-12 24.5t-19.5 9.5t-25.5 1.5h-20t-17.5 -2.5t-12 -9t-4.5 -20.5t4 -22t4 -21q0 -16 -11.5 -28t-39.5 -12q-26 0 -38 15.5t-12 34.5q0 15 11 31t31 29t47 21t58 8q81 0 130 -43.5t49 -137.5v-195q0 -34 22 -34 q13 0 21 5.5t10 13.5q1 2 8 -4.5t7 -8.5q0 -12 -26.5 -26z"/>
<glyph glyph-name="aring" horiz-adv-x="481" unicode="å" d="M299 608q0 22 -17 37.5t-40 15.5t-39.5 -15.5t-16.5 -37.5t16.5 -37.5t39.5 -15.5t40 15.5t17 37.5zM324 608q0 -32 -23.5 -54.5t-58.5 -22.5q-33 0 -57 22.5t-24 54.5t24 54.5t57 22.5q35 0 58.5 -22.5t23.5 -54.5zM289 221q-19 -11 -39.5 -13.5t-43.5 -5.5 q-13 -3 -22.5 -7t-15.5 -14t-9 -29.5t-3 -54.5q0 -16 1 -30t6 -24.5t16 -16.5t30 -6q36 0 58 34t22 82v85zM448.5 6q-26.5 -14 -56.5 -14q-16 0 -33 5.5t-31.5 14.5t-24 21t-12.5 25q-11 -31 -36 -48.5t-64 -17.5q-27 0 -54 5.5t-49 17.5t-36 32t-14 50q0 39 17 63.5 t40.5 38t48.5 19t41 6.5q44 4 74 9t30 21v76q0 30 -4 46.5t-12 24.5t-19.5 9.5t-25.5 1.5h-20t-17.5 -2.5t-12 -9t-4.5 -20.5t4 -22t4 -21q0 -16 -11.5 -28t-39.5 -12q-26 0 -38 15.5t-12 34.5q0 15 11 31t31 29t47 21t58 8q81 0 130 -43.5t49 -137.5v-195q0 -34 22 -34 q13 0 21 5.5t10 13.5q1 2 8 -4.5t7 -8.5q0 -12 -26.5 -26z"/>
<glyph glyph-name="ae" horiz-adv-x="746" unicode="æ" d="M280 220q-18 -11 -35.5 -13.5t-41.5 -6.5q-13 -3 -22.5 -6.5t-15.5 -13.5t-9 -29.5t-3 -54.5q0 -16 1.5 -30t6.5 -24.5t16.5 -16.5t30.5 -6t32.5 9t22.5 23.5t13 33.5t4 40v95zM601 259q0 30 -2 51t-6 36t-10.5 25t-14.5 19q-11 13 -24.5 17t-30.5 4q-21 0 -35.5 -4 t-28.5 -17q-9 -9 -16 -19t-12 -25t-7.5 -36t-3.5 -51h191zM710 238q0 -3 -3 -3h-297v-22q0 -41 2.5 -70t7 -49.5t12 -34t17.5 -23.5q14 -13 28.5 -17t35.5 -4q57 0 100 23.5t70 60.5q1 1 8.5 -5t7.5 -8q-30 -43 -80 -69t-106 -26q-78 0 -134.5 30.5t-77.5 77.5 q-2 -24 -12.5 -44t-26.5 -34t-35.5 -22t-38.5 -8q-26 0 -52.5 5.5t-48.5 17.5t-35.5 32t-13.5 50q0 39 16.5 63.5t40 38t48 19t39.5 6.5q45 4 71.5 9t26.5 21v76q0 30 -3.5 46.5t-10.5 24.5t-17.5 9.5t-24.5 1.5h-19.5t-17 -2.5t-11.5 -9t-4 -20.5q0 -15 4.5 -23t4.5 -22 q0 -15 -12.5 -26.5t-39.5 -11.5q-26 0 -37 15.5t-11 34.5q0 15 10.5 31t29 28.5t45 21t58.5 8.5q91 0 140 -57q29 25 67.5 41t81.5 16q50 0 86.5 -21t61.5 -52t37 -64.5t12 -59.5z"/>
<glyph glyph-name="ccedilla" horiz-adv-x="472" unicode="ç" d="M452 86q-31 -42 -80 -67.5t-104 -27.5q-2 -5 -3.5 -11t-1.5 -8q0 -24 10.5 -33.5t23 -17t23 -19t10.5 -41.5q0 -32 -19 -56.5t-59 -24.5q-24 0 -39.5 6t-25 15.5t-13.5 21t-4 22.5q0 10 7 17.5t19 7.5q9 0 15.5 -4.5t6.5 -15.5q0 -12 -5 -15t-5 -11q0 -20 44 -20 q47 0 47 33q0 13 -10.5 20t-23 14.5t-23 20.5t-10.5 39q0 15 5.5 31.5t10.5 29.5q-42 3 -79 21.5t-64.5 48.5t-43.5 69t-16 82q0 46 17.5 86.5t47.5 70.5t70 47.5t85 17.5q37 0 68 -12t54 -30.5t36 -40.5t13 -42q0 -24 -14 -35t-34 -11q-23 0 -35 11t-12 27q0 11 2 16 t4.5 10t4.5 11.5t2 18.5q0 30 -24 41.5t-65 11.5q-19 0 -33 -4t-27 -17q-10 -10 -16.5 -23.5t-10.5 -34t-6 -49.5t-2 -70t2 -70t6 -49.5t10.5 -34t16.5 -23.5q13 -13 27 -17t33 -4q57 0 104.5 23.5t72.5 60.5q1 1 6 -4t5 -8z"/>
<glyph glyph-name="egrave" horiz-adv-x="504" unicode="è" d="M374 536q2 -1 1.5 -12.5t-2.5 -11.5q-82 19 -133.5 41t-80.5 45t-40 46t-11 42q0 17 11 28t29 11q23 0 39 -24.5t38 -57t56 -63.5t93 -44zM360 259q0 30 -2.5 51t-7 36t-10.5 25t-14 19q-11 13 -24.5 17t-30.5 4q-21 0 -36 -4t-27 -17q-9 -9 -16.5 -19t-12 -25t-7.5 -36 t-3 -51h191zM468 238q0 -3 -3 -3h-296v-22q0 -41 2 -70t7 -49.5t12.5 -34t17.5 -23.5q12 -13 27 -17t36 -4q57 0 101 23.5t71 60.5q1 1 8 -5t6 -8q-29 -43 -79.5 -69t-106.5 -26q-46 0 -87 17.5t-72 47.5t-49.5 70.5t-18.5 86.5t18.5 86.5t49.5 70.5t72 47.5t87 17.5 q50 0 86.5 -21t61.5 -52t37 -64.5t12 -59.5z"/>
<glyph glyph-name="eacute" horiz-adv-x="504" unicode="é" d="M360 259q0 30 -2.5 51t-7 36t-10.5 25t-14 19q-11 13 -24.5 17t-30.5 4q-21 0 -36 -4t-27 -17q-9 -9 -16.5 -19t-12 -25t-7.5 -36t-3 -51h191zM468 238q0 -3 -3 -3h-296v-22q0 -41 2 -70t7 -49.5t12.5 -34t17.5 -23.5q12 -13 27 -17t36 -4q57 0 101 23.5t71 60.5 q1 1 8 -5t6 -8q-29 -43 -79.5 -69t-106.5 -26q-46 0 -87 17.5t-72 47.5t-49.5 70.5t-18.5 86.5t18.5 86.5t49.5 70.5t72 47.5t87 17.5q50 0 86.5 -21t61.5 -52t37 -64.5t12 -59.5zM434 686q0 -19 -10.5 -42t-39.5 -46t-80.5 -45t-133.5 -41q-2 0 -2 12v6q0 5 1 6 q59 13 93 44t55.5 63.5t37.5 57t39 24.5q18 0 29 -11t11 -28z"/>
<glyph glyph-name="ecircumflex" horiz-adv-x="504" unicode="ê" d="M360 259q0 30 -2.5 51t-7 36t-10.5 25t-14 19q-11 13 -24.5 17t-30.5 4q-21 0 -36 -4t-27 -17q-9 -9 -16.5 -19t-12 -25t-7.5 -36t-3 -51h191zM468 238q0 -3 -3 -3h-296v-22q0 -41 2 -70t7 -49.5t12.5 -34t17.5 -23.5q12 -13 27 -17t36 -4q57 0 101 23.5t71 60.5 q1 1 8 -5t6 -8q-29 -43 -79.5 -69t-106.5 -26q-46 0 -87 17.5t-72 47.5t-49.5 70.5t-18.5 86.5t18.5 86.5t49.5 70.5t72 47.5t87 17.5q50 0 86.5 -21t61.5 -52t37 -64.5t12 -59.5zM415 523l1 -1q0 -2 -5 -7.5t-7 -5.5h-1l-145 96l-136 -96h-1q-2 0 -6 5q-4 6 -4 8 q-1 2 83 92q38 42 67 81q0 1 1.5 1t2.5 -1q26 -39 65 -81.5t85 -90.5z"/>
<glyph glyph-name="edieresis" horiz-adv-x="504" unicode="ë" d="M207 595q0 -23 -17 -38.5t-37 -15.5q-24 0 -39.5 15.5t-15.5 38.5t15.5 38.5t39.5 15.5q20 0 37 -15.5t17 -38.5zM425 595q0 -23 -16 -38.5t-38 -15.5q-23 0 -40 15.5t-17 38.5t17 38.5t40 15.5q22 0 38 -15.5t16 -38.5zM360 259q0 30 -2.5 51t-7 36t-10.5 25t-14 19 q-11 13 -24.5 17t-30.5 4q-21 0 -36 -4t-27 -17q-9 -9 -16.5 -19t-12 -25t-7.5 -36t-3 -51h191zM468 238q0 -3 -3 -3h-296v-22q0 -41 2 -70t7 -49.5t12.5 -34t17.5 -23.5q12 -13 27 -17t36 -4q57 0 101 23.5t71 60.5q1 1 8 -5t6 -8q-29 -43 -79.5 -69t-106.5 -26 q-46 0 -87 17.5t-72 47.5t-49.5 70.5t-18.5 86.5t18.5 86.5t49.5 70.5t72 47.5t87 17.5q50 0 86.5 -21t61.5 -52t37 -64.5t12 -59.5z"/>
<glyph glyph-name="igrave" horiz-adv-x="316" unicode="ì" d="M225 536q2 -1 1.5 -12.5t-2.5 -11.5q-82 19 -133.5 41t-81 45t-40 46t-10.5 42q0 17 11 28t29 11q23 0 39 -24.5t38 -57t56 -63.5t93 -44zM38 0q-1 0 -1 4v8.5v8t1 3.5h60q7 0 7 4v370q0 4 -7 4h-60q-1 0 -1 4v8.5v8t1 3.5h180q4 0 4 -3v-395q0 -4 7 -4h59q1 0 1.5 -3.5 t0.5 -8t-0.5 -8.5t-1.5 -4h-250z"/>
<glyph glyph-name="iacute" horiz-adv-x="316" unicode="í" d="M38 0q-1 0 -1 4v8.5v8t1 3.5h60q7 0 7 4v370q0 4 -7 4h-60q-1 0 -1 4v8.5v8t1 3.5h180q4 0 4 -3v-395q0 -4 7 -4h59q1 0 1.5 -3.5t0.5 -8t-0.5 -8.5t-1.5 -4h-250zM313 686q0 -19 -10.5 -42t-39.5 -46t-80.5 -45t-133.5 -41q-2 0 -2 12v6q0 5 1 6q59 13 93 44t55.5 63.5 t37.5 57t39 24.5q18 0 29 -11t11 -28z"/>
<glyph glyph-name="icircumflex" horiz-adv-x="316" unicode="î" d="M38 0q-1 0 -1 4v8.5v8t1 3.5h60q7 0 7 4v370q0 4 -7 4h-60q-1 0 -1 4v8.5v8t1 3.5h180q4 0 4 -3v-395q0 -4 7 -4h59q1 0 1.5 -3.5t0.5 -8t-0.5 -8.5t-1.5 -4h-250zM295 523l1 -1q0 -2 -5 -7.5t-7 -5.5h-1l-145 96l-136 -96h-1q-2 0 -6 5q-4 6 -4 8q-1 2 83 92 q38 42 67 81q0 1 1.5 1t2.5 -1q26 -39 65 -81.5t85 -90.5z"/>
<glyph glyph-name="idieresis" horiz-adv-x="316" unicode="ï" d="M93 595q0 -23 -17 -38.5t-37 -15.5q-24 0 -39.5 15.5t-15.5 38.5t15.5 38.5t39.5 15.5q20 0 37 -15.5t17 -38.5zM311 595q0 -23 -16 -38.5t-38 -15.5q-23 0 -40 15.5t-17 38.5t17 38.5t40 15.5q22 0 38 -15.5t16 -38.5zM38 0q-1 0 -1 4v8.5v8t1 3.5h60q7 0 7 4v370 q0 4 -7 4h-60q-1 0 -1 4v8.5v8t1 3.5h180q4 0 4 -3v-395q0 -4 7 -4h59q1 0 1.5 -3.5t0.5 -8t-0.5 -8.5t-1.5 -4h-250z"/>
<glyph glyph-name="ntilde" horiz-adv-x="592" unicode="ñ" d="M331 0q-1 0 -1.5 4t-0.5 8.5t0.5 8t1.5 3.5h58q5 0 5 4v281q0 53 -14 77.5t-42 24.5q-46 0 -74 -23t-46 -80v-280q0 -4 6 -4h59q1 0 1.5 -3.5t0.5 -8t-0.5 -8.5t-1.5 -4h-249q-1 0 -1 4v8.5v8t1 3.5h58q8 0 8 4v370q0 4 -8 4h-58q-1 0 -1 4v8.5v8t1 3.5h181q3 0 3 -3v-66 q14 42 49 60t71 18q82 0 128.5 -43.5t46.5 -123.5v-240q0 -4 7 -4h58q1 0 1.5 -3.5t0.5 -8t-0.5 -8.5t-1.5 -4h-247zM478 664q0 -24 -10 -45t-26.5 -37t-39 -25t-46.5 -9q-27 0 -50.5 6.5t-44.5 15t-40 15t-37 6.5q-39 0 -39 -47q0 -1 -3.5 -1h-8h-8.5t-4 1q0 24 10 45 t27 37t39.5 25t47.5 9q27 0 50 -6.5t43.5 -14.5t39.5 -14.5t37 -6.5q41 0 41 46q0 2 11 2t11 -2z"/>
<glyph glyph-name="ograve" horiz-adv-x="531" unicode="ò" d="M359 536q2 -1 1.5 -12.5t-2.5 -11.5q-82 19 -133.5 41t-80.5 45t-40 46t-11 42q0 17 11 28t29 11q23 0 39 -24.5t38 -57t56 -63.5t93 -44zM363 213q0 72 -8 114.5t-28 62.5q-12 13 -27.5 17t-35.5 4q-17 0 -32.5 -4t-28.5 -17q-19 -20 -27 -62.5t-8 -114.5q0 -41 2 -70 t6 -49.5t11 -34t16 -23.5q13 -13 28.5 -17t32.5 -4q20 0 35.5 4t27.5 17q10 10 16.5 23.5t11 34t6.5 49.5t2 70zM487 213q0 -46 -17.5 -86.5t-48 -70.5t-71 -47.5t-86.5 -17.5q-45 0 -85 17.5t-70 47.5t-47.5 70.5t-17.5 86.5t17.5 86.5t47.5 70.5t70 47.5t85 17.5 q46 0 86.5 -17.5t71 -47.5t48 -70.5t17.5 -86.5z"/>
<glyph glyph-name="oacute" horiz-adv-x="531" unicode="ó" d="M363 213q0 72 -8 114.5t-28 62.5q-12 13 -27.5 17t-35.5 4q-17 0 -32.5 -4t-28.5 -17q-19 -20 -27 -62.5t-8 -114.5q0 -41 2 -70t6 -49.5t11 -34t16 -23.5q13 -13 28.5 -17t32.5 -4q20 0 35.5 4t27.5 17q10 10 16.5 23.5t11 34t6.5 49.5t2 70zM487 213q0 -46 -17.5 -86.5 t-48 -70.5t-71 -47.5t-86.5 -17.5q-45 0 -85 17.5t-70 47.5t-47.5 70.5t-17.5 86.5t17.5 86.5t47.5 70.5t70 47.5t85 17.5q46 0 86.5 -17.5t71 -47.5t48 -70.5t17.5 -86.5zM431 686q0 -19 -10.5 -42t-39.5 -46t-80.5 -45t-133.5 -41q-2 0 -2 12v6q0 5 1 6q59 13 93 44 t55.5 63.5t37.5 57t39 24.5q18 0 29 -11t11 -28z"/>
<glyph glyph-name="ocircumflex" horiz-adv-x="531" unicode="ô" d="M363 213q0 72 -8 114.5t-28 62.5q-12 13 -27.5 17t-35.5 4q-17 0 -32.5 -4t-28.5 -17q-19 -20 -27 -62.5t-8 -114.5q0 -41 2 -70t6 -49.5t11 -34t16 -23.5q13 -13 28.5 -17t32.5 -4q20 0 35.5 4t27.5 17q10 10 16.5 23.5t11 34t6.5 49.5t2 70zM487 213q0 -46 -17.5 -86.5 t-48 -70.5t-71 -47.5t-86.5 -17.5q-45 0 -85 17.5t-70 47.5t-47.5 70.5t-17.5 86.5t17.5 86.5t47.5 70.5t70 47.5t85 17.5q46 0 86.5 -17.5t71 -47.5t48 -70.5t17.5 -86.5zM423 523l1 -1q0 -2 -5 -7.5t-7 -5.5h-1l-145 96l-136 -96h-1q-2 0 -6 5q-4 6 -4 8q-1 2 83 92 q38 42 67 81q0 1 1.5 1t2.5 -1q26 -39 65 -81.5t85 -90.5z"/>
<glyph glyph-name="otilde" horiz-adv-x="531" unicode="õ" d="M363 213q0 72 -8 114.5t-28 62.5q-12 13 -27.5 17t-35.5 4q-17 0 -32.5 -4t-28.5 -17q-19 -20 -27 -62.5t-8 -114.5q0 -41 2 -70t6 -49.5t11 -34t16 -23.5q13 -13 28.5 -17t32.5 -4q20 0 35.5 4t27.5 17q10 10 16.5 23.5t11 34t6.5 49.5t2 70zM487 213q0 -46 -17.5 -86.5 t-48 -70.5t-71 -47.5t-86.5 -17.5q-45 0 -85 17.5t-70 47.5t-47.5 70.5t-17.5 86.5t17.5 86.5t47.5 70.5t70 47.5t85 17.5q46 0 86.5 -17.5t71 -47.5t48 -70.5t17.5 -86.5zM446 664q0 -24 -10 -45t-26.5 -37t-39 -25t-46.5 -9q-27 0 -50.5 6.5t-44.5 15t-40 15t-37 6.5 q-39 0 -39 -47q0 -1 -3.5 -1h-8h-8.5t-4 1q0 24 10 45t27 37t39.5 25t47.5 9q27 0 50 -6.5t43.5 -14.5t39.5 -14.5t37 -6.5q41 0 41 46q0 2 11 2t11 -2z"/>
<glyph glyph-name="odieresis" horiz-adv-x="531" unicode="ö" d="M210 595q0 -23 -17 -38.5t-37 -15.5q-24 0 -39.5 15.5t-15.5 38.5t15.5 38.5t39.5 15.5q20 0 37 -15.5t17 -38.5zM428 595q0 -23 -16 -38.5t-38 -15.5q-23 0 -40 15.5t-17 38.5t17 38.5t40 15.5q22 0 38 -15.5t16 -38.5zM363 213q0 72 -8 114.5t-28 62.5q-12 13 -27.5 17 t-35.5 4q-17 0 -32.5 -4t-28.5 -17q-19 -20 -27 -62.5t-8 -114.5q0 -41 2 -70t6 -49.5t11 -34t16 -23.5q13 -13 28.5 -17t32.5 -4q20 0 35.5 4t27.5 17q10 10 16.5 23.5t11 34t6.5 49.5t2 70zM487 213q0 -46 -17.5 -86.5t-48 -70.5t-71 -47.5t-86.5 -17.5q-45 0 -85 17.5 t-70 47.5t-47.5 70.5t-17.5 86.5t17.5 86.5t47.5 70.5t70 47.5t85 17.5q46 0 86.5 -17.5t71 -47.5t48 -70.5t17.5 -86.5z"/>
<glyph glyph-name="oslash" horiz-adv-x="533" unicode="ø" d="M364 213q0 37 -1.5 67.5t-5.5 52.5l-13 -21l-32.5 -50t-42 -65t-42 -65l-32.5 -50l-13 -19q5 -7 11 -14t11 -13q13 -13 28.5 -17t32.5 -4q20 0 35.5 4t27.5 17q10 10 16.5 23.5t11 34t6.5 49.5t2 70zM347 363q-4 8 -8 14.5t-11 12.5q-12 13 -27.5 17t-35.5 4 q-17 0 -32.5 -4t-28.5 -17q-19 -20 -27 -62.5t-8 -114.5q0 -40 1 -69.5t4 -51.5q48 76 87 135q22 36 35.5 57t24.5 38.5t19 29.5zM488 213q0 -46 -17.5 -86.5t-48 -70.5t-71 -47.5t-86.5 -17.5q-29 0 -56 7.5t-53 21.5q-2 -1 -2 -3q-4 -7 -11 -17q-7 -12 -18 -28h-1t-3.5 1 t-6.5 3.5t-7 4.5l-3 2l32 50q-42 31 -66.5 78t-24.5 102q0 46 17.5 86.5t47.5 70.5t70 47.5t85 17.5q62 0 110 -28q-2 -4 2.5 3t11.5 17l19 29q1 0 4 -1.5t7 -4t6.5 -5t2.5 -3.5q-11 -17 -19 -29q-7 -11 -11 -17l-2 -3q43 -30 67.5 -77.5t24.5 -102.5z"/>
<glyph glyph-name="ugrave" horiz-adv-x="582" unicode="ù" d="M349 536q2 -1 1.5 -12.5t-2.5 -11.5q-82 19 -133.5 41t-80.5 45t-40 46t-11 42q0 17 11 28t29 11q23 0 39 -24.5t38 -57t56 -63.5t93 -44zM383 0q-4 0 -4 3v66q-14 -42 -49 -60t-72 -18q-80 0 -126.5 40t-46.5 120v247q0 4 -8 4h-59v4v8v8v4h182q3 0 3 -3v-306 q0 -54 14.5 -78.5t40.5 -24.5q48 0 75.5 23.5t45.5 80.5v280q0 4 -7 4h-57q-1 0 -2 4t-1 8.5t1 8t2 3.5h180q3 0 3 -3v-395q0 -4 7 -4h58q1 0 1.5 -3.5t0.5 -8t-0.5 -8.5t-1.5 -4h-180z"/>
<glyph glyph-name="uacute" horiz-adv-x="582" unicode="ú" d="M383 0q-4 0 -4 3v66q-14 -42 -49 -60t-72 -18q-80 0 -126.5 40t-46.5 120v247q0 4 -8 4h-59v4v8v8v4h182q3 0 3 -3v-306q0 -54 14.5 -78.5t40.5 -24.5q48 0 75.5 23.5t45.5 80.5v280q0 4 -7 4h-57q-1 0 -2 4t-1 8.5t1 8t2 3.5h180q3 0 3 -3v-395q0 -4 7 -4h58 q1 0 1.5 -3.5t0.5 -8t-0.5 -8.5t-1.5 -4h-180zM427 686q0 -19 -10.5 -42t-39.5 -46t-80.5 -45t-133.5 -41q-2 0 -2 12v6q0 5 1 6q59 13 93 44t55.5 63.5t37.5 57t39 24.5q18 0 29 -11t11 -28z"/>
<glyph glyph-name="ucircumflex" horiz-adv-x="582" unicode="û" d="M383 0q-4 0 -4 3v66q-14 -42 -49 -60t-72 -18q-80 0 -126.5 40t-46.5 120v247q0 4 -8 4h-59v4v8v8v4h182q3 0 3 -3v-306q0 -54 14.5 -78.5t40.5 -24.5q48 0 75.5 23.5t45.5 80.5v280q0 4 -7 4h-57q-1 0 -2 4t-1 8.5t1 8t2 3.5h180q3 0 3 -3v-395q0 -4 7 -4h58 q1 0 1.5 -3.5t0.5 -8t-0.5 -8.5t-1.5 -4h-180zM446 523l1 -1q0 -2 -5 -7.5t-7 -5.5h-1l-145 96l-136 -96h-1q-2 0 -6 5q-4 6 -4 8q-1 2 83 92q38 42 67 81q0 1 1.5 1t2.5 -1q26 -39 65 -81.5t85 -90.5z"/>
<glyph glyph-name="udieresis" horiz-adv-x="582" unicode="ü" d="M231 595q0 -23 -17 -38.5t-37 -15.5q-24 0 -39.5 15.5t-15.5 38.5t15.5 38.5t39.5 15.5q20 0 37 -15.5t17 -38.5zM449 595q0 -23 -16 -38.5t-38 -15.5q-23 0 -40 15.5t-17 38.5t17 38.5t40 15.5q22 0 38 -15.5t16 -38.5zM383 0q-4 0 -4 3v66q-14 -42 -49 -60t-72 -18 q-80 0 -126.5 40t-46.5 120v247q0 4 -8 4h-59v4v8v8v4h182q3 0 3 -3v-306q0 -54 14.5 -78.5t40.5 -24.5q48 0 75.5 23.5t45.5 80.5v280q0 4 -7 4h-57q-1 0 -2 4t-1 8.5t1 8t2 3.5h180q3 0 3 -3v-395q0 -4 7 -4h58q1 0 1.5 -3.5t0.5 -8t-0.5 -8.5t-1.5 -4h-180z"/>
<glyph glyph-name="dotlessi" horiz-adv-x="316" unicode="ı" d="M38 0q-1 0 -1 4v8.5v8t1 3.5h60q7 0 7 4v370q0 4 -7 4h-60q-1 0 -1 4v8.5v8t1 3.5h180q4 0 4 -3v-395q0 -4 7 -4h59q1 0 1.5 -3.5t0.5 -8t-0.5 -8.5t-1.5 -4h-250z"/>
<glyph glyph-name="OE" horiz-adv-x="960" unicode="Œ" d="M459 683q0 2 -5 2h-97q-32 0 -54.5 -7t-42.5 -27q-31 -33 -43 -105t-12 -192q0 -68 3 -116.5t9.5 -83t17 -57t25.5 -39.5q20 -20 42.5 -28t54.5 -8h97q5 0 5 4v657zM935 3q0 -3 -3 -3h-575q-64 0 -120.5 28t-98.5 76t-66 112.5t-24 137.5q0 70 22.5 134.5t63 113.5 t97.5 78t126 29h525q3 0 3 -3v-221q0 -1 -11 -1t-11 1q0 35 -9.5 70.5t-29.5 64.5t-52.5 47t-77.5 18h-85q-6 0 -6 -4v-305h17q29 0 50 11.5t35 30.5t21 43.5t7 50.5q0 2 11 2t11 -2v-296q0 -2 -11 -2t-11 2q0 26 -7 50t-21 43.5t-35 31t-50 11.5h-17v-324q0 -4 6 -4h88 q59 0 100 20t66.5 51.5t37.5 70.5t12 78q0 2 11 2t11 -2v-241z"/>
<glyph glyph-name="oe" horiz-adv-x="818" unicode="œ" d="M365 213q0 72 -8 114.5t-27 62.5q-13 13 -28.5 17t-32.5 4q-20 0 -35.5 -4t-26.5 -17q-21 -20 -29 -62.5t-8 -114.5q0 -41 2 -70t6 -49.5t11.5 -34t17.5 -23.5q11 -13 26.5 -17t35.5 -4q17 0 32.5 4t28.5 17q9 10 16 23.5t11 34t6 49.5t2 70zM673 259q-1 30 -3.5 51 t-6.5 36t-9.5 25t-13.5 19q-11 13 -24.5 17t-30.5 4q-22 0 -37 -4t-27 -17q-9 -9 -16 -19t-12 -25t-8 -36t-3 -51h191zM782 238q0 -3 -3 -3h-297q-1 -5 -1 -10.5v-11.5q0 -41 2.5 -70t7.5 -49.5t12.5 -34t17.5 -23.5q12 -13 27 -17t37 -4q56 0 99.5 23.5t71.5 60.5q1 1 8 -5 t6 -8q-29 -43 -79 -69t-106 -26q-30 0 -52.5 6.5t-41.5 17t-35 24.5t-31 29q-30 -33 -65 -55t-91 -22q-46 0 -87 17.5t-71.5 47.5t-48.5 70.5t-18 86.5t18 86.5t48.5 70.5t71.5 47.5t87 17.5q49 0 87.5 -21t68.5 -53q31 31 69.5 52.5t90.5 21.5q50 0 86.5 -21t61.5 -52 t37 -64.5t12 -59.5z"/>
<glyph glyph-name="Ydieresis" horiz-adv-x="634" unicode="Ÿ" d="M346 850q0 -23 -17 -38.5t-37 -15.5q-24 0 -39.5 15.5t-15.5 38.5t15.5 38.5t39.5 15.5q20 0 37 -15.5t17 -38.5zM564 850q0 -23 -16 -38.5t-38 -15.5q-23 0 -40 15.5t-17 38.5t17 38.5t40 15.5q22 0 38 -15.5t16 -38.5zM592 685q-2 0 -5 -2t-9 -12t-15.5 -29.5 t-26.5 -55.5l-125 -282v-276q0 -4 7 -4h83q1 0 1.5 -3.5t0.5 -8t-0.5 -8.5t-1.5 -4h-320q-1 0 -1 4v8.5v8t1 3.5h84q6 0 6 4v281l-181 372q-2 4 -8 4h-95q-1 0 -1.5 4t-0.5 8.5t0.5 8t1.5 3.5h349q1 0 1.5 -3.5t0.5 -8t-0.5 -8.5t-1.5 -4h-91q-3 0 -2.5 -1t-1.5 -3l165 -337 l133 299q12 29 14 35.5t-2 6.5h-84q-1 0 -1 4v8.5v8t1 3.5h203q1 0 1.5 -3.5t0.5 -8t-0.5 -8.5t-1.5 -4h-78z"/>
<glyph glyph-name="circumflex" horiz-adv-x="308" unicode="ˆ" d="M315 523l1 -1q0 -2 -5 -7.5t-7 -5.5h-1l-145 96l-136 -96h-1q-2 0 -6 5q-4 6 -4 8q-1 2 83 92q38 42 67 81q0 1 1.5 1t2.5 -1q26 -39 65 -81.5t85 -90.5z"/>
<glyph glyph-name="tilde" horiz-adv-x="382" unicode="˜" d="M368 664q0 -24 -10 -45t-26.5 -37t-39 -25t-46.5 -9q-27 0 -50.5 6.5t-44.5 15t-40 15t-37 6.5q-39 0 -39 -47q0 -1 -3.5 -1h-8h-8.5t-4 1q0 24 10 45t27 37t39.5 25t47.5 9q27 0 50 -6.5t43.5 -14.5t39.5 -14.5t37 -6.5q41 0 41 46q0 2 11 2t11 -2z"/>
</font>
</defs>
</svg>
