<?xml version="1.0" encoding="utf-8"?>
<!-- Generator: Adobe Illustrator 18.0.0, SVG Export Plug-In . SVG Version: 6.00 Build 0)  -->
<!DOCTYPE svg PUBLIC "-//W3C//DTD SVG 1.1//EN" "http://www.w3.org/Graphics/SVG/1.1/DTD/svg11.dtd">
<svg version="1.1" id="Layer_1" xmlns="http://www.w3.org/2000/svg" xmlns:xlink="http://www.w3.org/1999/xlink" x="0px" y="0px"
	 viewBox="0 0 116 48" enable-background="new 0 0 116 48" xml:space="preserve">
<g>
	<g>
		<g>
			<g>
				<path fill="#FFFFFF" d="M54.2,24.9h-7.4v3.7h-2.8v-8.8c0-4.8,2.4-6.9,6.4-6.9c4,0,6.5,2.2,6.5,6.9v8.8h-2.8V24.9z M46.8,22.7
					c1.4,0,6.7,0,7.4,0v-2.9c0-3.3-1.5-4.4-3.7-4.4s-3.7,1.3-3.7,4.4V22.7z"/>
			</g>
			<g>
				<path fill="#FFFFFF" d="M61.2,25.5c0,0,1.3,0.9,2.9,0.9c2.1,0,2.4-1.4,2.4-3.1V13.1h2.8v10.2c0,3.5-1.4,5.6-5.2,5.6
					c-2.4,0-3.9-1.1-3.9-1.1L61.2,25.5z"/>
			</g>
			<g>
				<path fill="#FFFFFF" d="M72.7,13.1h13v2.5h-5.1v13h-2.8v-13h-5.2V13.1z"/>
			</g>
			<g>
				<path fill="#FFFFFF" d="M96,12.8c4.8,0,8.3,3.4,8.3,8c0,4.6-3.5,8-8.3,8c-4.7,0-8.3-3.4-8.3-8C87.7,16.4,91.4,12.8,96,12.8z
					 M96,26.4c3,0,5.3-2.4,5.3-5.5c0-3.2-2.2-5.6-5.3-5.6c-3.1,0-5.3,2.4-5.3,5.6C90.7,24,93,26.4,96,26.4z M93.7,11.9l-0.4-1.2
					l4.8-2.4l0.8,2.2L93.7,11.9z"/>
			</g>
		</g>
		<g>
			<g>
				<path fill="#FFFFFF" d="M52.1,37.8h-0.5l-2.3-5l-2.3,5h-0.4l-2.3-7.5h1.4l1.4,4.7l2-4.8h0.4l2,4.8l1.4-4.7h1.4L52.1,37.8z"/>
			</g>
			<g>
				<path fill="#FFFFFF" d="M56.7,30.3h4.8v1.2H58v2.1h3.2v1.2H58v1.8h3.5v1.2h-4.8V30.3z"/>
			</g>
			<g>
				<path fill="#FFFFFF" d="M64.4,30.3h2.4c1.9,0,2.8,0.8,2.8,2c0,0.8-0.5,1.4-1.3,1.7c1,0.3,1.5,0.9,1.5,1.7c0,1.3-1.3,2.1-3,2.1
					h-2.4V30.3z M65.7,31.5v2h0.9c1.1,0,1.5-0.5,1.5-1.1c0-0.5-0.4-0.9-1.3-0.9H65.7z M65.7,34.5v2.1h1.1c1.1,0,1.5-0.5,1.5-1
					c0-0.5-0.4-1-1.8-1H65.7z"/>
			</g>
			<g>
				<path fill="#FFFFFF" d="M74.3,37.8c-0.9,0-1.7-0.3-2.4-0.7l0.5-1.2c0.6,0.4,1.3,0.7,2,0.7c0.9,0,1.3-0.4,1.3-0.9
					c0-0.5-0.3-0.8-1.6-1.3c-1.4-0.5-1.9-1.2-1.9-2.1c0-1.1,0.9-2.1,2.5-2.1c0.8,0,1.6,0.2,2,0.5l-0.4,1.2c-0.4-0.2-1.1-0.5-1.7-0.5
					c-0.8,0-1.1,0.4-1.1,0.9c0,0.5,0.4,0.8,1.4,1.1c1.7,0.6,2.1,1.3,2.1,2.3C76.9,37,75.9,37.8,74.3,37.8z"/>
			</g>
			<g>
				<path fill="#FFFFFF" d="M84.5,34.8h-3.6v2.9h-1.3v-7.4h1.3v3.3h3.6v-3.3h1.3v7.4h-1.3V34.8z"/>
			</g>
			<g>
				<path fill="#FFFFFF" d="M92.4,30.2c2.3,0,4,1.6,4,3.8c0,2.2-1.7,3.8-4,3.8c-2.3,0-3.9-1.6-3.9-3.8
					C88.4,31.9,90.2,30.2,92.4,30.2z M92.4,36.7c1.4,0,2.5-1.1,2.5-2.6c0-1.5-1.1-2.7-2.5-2.7c-1.5,0-2.5,1.1-2.5,2.7
					C89.8,35.5,91,36.7,92.4,36.7z"/>
			</g>
			<g>
				<path fill="#FFFFFF" d="M100.3,35.6v2.1H99v-7.4h2.3c2,0,3,1.1,3,2.6c0,1.5-1,2.6-3.2,2.6H100.3z M100.3,31.5v2.9h0.9
					c1.2,0,1.6-0.7,1.6-1.5s-0.4-1.4-1.6-1.4H100.3z"/>
			</g>
		</g>
	</g>
	<g>
		<g>
			<path fill="#FFFFFF" d="M5.1,18.4c0.3,0.1,0.6,0.1,0.9,0.2c0.7,0.2,1.1,0.7,1.3,1.4c1.4,4.9,2.7,9.7,4.1,14.6
				c0.1,0.2,0.1,0.3,0.4,0.3c5.5,0,10.9,0,16.4,0c0.6,0,1.1-0.2,1.4-0.8c0.7-1.5,1.4-2.9,2-4.4c0.9-2,1.8-4,2.7-6
				c0.1-0.3,0.2-0.7,0.3-1.1c0.1-0.5-0.1-0.6-0.5-0.6c-1.1,0-2.2,0-3.3,0c-6.4,0-12.8,0-19.2,0c-0.2,0-0.4,0-0.6-0.1
				c-0.4-0.1-0.6-0.4-0.5-0.8c0-0.3,0.3-0.6,0.7-0.6c0.3,0,0.6,0,0.9,0c7.3,0,14.7,0,22,0c1.2,0,1.7,0.4,2.2,1.7c0,0.2,0,0.4,0,0.6
				c-0.7,2.5-2,4.8-3,7.2c-0.6,1.3-1.2,2.6-1.8,3.9c-0.2,0.4-0.4,0.7-0.6,1.1c-0.5,0.9-1.2,1.3-2.2,1.3c-1.6,0-3.2,0-4.9,0
				c-3.8,0-7.5,0-11.3,0c-0.1,0-0.2,0-0.4,0c0.2,1.3,1.3,2.3,2.6,2.3c4.5,0,9,0,13.5,0c0.1,0,0.3,0,0.4,0c0.4,0,0.6,0.3,0.6,0.7
				c0,0.4-0.2,0.7-0.6,0.8c-0.2,0-0.3,0-0.5,0c-4.4,0-8.8,0-13.2,0c-2.1,0-3.5-0.9-4.2-2.9c-0.4-1.2-0.7-2.4-1.1-3.6
				c-1.2-4.2-2.4-8.3-3.7-12.5c-0.2-0.7-0.9-1.3-1.7-1.3c-1.1,0-2.2,0-3.2,0c-0.5,0-0.8-0.2-1-0.6c-0.1-0.4,0.1-0.7,0.5-1
				C2.1,18.4,3.6,18.4,5.1,18.4z"/>
			<path fill="#FFFFFF" d="M28.2,47.9c-1.9,0-3.5-1.6-3.5-3.5c0-1.9,1.6-3.5,3.5-3.5c1.9,0,3.5,1.6,3.5,3.5
				C31.7,46.3,30.2,47.9,28.2,47.9z M28.2,46.5c1.2,0,2.1-0.9,2.1-2.1c0-1.1-0.9-2.1-2.1-2.1c-1.1,0-2.1,0.9-2.1,2
				C26.2,45.5,27.1,46.4,28.2,46.5z"/>
			<path fill="#FFFFFF" d="M14,47.9c-1.9,0-3.5-1.6-3.5-3.5c0-1.9,1.6-3.5,3.5-3.5c1.9,0,3.5,1.6,3.5,3.5
				C17.5,46.3,15.9,47.9,14,47.9z M14,46.5c1.1,0,2.1-0.9,2.1-2c0-1.1-0.9-2.1-2.1-2.1c-1.1,0-2,0.9-2,2.1
				C11.9,45.5,12.8,46.5,14,46.5z"/>
		</g>
		<path fill="#FFFFFF" d="M28.4,36.4H12.5c-1.4,0-2.6-1.2-2.6-2.6V2.6c0-1.4,1.2-2.6,2.6-2.6h15.9C29.8,0,31,1.2,31,2.6v31.2
			C31,35.3,29.8,36.4,28.4,36.4z M12.5,1.7c-0.5,0-0.9,0.4-0.9,0.9v31.2c0,0.5,0.4,0.9,0.9,0.9h15.9c0.5,0,0.9-0.4,0.9-0.9V2.6
			c0-0.5-0.4-0.9-0.9-0.9H12.5z"/>
		<path fill="#FFFFFF" d="M25.8,19.2c-0.5,0-0.8-0.4-0.8-0.8v-3.4c0-0.5,0.4-0.8,0.8-0.8c0.5,0,0.8,0.4,0.8,0.8v3.4
			C26.7,18.8,26.3,19.2,25.8,19.2z"/>
	</g>
</g>
<path fill="#FFFFFF" d="M110.1,48h-70c-3.2,0-5.9-2.8-5.9-6.2v-8.9c0-0.6,0.4-1,1-1s1,0.4,1,1v8.9c0,2.3,1.7,4.2,3.9,4.2h70
	c2.1,0,3.9-1.9,3.9-4.2V6.2c0-2.3-1.7-4.2-3.9-4.2h-70c-2.1,0-3.9,1.9-3.9,4.2v5.8c0,0.6-0.4,1-1,1s-1-0.4-1-1V6.2
	c0-3.4,2.6-6.2,5.9-6.2h70c3.2,0,5.9,2.8,5.9,6.2v35.5C116,45.2,113.3,48,110.1,48z"/>
</svg>
